<svg width="60" height="60" viewBox="0 0 60 60" fill="none" xmlns="http://www.w3.org/2000/svg">
<g clip-path="url(#clip0_939_1294)">
<path d="M22.7714 10.3774C22.1391 10.9878 21.7452 11.8436 21.7452 12.7919V40.0492C21.7452 41.9031 23.248 43.4059 25.1019 43.4059H52.3592C53.3074 43.4059 54.1632 43.0121 54.7736 42.3798L58.9738 38.1797C59.606 37.5692 59.9999 36.7135 59.9999 35.7651V8.50783C59.9999 6.65395 58.4971 5.15112 56.6432 5.15112H29.386C28.4376 5.15112 27.5819 5.54501 26.9714 6.17724L22.7714 10.3774Z" fill="url(#paint0_linear_939_1294)"/>
<path d="M57.3309 5.89648H30.0736C29.1253 5.89648 28.2695 6.29037 27.6591 6.9226L23.4591 11.1226C22.8267 11.7331 22.4328 12.5888 22.4328 13.5372V40.7945C22.4328 41.489 22.6438 42.1341 23.0049 42.6694C23.5795 43.1299 24.3082 43.4059 25.1019 43.4059H52.3592C53.3074 43.4059 54.1632 43.012 54.7736 42.3798L58.9738 38.1797C59.606 37.5692 59.9999 36.7134 59.9999 35.7651V8.5079C59.9999 7.81343 59.7889 7.16837 59.4278 6.63296C58.8533 6.1726 58.1246 5.89648 57.3309 5.89648V5.89648Z" fill="url(#paint1_linear_939_1294)"/>
<path d="M52.3593 43.406H25.102C23.2481 43.406 21.7453 41.9032 21.7453 40.0493V12.792C21.7453 10.9381 23.2481 9.4353 25.102 9.4353H52.3593C54.2132 9.4353 55.716 10.9381 55.716 12.792V40.0493C55.716 41.9032 54.2131 43.406 52.3593 43.406Z" fill="url(#paint2_linear_939_1294)"/>
<path d="M38.7306 31.5122C41.5426 31.5122 43.8221 29.2326 43.8221 26.4206C43.8221 23.6087 41.5426 21.3291 38.7306 21.3291C35.9186 21.3291 33.6391 23.6087 33.6391 26.4206C33.6391 29.2326 35.9186 31.5122 38.7306 31.5122Z" fill="url(#paint3_linear_939_1294)"/>
<path d="M38.7306 30.813C41.1565 30.813 43.1231 28.8464 43.1231 26.4205C43.1231 23.9947 41.1565 22.0281 38.7306 22.0281C36.3047 22.0281 34.3381 23.9947 34.3381 26.4205C34.3381 28.8464 36.3047 30.813 38.7306 30.813Z" fill="url(#paint4_linear_939_1294)"/>
<path d="M26.9559 11.2893C25.102 11.2893 23.5992 12.7921 23.5992 14.646V41.9033C23.5992 42.3484 23.6866 42.7727 23.8439 43.1614C24.2325 43.3187 24.6569 43.4061 25.102 43.4061H52.3593C54.2132 43.4061 55.716 41.9033 55.716 40.0494V12.792C55.716 12.347 55.6286 11.9226 55.4713 11.5339C55.0827 11.3766 54.6582 11.2893 54.2132 11.2893H26.9559Z" fill="url(#paint5_linear_939_1294)"/>
<path d="M25.102 43.406H52.3593C53.3075 43.406 54.1633 43.0121 54.7738 42.38L58.4122 38.7415L37.4958 17.8251C36.8802 17.0736 35.9452 16.594 34.898 16.594H21.7453V40.0493C21.7453 41.9032 23.2481 43.406 25.102 43.406V43.406Z" fill="url(#paint6_linear_939_1294)"/>
<path d="M1.02624 21.8201C0.393882 22.4306 0 23.2865 0 24.2347V51.492C0 53.3459 1.50282 54.8487 3.35671 54.8487H30.614C31.5622 54.8487 32.418 54.4548 33.0285 53.8226L37.2286 49.6225C37.8609 49.012 38.2547 48.1562 38.2547 47.2079V19.9507C38.2547 18.0968 36.7519 16.594 34.898 16.594H7.64071C6.69235 16.594 5.83659 16.9879 5.22612 17.6201L1.02624 21.8201Z" fill="url(#paint7_linear_939_1294)"/>
<path d="M35.5856 17.3392H8.32835C7.38 17.3392 6.52423 17.7331 5.91376 18.3654L1.71376 22.5654C1.08141 23.1758 0.687527 24.0316 0.687527 24.9799V52.2372C0.687527 52.9317 0.898468 53.5769 1.25964 54.1122C1.83423 54.5726 2.56294 54.8486 3.35659 54.8486H30.6139C31.5621 54.8486 32.4179 54.4548 33.0284 53.8225L37.2285 49.6224C37.8608 49.0119 38.2546 48.1562 38.2546 47.2078V19.9506C38.2546 19.2562 38.0436 18.6111 37.6825 18.0757C37.108 17.6152 36.3793 17.3392 35.5856 17.3392V17.3392Z" fill="url(#paint8_linear_939_1294)"/>
<path d="M30.614 54.8488H3.35671C1.50282 54.8488 0 53.3459 0 51.4921V24.2348C0 22.3809 1.50282 20.8781 3.35671 20.8781H30.614C32.4679 20.8781 33.9707 22.3809 33.9707 24.2348V51.4921C33.9707 53.3459 32.4679 54.8488 30.614 54.8488Z" fill="url(#paint9_linear_939_1294)"/>
<path d="M7.42035 52.5199C10.2323 52.5199 12.5119 50.2403 12.5119 47.4283C12.5119 44.6163 10.2323 42.3368 7.42035 42.3368C4.60838 42.3368 2.32882 44.6163 2.32882 47.4283C2.32882 50.2403 4.60838 52.5199 7.42035 52.5199Z" fill="url(#paint10_linear_939_1294)"/>
<path d="M7.42035 51.8208C9.84625 51.8208 11.8128 49.8543 11.8128 47.4284C11.8128 45.0025 9.84625 43.0359 7.42035 43.0359C4.99446 43.0359 3.02788 45.0025 3.02788 47.4284C3.02788 49.8543 4.99446 51.8208 7.42035 51.8208Z" fill="url(#paint11_linear_939_1294)"/>
<path d="M16.9853 42.9549C19.7973 42.9549 22.0768 40.6754 22.0768 37.8634C22.0768 35.0514 19.7973 32.7719 16.9853 32.7719C14.1733 32.7719 11.8938 35.0514 11.8938 37.8634C11.8938 40.6754 14.1733 42.9549 16.9853 42.9549Z" fill="url(#paint12_linear_939_1294)"/>
<path d="M16.9853 42.2559C19.4112 42.2559 21.3778 40.2893 21.3778 37.8634C21.3778 35.4375 19.4112 33.4709 16.9853 33.4709C14.5594 33.4709 12.5928 35.4375 12.5928 37.8634C12.5928 40.2893 14.5594 42.2559 16.9853 42.2559Z" fill="url(#paint13_linear_939_1294)"/>
<path d="M26.5502 33.39C29.3622 33.39 31.6418 31.1104 31.6418 28.2984C31.6418 25.4865 29.3622 23.2069 26.5502 23.2069C23.7383 23.2069 21.4587 25.4865 21.4587 28.2984C21.4587 31.1104 23.7383 33.39 26.5502 33.39Z" fill="url(#paint14_linear_939_1294)"/>
<path d="M26.5502 32.6909C28.9761 32.6909 30.9427 30.7244 30.9427 28.2985C30.9427 25.8726 28.9761 23.906 26.5502 23.906C24.1243 23.906 22.1578 25.8726 22.1578 28.2985C22.1578 30.7244 24.1243 32.6909 26.5502 32.6909Z" fill="url(#paint15_linear_939_1294)"/>
<path d="M5.21071 22.7321C3.35682 22.7321 1.854 24.2349 1.854 26.0888V53.3461C1.854 53.7911 1.94141 54.2155 2.09871 54.6042C2.48729 54.7615 2.91176 54.8489 3.35682 54.8489H30.6141C32.468 54.8489 33.9708 53.3461 33.9708 51.4922V24.2348C33.9708 23.7897 33.8834 23.3653 33.7261 22.9766C33.3375 22.8193 32.9131 22.7321 32.468 22.7321H5.21071Z" fill="url(#paint16_linear_939_1294)"/>
</g>
<defs>
<linearGradient id="paint0_linear_939_1294" x1="37.8494" y1="20.0461" x2="41.7362" y2="25.4877" gradientUnits="userSpaceOnUse">
<stop stop-color="#E4F2FF"/>
<stop offset="1" stop-color="#B2CBFF"/>
</linearGradient>
<linearGradient id="paint1_linear_939_1294" x1="39.4864" y1="9.8946" x2="38.3409" y2="0.124483" gradientUnits="userSpaceOnUse">
<stop stop-color="white" stop-opacity="0"/>
<stop offset="1" stop-color="white"/>
</linearGradient>
<linearGradient id="paint2_linear_939_1294" x1="31.3692" y1="19.0593" x2="61.0381" y2="48.7282" gradientUnits="userSpaceOnUse">
<stop stop-color="#E4F2FF"/>
<stop offset="1" stop-color="#B2CBFF"/>
</linearGradient>
<linearGradient id="paint3_linear_939_1294" x1="41.5956" y1="29.2857" x2="29.8395" y2="17.5296" gradientUnits="userSpaceOnUse">
<stop stop-color="#E4F2FF"/>
<stop offset="1" stop-color="#B2CBFF"/>
</linearGradient>
<linearGradient id="paint4_linear_939_1294" x1="36.4981" y1="24.1881" x2="42.6406" y2="30.3307" gradientUnits="userSpaceOnUse">
<stop stop-color="#FF819C"/>
<stop offset="0.2594" stop-color="#FF7E9A"/>
<stop offset="0.4757" stop-color="#FE7396"/>
<stop offset="0.6765" stop-color="#FC628E"/>
<stop offset="0.8668" stop-color="#FA4A83"/>
<stop offset="1" stop-color="#F83479"/>
</linearGradient>
<linearGradient id="paint5_linear_939_1294" x1="37.8235" y1="25.5135" x2="15.4818" y2="3.17178" gradientUnits="userSpaceOnUse">
<stop stop-color="white" stop-opacity="0"/>
<stop offset="1" stop-color="white"/>
</linearGradient>
<linearGradient id="paint6_linear_939_1294" x1="46.618" y1="31.6993" x2="25.2578" y2="29.5151" gradientUnits="userSpaceOnUse">
<stop stop-color="#3F3CED" stop-opacity="0"/>
<stop offset="0.2796" stop-color="#3C3DE4" stop-opacity="0.28"/>
<stop offset="0.7305" stop-color="#3541CC" stop-opacity="0.731"/>
<stop offset="1" stop-color="#2F43BB"/>
</linearGradient>
<linearGradient id="paint7_linear_939_1294" x1="16.1041" y1="31.4889" x2="19.9911" y2="36.9305" gradientUnits="userSpaceOnUse">
<stop stop-color="#E4F2FF"/>
<stop offset="1" stop-color="#B2CBFF"/>
</linearGradient>
<linearGradient id="paint8_linear_939_1294" x1="17.7411" y1="21.3374" x2="16.5956" y2="11.5672" gradientUnits="userSpaceOnUse">
<stop stop-color="white" stop-opacity="0"/>
<stop offset="1" stop-color="white"/>
</linearGradient>
<linearGradient id="paint9_linear_939_1294" x1="9.624" y1="30.5021" x2="39.2929" y2="60.171" gradientUnits="userSpaceOnUse">
<stop stop-color="#E4F2FF"/>
<stop offset="1" stop-color="#B2CBFF"/>
</linearGradient>
<linearGradient id="paint10_linear_939_1294" x1="10.2854" y1="50.2934" x2="-1.47071" y2="38.5371" gradientUnits="userSpaceOnUse">
<stop stop-color="#E4F2FF"/>
<stop offset="1" stop-color="#B2CBFF"/>
</linearGradient>
<linearGradient id="paint11_linear_939_1294" x1="5.18788" y1="45.1959" x2="11.3305" y2="51.3384" gradientUnits="userSpaceOnUse">
<stop stop-color="#FF819C"/>
<stop offset="0.2594" stop-color="#FF7E9A"/>
<stop offset="0.4757" stop-color="#FE7396"/>
<stop offset="0.6765" stop-color="#FC628E"/>
<stop offset="0.8668" stop-color="#FA4A83"/>
<stop offset="1" stop-color="#F83479"/>
</linearGradient>
<linearGradient id="paint12_linear_939_1294" x1="19.8505" y1="40.7284" x2="8.09423" y2="28.9722" gradientUnits="userSpaceOnUse">
<stop stop-color="#E4F2FF"/>
<stop offset="1" stop-color="#B2CBFF"/>
</linearGradient>
<linearGradient id="paint13_linear_939_1294" x1="14.7528" y1="35.6309" x2="20.8954" y2="41.7734" gradientUnits="userSpaceOnUse">
<stop stop-color="#FF819C"/>
<stop offset="0.2594" stop-color="#FF7E9A"/>
<stop offset="0.4757" stop-color="#FE7396"/>
<stop offset="0.6765" stop-color="#FC628E"/>
<stop offset="0.8668" stop-color="#FA4A83"/>
<stop offset="1" stop-color="#F83479"/>
</linearGradient>
<linearGradient id="paint14_linear_939_1294" x1="29.4154" y1="31.1635" x2="17.6592" y2="19.4073" gradientUnits="userSpaceOnUse">
<stop stop-color="#E4F2FF"/>
<stop offset="1" stop-color="#B2CBFF"/>
</linearGradient>
<linearGradient id="paint15_linear_939_1294" x1="24.3178" y1="26.066" x2="30.4604" y2="32.2085" gradientUnits="userSpaceOnUse">
<stop stop-color="#FF819C"/>
<stop offset="0.2594" stop-color="#FF7E9A"/>
<stop offset="0.4757" stop-color="#FE7396"/>
<stop offset="0.6765" stop-color="#FC628E"/>
<stop offset="0.8668" stop-color="#FA4A83"/>
<stop offset="1" stop-color="#F83479"/>
</linearGradient>
<linearGradient id="paint16_linear_939_1294" x1="16.0782" y1="36.9563" x2="-6.26353" y2="14.6145" gradientUnits="userSpaceOnUse">
<stop stop-color="white" stop-opacity="0"/>
<stop offset="1" stop-color="white"/>
</linearGradient>
<clipPath id="clip0_939_1294">
<rect width="60" height="60" fill="white"/>
</clipPath>
</defs>
</svg>
