<svg width="60" height="60" viewBox="0 0 60 60" fill="none" xmlns="http://www.w3.org/2000/svg">
<g clip-path="url(#clip0_939_1162)">
<path d="M30 60C46.5685 60 60 46.5685 60 30C60 13.4315 46.5685 0 30 0C13.4315 0 0 13.4315 0 30C0 46.5685 13.4315 60 30 60Z" fill="url(#paint0_linear_939_1162)"/>
<path d="M30 58.2657C45.6107 58.2657 58.2656 45.6107 58.2656 30C58.2656 14.3893 45.6107 1.73438 30 1.73438C14.3893 1.73438 1.73434 14.3893 1.73434 30C1.73434 45.6107 14.3893 58.2657 30 58.2657Z" fill="url(#paint1_linear_939_1162)"/>
<path d="M30 0C13.4314 0 0 13.4314 0 30C0 46.5686 13.4314 60 30 60C46.5686 60 60 46.5686 60 30C60 13.4314 46.5686 0 30 0ZM30 58.2656C14.3893 58.2656 1.73435 45.6107 1.73435 30C1.73435 14.3893 14.3893 1.73435 30 1.73435C45.6107 1.73435 58.2656 14.3893 58.2656 30C58.2656 45.6107 45.6107 58.2656 30 58.2656V58.2656Z" fill="url(#paint2_linear_939_1162)"/>
<path d="M30 55.9725C44.3442 55.9725 55.9725 44.3443 55.9725 30.0001C55.9725 15.6559 44.3442 4.02759 30 4.02759C15.6558 4.02759 4.02753 15.6559 4.02753 30.0001C4.02753 44.3443 15.6558 55.9725 30 55.9725Z" fill="url(#paint3_linear_939_1162)"/>
<path d="M30 54.1498C43.3375 54.1498 54.1498 43.3375 54.1498 30C54.1498 16.6624 43.3375 5.85022 30 5.85022C16.6624 5.85022 5.85022 16.6624 5.85022 30C5.85022 43.3375 16.6624 54.1498 30 54.1498Z" fill="url(#paint4_linear_939_1162)"/>
<path d="M30 54.1498C43.3375 54.1498 54.1498 43.3375 54.1498 30C54.1498 16.6624 43.3375 5.85022 30 5.85022C16.6624 5.85022 5.85022 16.6624 5.85022 30C5.85022 43.3375 16.6624 54.1498 30 54.1498Z" fill="url(#paint5_radial_939_1162)"/>
<path d="M54.0432 32.2653L30.6385 29.9927L53.9921 27.2423C53.7897 25.4612 53.3939 23.7388 52.8254 22.0968L30.4937 29.7243L50.3412 16.9773C49.3874 15.4906 48.2747 14.1159 47.0278 12.8759L30.3348 29.4827L42.7628 9.49634C41.2802 8.57151 39.6901 7.80316 38.0154 7.2141L30.0666 29.3739L32.554 5.98457C31.7146 5.89634 30.8627 5.85022 30 5.85022C29.0851 5.85022 28.1826 5.90293 27.2941 6.00198L29.7819 29.3947L21.6659 7.32716C20.0048 7.93798 18.4295 8.72587 16.9628 9.66834L29.532 29.5248L12.4711 13.3892C11.2679 14.6585 10.2013 16.0585 9.29436 17.5654L29.3347 29.7321L7.00341 22.6107C6.47577 24.254 6.11965 25.9738 5.95541 27.7494L29.2078 30.0073L6.00577 32.7398C6.20577 34.5103 6.59636 36.2229 7.158 37.8562L29.3526 30.2755L9.61471 42.9522C10.5588 44.4352 11.66 45.8082 12.8954 47.0476L29.5115 30.5173L17.1265 50.4345C18.6004 51.3649 20.1818 52.1403 21.8481 52.7378L29.7798 30.6261L27.2941 53.9981C28.1826 54.0972 29.0851 54.1499 30 54.1499C30.8627 54.1499 31.7147 54.1038 32.554 54.0155L30.0644 30.6054L38.1984 52.7215C39.8679 52.1191 41.4519 51.3379 42.9274 50.4009L30.3144 30.4752L47.4564 46.6875C48.6711 45.4172 49.7487 44.0145 50.6651 42.5032L30.5117 30.2679L52.9822 37.4336C53.5162 35.7815 53.8771 34.0518 54.0432 32.2653V32.2653Z" fill="url(#paint6_radial_939_1162)"/>
<path d="M30 43.7071C37.5702 43.7071 43.7071 37.5702 43.7071 30C43.7071 22.4298 37.5702 16.293 30 16.293C22.4298 16.293 16.2929 22.4298 16.2929 30C16.2929 37.5702 22.4298 43.7071 30 43.7071Z" fill="url(#paint7_linear_939_1162)"/>
<path d="M30 43.7071C37.5702 43.7071 43.7071 37.5702 43.7071 30C43.7071 22.4298 37.5702 16.293 30 16.293C22.4298 16.293 16.2929 22.4298 16.2929 30C16.2929 37.5702 22.4298 43.7071 30 43.7071Z" fill="url(#paint8_radial_939_1162)"/>
<path d="M55.8413 41.4666L37.442 23.0673C35.5848 21.0746 32.9387 19.8269 29.9999 19.8269C24.3815 19.8269 19.8268 24.3816 19.8268 30.0001C19.8268 32.9388 21.0745 35.5849 23.0672 37.4421L41.4665 55.8414C47.8586 53.0006 53.0006 47.8587 55.8413 41.4666V41.4666Z" fill="url(#paint9_linear_939_1162)"/>
<path d="M17.372 31.5863L23.1474 37.3617V31.5863H17.372Z" fill="url(#paint10_linear_939_1162)"/>
<path d="M31.93 17.849L35.976 21.895H30.1153V17.849H31.93Z" fill="url(#paint11_linear_939_1162)"/>
<path d="M30 40.173C35.6184 40.173 40.1731 35.6184 40.1731 30C40.1731 24.3815 35.6184 19.8269 30 19.8269C24.3816 19.8269 19.8269 24.3815 19.8269 30C19.8269 35.6184 24.3816 40.173 30 40.173Z" fill="url(#paint12_radial_939_1162)"/>
<path d="M30 39.0808C35.0152 39.0808 39.0808 35.0152 39.0808 30C39.0808 24.9848 35.0152 20.9192 30 20.9192C24.9848 20.9192 20.9192 24.9848 20.9192 30C20.9192 35.0152 24.9848 39.0808 30 39.0808Z" fill="url(#paint13_linear_939_1162)"/>
<path d="M34.5507 20.8998C35.2368 22.2692 35.6237 23.8145 35.6237 25.4505C35.6237 31.069 31.069 35.6237 25.4505 35.6237C23.8145 35.6237 22.2692 35.2368 20.8998 34.5507C22.57 37.8843 26.0174 40.1731 29.9999 40.1731C35.6184 40.1731 40.1731 35.6184 40.1731 30C40.1731 26.0175 37.8844 22.5701 34.5507 20.8998Z" fill="url(#paint14_linear_939_1162)"/>
<path d="M36.8787 25.6461C36.8787 28.2566 33.799 30.373 30 30.373C26.2011 30.373 23.1213 28.2566 23.1213 25.6461C23.1213 23.0355 26.201 20.9192 30 20.9192C33.7991 20.9192 36.8787 23.0355 36.8787 25.6461V25.6461Z" fill="url(#paint15_linear_939_1162)"/>
<path d="M40.1696 30.1381H19.8304C19.8381 30.7183 19.8948 31.2864 19.9959 31.8392L20 31.8431L28.1609 40.0042C28.7576 40.1132 29.3716 40.1731 29.9999 40.1731C35.5721 40.1731 40.0954 35.6925 40.1696 30.1381V30.1381Z" fill="url(#paint16_linear_939_1162)"/>
<path d="M39.9688 27.9631L32.0368 20.0311C31.3787 19.8974 30.6976 19.8269 30 19.8269V29.4816H40.16C40.134 28.9643 40.0692 28.4573 39.9688 27.9631Z" fill="url(#paint17_linear_939_1162)"/>
<path d="M28.8235 18.2744H31.1765V41.7254H28.8235V18.2744Z" fill="url(#paint18_linear_939_1162)"/>
<path d="M29.3526 18.2744H31.1764V41.7254H29.3526V18.2744Z" fill="url(#paint19_linear_939_1162)"/>
<path d="M31.1765 23.0965V18.2744H28.8235V20.7436L31.1765 23.0965Z" fill="url(#paint20_linear_939_1162)"/>
<path d="M31.1765 35.8808V31.0587H28.8235V33.5279L31.1765 35.8808Z" fill="url(#paint21_linear_939_1162)"/>
<path d="M30 21.0598C31.207 21.0598 32.1854 20.0813 32.1854 18.8744C32.1854 17.6674 31.207 16.689 30 16.689C28.793 16.689 27.8146 17.6674 27.8146 18.8744C27.8146 20.0813 28.793 21.0598 30 21.0598Z" fill="url(#paint22_radial_939_1162)"/>
<path d="M30 20.8252C31.0774 20.8252 31.9508 19.9518 31.9508 18.8744C31.9508 17.797 31.0774 16.9236 30 16.9236C28.9226 16.9236 28.0492 17.797 28.0492 18.8744C28.0492 19.9518 28.9226 20.8252 30 20.8252Z" fill="url(#paint23_linear_939_1162)"/>
<path d="M30.9777 16.9193C31.1251 17.2135 31.2081 17.5454 31.2081 17.897C31.2081 19.104 30.2297 20.0825 29.0226 20.0825C28.6712 20.0825 28.3392 19.9994 28.045 19.852C28.4038 20.5681 29.1444 21.0598 29.9999 21.0598C31.207 21.0598 32.1854 20.0813 32.1854 18.8744C32.1855 18.0188 31.6938 17.2783 30.9777 16.9193Z" fill="url(#paint24_linear_939_1162)"/>
<path d="M31.4778 17.9391C31.4778 18.4999 30.8161 18.9545 30 18.9545C29.1839 18.9545 28.5222 18.4998 28.5222 17.9391C28.5222 17.3783 29.1839 16.9236 30 16.9236C30.8161 16.9236 31.4778 17.3782 31.4778 17.9391Z" fill="url(#paint25_linear_939_1162)"/>
<path d="M30 43.311C31.207 43.311 32.1854 42.3326 32.1854 41.1256C32.1854 39.9186 31.207 38.9402 30 38.9402C28.793 38.9402 27.8146 39.9186 27.8146 41.1256C27.8146 42.3326 28.793 43.311 30 43.311Z" fill="url(#paint26_radial_939_1162)"/>
<path d="M30 43.0765C31.0774 43.0765 31.9508 42.203 31.9508 41.1256C31.9508 40.0482 31.0774 39.1748 30 39.1748C28.9226 39.1748 28.0492 40.0482 28.0492 41.1256C28.0492 42.203 28.9226 43.0765 30 43.0765Z" fill="url(#paint27_linear_939_1162)"/>
<path d="M30.9777 39.1707C31.1251 39.4649 31.2081 39.7969 31.2081 40.1483C31.2081 40.8938 30.8348 41.5523 30.2648 41.9467C29.9121 42.1908 29.484 42.3337 29.0226 42.3337C28.6712 42.3337 28.3392 42.2507 28.045 42.1032C28.4038 42.8194 29.1444 43.311 29.9999 43.311C31.207 43.311 32.1854 42.3325 32.1854 41.1256C32.1855 40.2701 31.6938 39.5295 30.9777 39.1707V39.1707Z" fill="url(#paint28_linear_939_1162)"/>
<path d="M31.4778 40.1903C31.4778 40.7512 30.8161 41.2057 30 41.2057C29.1839 41.2057 28.5222 40.751 28.5222 40.1903C28.5222 39.6295 29.1839 39.1748 30 39.1748C30.8161 39.1748 31.4778 39.6295 31.4778 40.1903V40.1903Z" fill="url(#paint29_linear_939_1162)"/>
<path d="M41.7255 31.1764V28.8235H18.2745V31.1764H41.7255Z" fill="url(#paint30_linear_939_1162)"/>
<path d="M41.7255 31.1764V29.3525H18.2745V31.1764H41.7255Z" fill="url(#paint31_linear_939_1162)"/>
<path d="M18.2745 31.1764H23.06L20.7311 28.8476C20.7311 28.8476 20.7256 28.8393 20.7155 28.8235H18.2744V31.1764H18.2745Z" fill="url(#paint32_linear_939_1162)"/>
<path d="M31.0854 31.1764H35.8709L33.5421 28.8476C33.5421 28.8476 33.5367 28.8393 33.5266 28.8235H31.0854V31.1764Z" fill="url(#paint33_linear_939_1162)"/>
<path d="M41.1257 32.1854C42.3326 32.1854 43.3111 31.207 43.3111 30C43.3111 28.793 42.3326 27.8146 41.1257 27.8146C39.9187 27.8146 38.9402 28.793 38.9402 30C38.9402 31.207 39.9187 32.1854 41.1257 32.1854Z" fill="url(#paint34_radial_939_1162)"/>
<path d="M41.1257 31.9508C42.2031 31.9508 43.0765 31.0774 43.0765 30C43.0765 28.9226 42.2031 28.0492 41.1257 28.0492C40.0482 28.0492 39.1748 28.9226 39.1748 30C39.1748 31.0774 40.0482 31.9508 41.1257 31.9508Z" fill="url(#paint35_linear_939_1162)"/>
<path d="M42.1033 28.045C42.2507 28.3393 42.3338 28.6712 42.3338 29.0227C42.3338 30.2296 41.3553 31.2082 40.1484 31.2082C39.797 31.2082 39.465 31.1252 39.1707 30.9778C39.5295 31.6939 40.2701 32.1855 41.1257 32.1855C42.3327 32.1855 43.3112 31.207 43.3112 30.0001C43.3112 29.1445 42.8194 28.4039 42.1033 28.045V28.045Z" fill="url(#paint36_linear_939_1162)"/>
<path d="M42.6034 29.0647C42.6034 29.6255 41.9418 30.0801 41.1257 30.0801C40.3095 30.0801 39.6479 29.6254 39.6479 29.0647C39.6479 28.5039 40.3095 28.0492 41.1257 28.0492C41.9418 28.0492 42.6034 28.5039 42.6034 29.0647Z" fill="url(#paint37_linear_939_1162)"/>
<path d="M18.8743 32.1854C20.0813 32.1854 21.0598 31.207 21.0598 30C21.0598 28.793 20.0813 27.8146 18.8743 27.8146C17.6674 27.8146 16.6889 28.793 16.6889 30C16.6889 31.207 17.6674 32.1854 18.8743 32.1854Z" fill="url(#paint38_radial_939_1162)"/>
<path d="M18.8743 31.9508C19.9518 31.9508 20.8252 31.0774 20.8252 30C20.8252 28.9226 19.9518 28.0492 18.8743 28.0492C17.7969 28.0492 16.9235 28.9226 16.9235 30C16.9235 31.0774 17.7969 31.9508 18.8743 31.9508Z" fill="url(#paint39_linear_939_1162)"/>
<path d="M19.852 28.045C19.9994 28.3393 20.0825 28.6712 20.0825 29.0227C20.0825 29.7682 19.7092 30.4267 19.1392 30.821C18.7865 31.0652 18.3583 31.2081 17.8969 31.2081C17.5455 31.2081 17.2135 31.125 16.9193 30.9776C17.2781 31.6938 18.0187 32.1854 18.8742 32.1854C20.0812 32.1854 21.0598 31.2069 21.0598 30C21.0598 29.1445 20.5681 28.4039 19.852 28.045V28.045Z" fill="url(#paint40_linear_939_1162)"/>
<path d="M20.3521 29.0647C20.3521 29.6255 19.6905 30.0801 18.8743 30.0801C18.0582 30.0801 17.3966 29.6254 17.3966 29.0647C17.3966 28.5039 18.0582 28.0492 18.8743 28.0492C19.6905 28.0492 20.3521 28.5039 20.3521 29.0647Z" fill="url(#paint41_linear_939_1162)"/>
<path d="M30 33.7648C32.0792 33.7648 33.7647 32.0792 33.7647 30.0001C33.7647 27.9209 32.0792 26.2354 30 26.2354C27.9208 26.2354 26.2353 27.9209 26.2353 30.0001C26.2353 32.0792 27.9208 33.7648 30 33.7648Z" fill="url(#paint42_radial_939_1162)"/>
<path d="M30 33.3605C31.8559 33.3605 33.3605 31.8559 33.3605 30C33.3605 28.1441 31.8559 26.6395 30 26.6395C28.1441 26.6395 26.6395 28.1441 26.6395 30C26.6395 31.8559 28.1441 33.3605 30 33.3605Z" fill="url(#paint43_linear_939_1162)"/>
<path d="M31.6841 26.6323C31.938 27.1391 32.0812 27.711 32.0812 28.3164C32.0812 30.3956 30.3957 32.0811 28.3165 32.0811C27.7111 32.0811 27.1392 31.938 26.6325 31.6841C27.2505 32.9177 28.5262 33.7647 30 33.7647C32.0792 33.7647 33.7647 32.0791 33.7647 30C33.7647 28.5262 32.9178 27.2504 31.6841 26.6323Z" fill="url(#paint44_linear_939_1162)"/>
<path d="M32.5455 28.3888C32.5455 29.3549 31.4058 30.1381 29.9999 30.1381C28.594 30.1381 27.4543 29.3549 27.4543 28.3888C27.4543 27.4227 28.594 26.6395 29.9999 26.6395C31.4059 26.6395 32.5455 27.4227 32.5455 28.3888V28.3888Z" fill="url(#paint45_linear_939_1162)"/>
<path d="M49.1177 16.9704L44.548 12.4008C44.0867 11.9058 43.4295 11.5959 42.6997 11.5959C41.3042 11.5959 40.1731 12.7271 40.1731 14.1225C40.1731 14.8524 40.4829 15.5096 40.9778 15.9708L45.5474 20.5404C47.1351 19.8351 48.4121 18.5581 49.1177 16.9704V16.9704Z" fill="url(#paint46_linear_939_1162)"/>
<path d="M45.2262 14.1227C45.2262 15.5181 44.0951 16.6492 42.6997 16.6492C41.3042 16.6492 40.1731 15.5181 40.1731 14.1227C40.1731 12.7272 41.3042 11.5961 42.6997 11.5961C44.0951 11.5961 45.2262 12.7272 45.2262 14.1227Z" fill="url(#paint47_linear_939_1162)"/>
<path d="M44.955 14.1227C44.955 15.3683 43.9453 16.378 42.6998 16.378C41.4542 16.378 40.4445 15.3683 40.4445 14.1227C40.4445 12.8772 41.4542 11.8674 42.6998 11.8674C43.9453 11.8674 44.955 12.8772 44.955 14.1227V14.1227Z" fill="url(#paint48_linear_939_1162)"/>
<path d="M43.8299 11.8625C44.0002 12.2027 44.0963 12.5864 44.0963 12.9928C44.0963 14.3882 42.9652 15.5194 41.5697 15.5194C41.1634 15.5194 40.7796 15.4233 40.4395 15.2529C40.8543 16.0808 41.7106 16.6493 42.6996 16.6493C44.095 16.6493 45.2262 15.5181 45.2262 14.1227C45.2262 13.1336 44.6579 12.2774 43.8299 11.8625V11.8625Z" fill="url(#paint49_linear_939_1162)"/>
<path d="M44.4081 13.0414C44.4081 13.6898 43.6432 14.2154 42.6997 14.2154C41.7561 14.2154 40.9913 13.6898 40.9913 13.0414C40.9913 12.3931 41.7561 11.8674 42.6997 11.8674C43.6432 11.8674 44.4081 12.393 44.4081 13.0414Z" fill="url(#paint50_linear_939_1162)"/>
<path d="M31.9267 52.2712L27.3571 47.7016C26.8958 47.2066 26.2386 46.8967 25.5087 46.8967C24.1133 46.8967 22.9821 48.0279 22.9821 49.4233C22.9821 50.1532 23.292 50.8104 23.7869 51.2717L28.3566 55.8413C29.9441 55.1358 31.2212 53.8587 31.9267 52.2712Z" fill="url(#paint51_linear_939_1162)"/>
<path d="M25.5087 51.9499C26.9041 51.9499 28.0353 50.8187 28.0353 49.4233C28.0353 48.0279 26.9041 46.8967 25.5087 46.8967C24.1133 46.8967 22.9821 48.0279 22.9821 49.4233C22.9821 50.8187 24.1133 51.9499 25.5087 51.9499Z" fill="url(#paint52_linear_939_1162)"/>
<path d="M25.5087 51.6786C26.7543 51.6786 27.764 50.6688 27.764 49.4233C27.764 48.1777 26.7543 47.168 25.5087 47.168C24.2631 47.168 23.2534 48.1777 23.2534 49.4233C23.2534 50.6688 24.2631 51.6786 25.5087 51.6786Z" fill="url(#paint53_linear_939_1162)"/>
<path d="M26.6389 47.1632C26.8093 47.5033 26.9054 47.8871 26.9054 48.2934C26.9054 49.6889 25.7742 50.82 24.3788 50.82C23.9725 50.82 23.5887 50.7239 23.2486 50.5536C23.6634 51.3814 24.5197 51.9499 25.5087 51.9499C26.9041 51.9499 28.0353 50.8187 28.0353 49.4233C28.0353 48.4343 27.4669 47.578 26.6389 47.1632V47.1632Z" fill="url(#paint54_linear_939_1162)"/>
<path d="M27.2172 48.342C27.2172 48.9903 26.4522 49.516 25.5088 49.516C24.5653 49.516 23.8005 48.9903 23.8005 48.342C23.8005 47.6936 24.5653 47.168 25.5088 47.168C26.4522 47.168 27.2172 47.6936 27.2172 48.342Z" fill="url(#paint55_linear_939_1162)"/>
<path d="M30 58.2657C45.6107 58.2657 58.2656 45.6107 58.2656 30C58.2656 14.3893 45.6107 1.73438 30 1.73438C14.3893 1.73438 1.73434 14.3893 1.73434 30C1.73434 45.6107 14.3893 58.2657 30 58.2657Z" fill="url(#paint56_linear_939_1162)"/>
</g>
<defs>
<linearGradient id="paint0_linear_939_1162" x1="7.76471" y1="7.76471" x2="51.8899" y2="51.8899" gradientUnits="userSpaceOnUse">
<stop stop-color="#FFD945"/>
<stop offset="0.3043" stop-color="#FFCD3E"/>
<stop offset="0.8558" stop-color="#FFAD2B"/>
<stop offset="1" stop-color="#FFA325"/>
</linearGradient>
<linearGradient id="paint1_linear_939_1162" x1="31.4525" y1="31.4525" x2="8.06658" y2="8.06661" gradientUnits="userSpaceOnUse">
<stop stop-color="#FFD945" stop-opacity="0"/>
<stop offset="1" stop-color="#FBED21"/>
</linearGradient>
<linearGradient id="paint2_linear_939_1162" x1="30.4992" y1="30.4732" x2="67.7327" y2="65.7655" gradientUnits="userSpaceOnUse">
<stop stop-color="#E87264" stop-opacity="0"/>
<stop offset="1" stop-color="#FF7044"/>
</linearGradient>
<linearGradient id="paint3_linear_939_1162" x1="46.8235" y1="46.8236" x2="10.3199" y2="10.3199" gradientUnits="userSpaceOnUse">
<stop stop-color="#8A7889"/>
<stop offset="1" stop-color="#6E566E"/>
</linearGradient>
<linearGradient id="paint4_linear_939_1162" x1="14.357" y1="14.357" x2="48.299" y2="48.299" gradientUnits="userSpaceOnUse">
<stop stop-color="#8A7889"/>
<stop offset="1" stop-color="#6E566E"/>
</linearGradient>
<radialGradient id="paint5_radial_939_1162" cx="0" cy="0" r="1" gradientUnits="userSpaceOnUse" gradientTransform="translate(30 30) rotate(180) scale(25.7657)">
<stop stop-color="#6E566E" stop-opacity="0"/>
<stop offset="0.5262" stop-color="#6D546D" stop-opacity="0.526"/>
<stop offset="0.7797" stop-color="#684C68" stop-opacity="0.78"/>
<stop offset="0.9745" stop-color="#5F3F60" stop-opacity="0.975"/>
<stop offset="1" stop-color="#5E3D5F"/>
</radialGradient>
<radialGradient id="paint6_radial_939_1162" cx="0" cy="0" r="1" gradientUnits="userSpaceOnUse" gradientTransform="translate(29.9993 30) scale(24.0969 24.0969)">
<stop stop-color="#FF7044"/>
<stop offset="0.2185" stop-color="#FF6B41"/>
<stop offset="0.4693" stop-color="#FD5D38"/>
<stop offset="0.7347" stop-color="#FB4728"/>
<stop offset="1" stop-color="#F82814"/>
</radialGradient>
<linearGradient id="paint7_linear_939_1162" x1="24.6587" y1="24.6587" x2="45.0449" y2="45.045" gradientUnits="userSpaceOnUse">
<stop stop-color="#4AB272"/>
<stop offset="1" stop-color="#077565"/>
</linearGradient>
<radialGradient id="paint8_radial_939_1162" cx="0" cy="0" r="1" gradientUnits="userSpaceOnUse" gradientTransform="translate(30.8824 31.4117) scale(16.7853)">
<stop stop-color="#005A01" stop-opacity="0"/>
<stop offset="0.8587" stop-color="#005A01" stop-opacity="0.859"/>
<stop offset="1" stop-color="#005A01"/>
</radialGradient>
<linearGradient id="paint9_linear_939_1162" x1="39.7796" y1="39.7489" x2="26.3679" y2="27.043" gradientUnits="userSpaceOnUse">
<stop stop-color="#005A01" stop-opacity="0"/>
<stop offset="1" stop-color="#005A01"/>
</linearGradient>
<linearGradient id="paint10_linear_939_1162" x1="22.8651" y1="36.0137" x2="18.3651" y2="28.3667" gradientUnits="userSpaceOnUse">
<stop stop-color="#005A01" stop-opacity="0"/>
<stop offset="1" stop-color="#005A01"/>
</linearGradient>
<linearGradient id="paint11_linear_939_1162" x1="33.2587" y1="22.257" x2="29.5824" y2="16.0097" gradientUnits="userSpaceOnUse">
<stop stop-color="#005A01" stop-opacity="0"/>
<stop offset="1" stop-color="#005A01"/>
</linearGradient>
<radialGradient id="paint12_radial_939_1162" cx="0" cy="0" r="1" gradientUnits="userSpaceOnUse" gradientTransform="translate(27.0701 26.0933) scale(12.6756)">
<stop stop-color="#FFD945"/>
<stop offset="0.4169" stop-color="#FFD744"/>
<stop offset="0.6278" stop-color="#FFCF3F"/>
<stop offset="0.7926" stop-color="#FFC237"/>
<stop offset="0.9326" stop-color="#FFAF2C"/>
<stop offset="1" stop-color="#FFA325"/>
</radialGradient>
<linearGradient id="paint13_linear_939_1162" x1="31.7672" y1="31.7673" x2="19.5977" y2="19.5977" gradientUnits="userSpaceOnUse">
<stop stop-color="#FFD945" stop-opacity="0"/>
<stop offset="1" stop-color="#FBED21"/>
</linearGradient>
<linearGradient id="paint14_linear_939_1162" x1="34.3215" y1="30.3821" x2="53.2723" y2="14.3418" gradientUnits="userSpaceOnUse">
<stop stop-color="#E87264" stop-opacity="0"/>
<stop offset="1" stop-color="#FF7044"/>
</linearGradient>
<linearGradient id="paint15_linear_939_1162" x1="30" y1="26.8714" x2="30" y2="17.2785" gradientUnits="userSpaceOnUse">
<stop stop-color="white" stop-opacity="0"/>
<stop offset="1" stop-color="white"/>
</linearGradient>
<linearGradient id="paint16_linear_939_1162" x1="31.1845" y1="37.3188" x2="29.3413" y2="26.7305" gradientUnits="userSpaceOnUse">
<stop stop-color="#E87264" stop-opacity="0"/>
<stop offset="1" stop-color="#FF7044"/>
</linearGradient>
<linearGradient id="paint17_linear_939_1162" x1="35.1565" y1="25.4518" x2="28.882" y2="24.393" gradientUnits="userSpaceOnUse">
<stop stop-color="#E87264" stop-opacity="0"/>
<stop offset="1" stop-color="#FF7044"/>
</linearGradient>
<linearGradient id="paint18_linear_939_1162" x1="28.9412" y1="29.9999" x2="30.7603" y2="29.9999" gradientUnits="userSpaceOnUse">
<stop stop-color="#FFD945"/>
<stop offset="0.4169" stop-color="#FFD744"/>
<stop offset="0.6278" stop-color="#FFCF3F"/>
<stop offset="0.7926" stop-color="#FFC237"/>
<stop offset="0.9326" stop-color="#FFAF2C"/>
<stop offset="1" stop-color="#FFA325"/>
</linearGradient>
<linearGradient id="paint19_linear_939_1162" x1="30.8815" y1="30.079" x2="28.0208" y2="29.7123" gradientUnits="userSpaceOnUse">
<stop stop-color="#FFD945" stop-opacity="0"/>
<stop offset="1" stop-color="#FBED21"/>
</linearGradient>
<linearGradient id="paint20_linear_939_1162" x1="32.0487" y1="22.3028" x2="29.8919" y2="19.3616" gradientUnits="userSpaceOnUse">
<stop stop-color="#E87264" stop-opacity="0"/>
<stop offset="1" stop-color="#FF7044"/>
</linearGradient>
<linearGradient id="paint21_linear_939_1162" x1="32.0487" y1="35.0871" x2="29.8919" y2="32.1459" gradientUnits="userSpaceOnUse">
<stop stop-color="#E87264" stop-opacity="0"/>
<stop offset="1" stop-color="#FF7044"/>
</linearGradient>
<radialGradient id="paint22_radial_939_1162" cx="0" cy="0" r="1" gradientUnits="userSpaceOnUse" gradientTransform="translate(29.3706 18.0351) scale(2.72306)">
<stop stop-color="#FFD945"/>
<stop offset="0.4169" stop-color="#FFD744"/>
<stop offset="0.6278" stop-color="#FFCF3F"/>
<stop offset="0.7926" stop-color="#FFC237"/>
<stop offset="0.9326" stop-color="#FFAF2C"/>
<stop offset="1" stop-color="#FFA325"/>
</radialGradient>
<linearGradient id="paint23_linear_939_1162" x1="30.3796" y1="19.2541" x2="27.7653" y2="16.6397" gradientUnits="userSpaceOnUse">
<stop stop-color="#FFD945" stop-opacity="0"/>
<stop offset="1" stop-color="#FBED21"/>
</linearGradient>
<linearGradient id="paint24_linear_939_1162" x1="30.9284" y1="18.9565" x2="34.9995" y2="15.5105" gradientUnits="userSpaceOnUse">
<stop stop-color="#E87264" stop-opacity="0"/>
<stop offset="1" stop-color="#FF7044"/>
</linearGradient>
<linearGradient id="paint25_linear_939_1162" x1="30" y1="18.2023" x2="30" y2="16.1415" gradientUnits="userSpaceOnUse">
<stop stop-color="white" stop-opacity="0"/>
<stop offset="1" stop-color="white"/>
</linearGradient>
<radialGradient id="paint26_radial_939_1162" cx="0" cy="0" r="1" gradientUnits="userSpaceOnUse" gradientTransform="translate(29.3706 40.2863) scale(2.72306)">
<stop stop-color="#FFD945"/>
<stop offset="0.4169" stop-color="#FFD744"/>
<stop offset="0.6278" stop-color="#FFCF3F"/>
<stop offset="0.7926" stop-color="#FFC237"/>
<stop offset="0.9326" stop-color="#FFAF2C"/>
<stop offset="1" stop-color="#FFA325"/>
</radialGradient>
<linearGradient id="paint27_linear_939_1162" x1="30.3796" y1="41.5053" x2="27.7653" y2="38.8909" gradientUnits="userSpaceOnUse">
<stop stop-color="#FFD945" stop-opacity="0"/>
<stop offset="1" stop-color="#FBED21"/>
</linearGradient>
<linearGradient id="paint28_linear_939_1162" x1="30.9284" y1="41.2077" x2="34.9995" y2="37.7618" gradientUnits="userSpaceOnUse">
<stop stop-color="#E87264" stop-opacity="0"/>
<stop offset="1" stop-color="#FF7044"/>
</linearGradient>
<linearGradient id="paint29_linear_939_1162" x1="30" y1="40.4535" x2="30" y2="38.3927" gradientUnits="userSpaceOnUse">
<stop stop-color="white" stop-opacity="0"/>
<stop offset="1" stop-color="white"/>
</linearGradient>
<linearGradient id="paint30_linear_939_1162" x1="30" y1="28.9411" x2="30" y2="30.7603" gradientUnits="userSpaceOnUse">
<stop stop-color="#FFD945"/>
<stop offset="0.4169" stop-color="#FFD744"/>
<stop offset="0.6278" stop-color="#FFCF3F"/>
<stop offset="0.7926" stop-color="#FFC237"/>
<stop offset="0.9326" stop-color="#FFAF2C"/>
<stop offset="1" stop-color="#FFA325"/>
</linearGradient>
<linearGradient id="paint31_linear_939_1162" x1="30.0791" y1="30.8815" x2="29.7124" y2="28.0208" gradientUnits="userSpaceOnUse">
<stop stop-color="#FFD945" stop-opacity="0"/>
<stop offset="1" stop-color="#FBED21"/>
</linearGradient>
<linearGradient id="paint32_linear_939_1162" x1="22.2276" y1="30.8744" x2="20.2668" y2="30.2469" gradientUnits="userSpaceOnUse">
<stop stop-color="#E87264" stop-opacity="0"/>
<stop offset="1" stop-color="#FF7044"/>
</linearGradient>
<linearGradient id="paint33_linear_939_1162" x1="35.0386" y1="30.8744" x2="33.0778" y2="30.2469" gradientUnits="userSpaceOnUse">
<stop stop-color="#E87264" stop-opacity="0"/>
<stop offset="1" stop-color="#FF7044"/>
</linearGradient>
<radialGradient id="paint34_radial_939_1162" cx="0" cy="0" r="1" gradientUnits="userSpaceOnUse" gradientTransform="translate(40.4962 29.1607) scale(2.72306)">
<stop stop-color="#FFD945"/>
<stop offset="0.4169" stop-color="#FFD744"/>
<stop offset="0.6278" stop-color="#FFCF3F"/>
<stop offset="0.7926" stop-color="#FFC237"/>
<stop offset="0.9326" stop-color="#FFAF2C"/>
<stop offset="1" stop-color="#FFA325"/>
</radialGradient>
<linearGradient id="paint35_linear_939_1162" x1="41.5053" y1="30.3797" x2="38.891" y2="27.7653" gradientUnits="userSpaceOnUse">
<stop stop-color="#FFD945" stop-opacity="0"/>
<stop offset="1" stop-color="#FBED21"/>
</linearGradient>
<linearGradient id="paint36_linear_939_1162" x1="42.054" y1="30.0821" x2="46.1252" y2="26.6361" gradientUnits="userSpaceOnUse">
<stop stop-color="#E87264" stop-opacity="0"/>
<stop offset="1" stop-color="#FF7044"/>
</linearGradient>
<linearGradient id="paint37_linear_939_1162" x1="41.1257" y1="29.3279" x2="41.1257" y2="27.2671" gradientUnits="userSpaceOnUse">
<stop stop-color="white" stop-opacity="0"/>
<stop offset="1" stop-color="white"/>
</linearGradient>
<radialGradient id="paint38_radial_939_1162" cx="0" cy="0" r="1" gradientUnits="userSpaceOnUse" gradientTransform="translate(18.2449 29.1607) scale(2.72306)">
<stop stop-color="#FFD945"/>
<stop offset="0.4169" stop-color="#FFD744"/>
<stop offset="0.6278" stop-color="#FFCF3F"/>
<stop offset="0.7926" stop-color="#FFC237"/>
<stop offset="0.9326" stop-color="#FFAF2C"/>
<stop offset="1" stop-color="#FFA325"/>
</radialGradient>
<linearGradient id="paint39_linear_939_1162" x1="19.254" y1="30.3797" x2="16.6396" y2="27.7653" gradientUnits="userSpaceOnUse">
<stop stop-color="#FFD945" stop-opacity="0"/>
<stop offset="1" stop-color="#FBED21"/>
</linearGradient>
<linearGradient id="paint40_linear_939_1162" x1="19.8027" y1="30.0821" x2="23.8739" y2="26.6362" gradientUnits="userSpaceOnUse">
<stop stop-color="#E87264" stop-opacity="0"/>
<stop offset="1" stop-color="#FF7044"/>
</linearGradient>
<linearGradient id="paint41_linear_939_1162" x1="18.8743" y1="29.3279" x2="18.8743" y2="27.2671" gradientUnits="userSpaceOnUse">
<stop stop-color="white" stop-opacity="0"/>
<stop offset="1" stop-color="white"/>
</linearGradient>
<radialGradient id="paint42_radial_939_1162" cx="0" cy="0" r="1" gradientUnits="userSpaceOnUse" gradientTransform="translate(28.9158 28.5543) scale(4.69082)">
<stop stop-color="#FFD945"/>
<stop offset="0.4169" stop-color="#FFD744"/>
<stop offset="0.6278" stop-color="#FFCF3F"/>
<stop offset="0.7926" stop-color="#FFC237"/>
<stop offset="0.9326" stop-color="#FFAF2C"/>
<stop offset="1" stop-color="#FFA325"/>
</radialGradient>
<linearGradient id="paint43_linear_939_1162" x1="30.654" y1="30.654" x2="26.1505" y2="26.1505" gradientUnits="userSpaceOnUse">
<stop stop-color="#FFD945" stop-opacity="0"/>
<stop offset="1" stop-color="#FBED21"/>
</linearGradient>
<linearGradient id="paint44_linear_939_1162" x1="31.5993" y1="30.1414" x2="38.6122" y2="24.2054" gradientUnits="userSpaceOnUse">
<stop stop-color="#E87264" stop-opacity="0"/>
<stop offset="1" stop-color="#FF7044"/>
</linearGradient>
<linearGradient id="paint45_linear_939_1162" x1="30" y1="28.8422" x2="30" y2="25.2922" gradientUnits="userSpaceOnUse">
<stop stop-color="white" stop-opacity="0"/>
<stop offset="1" stop-color="white"/>
</linearGradient>
<linearGradient id="paint46_linear_939_1162" x1="46.5238" y1="17.9468" x2="40.7578" y2="12.1808" gradientUnits="userSpaceOnUse">
<stop stop-color="#6E566E" stop-opacity="0"/>
<stop offset="1" stop-color="#6E566E"/>
</linearGradient>
<linearGradient id="paint47_linear_939_1162" x1="40.1731" y1="14.1227" x2="45.2264" y2="14.1227" gradientUnits="userSpaceOnUse">
<stop stop-color="#E4F2FF"/>
<stop offset="1" stop-color="#B2CBFF"/>
</linearGradient>
<linearGradient id="paint48_linear_939_1162" x1="43.1386" y1="14.5617" x2="40.1161" y2="11.5392" gradientUnits="userSpaceOnUse">
<stop stop-color="white" stop-opacity="0"/>
<stop offset="1" stop-color="white"/>
</linearGradient>
<linearGradient id="paint49_linear_939_1162" x1="43.773" y1="14.2176" x2="48.4796" y2="10.2337" gradientUnits="userSpaceOnUse">
<stop stop-color="#3F3CED" stop-opacity="0"/>
<stop offset="0.2796" stop-color="#3C3DE4" stop-opacity="0.28"/>
<stop offset="0.7305" stop-color="#3541CC" stop-opacity="0.731"/>
<stop offset="1" stop-color="#2F43BB"/>
</linearGradient>
<linearGradient id="paint50_linear_939_1162" x1="42.6997" y1="13.7378" x2="42.6997" y2="11.3553" gradientUnits="userSpaceOnUse">
<stop stop-color="white" stop-opacity="0"/>
<stop offset="1" stop-color="white"/>
</linearGradient>
<linearGradient id="paint51_linear_939_1162" x1="29.3328" y1="53.2474" x2="23.5668" y2="47.4814" gradientUnits="userSpaceOnUse">
<stop stop-color="#6E566E" stop-opacity="0"/>
<stop offset="1" stop-color="#6E566E"/>
</linearGradient>
<linearGradient id="paint52_linear_939_1162" x1="22.9821" y1="49.4233" x2="28.0353" y2="49.4233" gradientUnits="userSpaceOnUse">
<stop stop-color="#E4F2FF"/>
<stop offset="1" stop-color="#B2CBFF"/>
</linearGradient>
<linearGradient id="paint53_linear_939_1162" x1="25.9477" y1="49.8622" x2="22.9252" y2="46.8397" gradientUnits="userSpaceOnUse">
<stop stop-color="white" stop-opacity="0"/>
<stop offset="1" stop-color="white"/>
</linearGradient>
<linearGradient id="paint54_linear_939_1162" x1="26.5821" y1="49.5183" x2="31.2887" y2="45.5345" gradientUnits="userSpaceOnUse">
<stop stop-color="#3F3CED" stop-opacity="0"/>
<stop offset="0.2796" stop-color="#3C3DE4" stop-opacity="0.28"/>
<stop offset="0.7305" stop-color="#3541CC" stop-opacity="0.731"/>
<stop offset="1" stop-color="#2F43BB"/>
</linearGradient>
<linearGradient id="paint55_linear_939_1162" x1="25.5087" y1="49.0384" x2="25.5087" y2="46.656" gradientUnits="userSpaceOnUse">
<stop stop-color="white" stop-opacity="0"/>
<stop offset="1" stop-color="white"/>
</linearGradient>
<linearGradient id="paint56_linear_939_1162" x1="32.6574" y1="35.1387" x2="-1.92895" y2="-31.7401" gradientUnits="userSpaceOnUse">
<stop stop-color="white" stop-opacity="0"/>
<stop offset="1" stop-color="white"/>
</linearGradient>
<clipPath id="clip0_939_1162">
<rect width="60" height="60" fill="white"/>
</clipPath>
</defs>
</svg>
