<?xml version="1.0" encoding="utf-8"?>
<!-- Generator: Adobe Illustrator 21.0.0, SVG Export Plug-In . SVG Version: 6.00 Build 0)  -->
<svg version="1.1" id="Layer_1" xmlns="http://www.w3.org/2000/svg" xmlns:xlink="http://www.w3.org/1999/xlink" x="0px" y="0px"
	 viewBox="0 0 60 60" style="enable-background:new 0 0 60 60;" xml:space="preserve">
<style type="text/css">
	.st0{fill:#334A5E;}
	.st1{fill:#FFD15C;}
	.st2{fill:#F8B64C;}
	.st3{fill:#40596B;}
</style>
<g>
	<path class="st0" d="M10.1,60h39.7v-3.8c0-0.1-0.1-0.1-0.1-0.1H10.3c-0.1,0-0.1,0.1-0.1,0.1V60z"/>
	<path class="st1" d="M11.5,0v10.7c0,11.2,5.9,21.4,15.2,26.6h6.7c9.3-5.2,15.2-15.4,15.2-26.6V0H11.5z"/>
	<g>
		<path class="st2" d="M13.9,22.9c-5.2-3.6-8.9-9.3-9.5-16h7V2.9H0.2v2c0,11.3,7.3,20.9,17.4,24.4C16.1,27.4,14.9,25.2,13.9,22.9z"
			/>
		<path class="st2" d="M48.5,2.9V7h7c-0.6,6.6-4.3,12.4-9.5,16c-1,2.3-2.2,4.4-3.7,6.4c10.1-3.5,17.4-13.1,17.4-24.4v-2H48.5z"/>
	</g>
	<rect x="26.7" y="37.3" class="st2" width="6.7" height="2.4"/>
	<path class="st1" d="M22.7,45.5h14.6v-5.6c0-0.1-0.1-0.1-0.2-0.1H22.9c-0.1,0-0.1,0.1-0.1,0.1V45.5z"/>
	<path class="st3" d="M14.8,56h30.4V45.7c0-0.1-0.1-0.1-0.2-0.1H15c-0.1,0-0.1,0.1-0.1,0.1V56z"/>
	<polygon class="st2" points="30,3.7 32.5,11.5 40.7,11.5 34.1,16.3 36.6,24.1 30,19.3 23.4,24.1 25.9,16.3 19.3,11.5 27.5,11.5 	
		"/>
</g>
</svg>
