<?xml version="1.0" encoding="utf-8"?>
<!-- Generator: Adobe Illustrator 22.1.0, SVG Export Plug-In . SVG Version: 6.00 Build 0)  -->
<svg version="1.1" id="Layer_1" xmlns="http://www.w3.org/2000/svg" xmlns:xlink="http://www.w3.org/1999/xlink" x="0px" y="0px"
	 viewBox="0 0 60 60" style="enable-background:new 0 0 60 60;" xml:space="preserve">
<style type="text/css">
	.st0{clip-path:url(#SVGID_2_);}
	.st1{fill:url(#SVGID_3_);}
	.st2{fill:url(#SVGID_4_);}
	.st3{fill:url(#SVGID_5_);}
	.st4{fill:url(#SVGID_6_);}
	.st5{fill:url(#SVGID_7_);}
	.st6{fill:url(#SVGID_8_);}
	.st7{fill:url(#SVGID_9_);}
	.st8{fill:url(#SVGID_10_);}
	.st9{fill:url(#SVGID_11_);}
	.st10{fill:url(#SVGID_12_);}
	.st11{fill:url(#SVGID_13_);}
	.st12{fill:url(#SVGID_14_);}
	.st13{fill:url(#SVGID_15_);}
	.st14{fill:url(#SVGID_16_);}
	.st15{fill:url(#SVGID_17_);}
	.st16{fill:url(#SVGID_18_);}
	.st17{fill:url(#SVGID_19_);}
	.st18{fill:url(#SVGID_20_);}
	.st19{fill:url(#SVGID_21_);}
	.st20{fill:url(#SVGID_22_);}
	.st21{fill:url(#SVGID_23_);}
</style>
<g>
	<defs>
		<rect id="SVGID_1_" width="60" height="60"/>
	</defs>
	<clipPath id="SVGID_2_">
		<use xlink:href="#SVGID_1_"  style="overflow:visible;"/>
	</clipPath>
	<g class="st0">
		
			<linearGradient id="SVGID_3_" gradientUnits="userSpaceOnUse" x1="38.1216" y1="48.2798" x2="48.2777" y2="38.1236" gradientTransform="matrix(1 0 0 -1 0 60)">
			<stop  offset="0" style="stop-color:#5A5A5A"/>
			<stop  offset="1" style="stop-color:#464646"/>
		</linearGradient>
		<path class="st1" d="M53.3,35.1V6.8c0-1.8-1.5-3.3-3.3-3.3h-6.5c-1.8,0-3.3,1.5-3.3,3.3v28.3L53.3,35.1L53.3,35.1z"/>
		
			<linearGradient id="SVGID_4_" gradientUnits="userSpaceOnUse" x1="52.7606" y1="45.7895" x2="48.3234" y2="41.3524" gradientTransform="matrix(1 0 0 -1 0 60)">
			<stop  offset="0" style="stop-color:#464646;stop-opacity:0"/>
			<stop  offset="1" style="stop-color:#202020"/>
		</linearGradient>
		<path class="st2" d="M53.3,35.1V6.8c0-1.8-1.5-3.3-3.3-3.3h-6.5c-1.8,0-3.3,1.5-3.3,3.3v28.3L53.3,35.1L53.3,35.1z"/>
		
			<linearGradient id="SVGID_5_" gradientUnits="userSpaceOnUse" x1="12.8017" y1="35.9627" x2="46.4981" y2="2.2663" gradientTransform="matrix(1 0 0 -1 0 60)">
			<stop  offset="0" style="stop-color:#EEF4FF"/>
			<stop  offset="1" style="stop-color:#CFE7FD"/>
		</linearGradient>
		<path class="st3" d="M50.4,60H9.3c-1.6,0-2.9-1.3-2.9-2.9V28.4L25,5.3c2.5-3.1,7.3-3.1,9.8,0l18.6,23v28.7
			C53.3,58.7,52,60,50.4,60L50.4,60z"/>
		
			<linearGradient id="SVGID_6_" gradientUnits="userSpaceOnUse" x1="27.6418" y1="30.5649" x2="19.0547" y2="39.152" gradientTransform="matrix(1 0 0 -1 0 60)">
			<stop  offset="0" style="stop-color:#8AAADC;stop-opacity:0"/>
			<stop  offset="1" style="stop-color:#8AAADC"/>
		</linearGradient>
		<path class="st4" d="M34.7,5.3c-2.5-3.1-7.3-3.1-9.8,0l-18.6,23v11L27,60h23.4c1.6,0,2.9-1.3,2.9-2.9V28.4L34.7,5.3z"/>
		
			<linearGradient id="SVGID_7_" gradientUnits="userSpaceOnUse" x1="33.9105" y1="13.2819" x2="18.8352" y2="28.3573" gradientTransform="matrix(1 0 0 -1 0 60)">
			<stop  offset="0" style="stop-color:#8AAADC;stop-opacity:0"/>
			<stop  offset="1" style="stop-color:#8AAADC"/>
		</linearGradient>
		<path class="st5" d="M53.2,57.9L28.1,32.8c-0.5-0.7-1.2-1.1-2.1-1.1h-4.5c-1.4,0-2.6,1.2-2.6,2.6v4.5c0,0.9,0.4,1.6,1.1,2.1
			l3.4,3.4L39.1,60h11.3C51.7,60,52.8,59.1,53.2,57.9z"/>
		
			<linearGradient id="SVGID_8_" gradientUnits="userSpaceOnUse" x1="33.3224" y1="1.3213" x2="20.1822" y2="14.4614" gradientTransform="matrix(1 0 0 -1 0 60)">
			<stop  offset="0" style="stop-color:#8AAADC;stop-opacity:0"/>
			<stop  offset="1" style="stop-color:#8AAADC"/>
		</linearGradient>
		<path class="st6" d="M28.1,45.4c-0.5-0.7-1.2-1.1-2.1-1.1h-4.5c-1.4,0-2.6,1.2-2.6,2.6v4.5c0,0.9,0.4,1.6,1.1,2.1l6.6,6.6h16.2
			L28.1,45.4z"/>
		
			<linearGradient id="SVGID_9_" gradientUnits="userSpaceOnUse" x1="46.46" y1="13.2041" x2="31.0305" y2="28.6335" gradientTransform="matrix(1 0 0 -1 0 60)">
			<stop  offset="0" style="stop-color:#8AAADC;stop-opacity:0"/>
			<stop  offset="1" style="stop-color:#8AAADC"/>
		</linearGradient>
		<path class="st7" d="M53.3,57.1V45.6L40.6,32.8c-0.5-0.7-1.2-1.1-2.1-1.1h-4.5c-1.4,0-2.6,1.2-2.6,2.6v4.5c0,0.9,0.4,1.6,1.1,2.1
			l3.4,3.4l15.6,15.6C52.5,59.4,53.3,58.3,53.3,57.1L53.3,57.1z"/>
		
			<linearGradient id="SVGID_10_" gradientUnits="userSpaceOnUse" x1="45.872" y1="1.2434" x2="32.3781" y2="14.7373" gradientTransform="matrix(1 0 0 -1 0 60)">
			<stop  offset="0" style="stop-color:#8AAADC;stop-opacity:0"/>
			<stop  offset="1" style="stop-color:#8AAADC"/>
		</linearGradient>
		<path class="st8" d="M53.2,58L40.6,45.4c-0.5-0.7-1.2-1.1-2.1-1.1h-4.5c-1.4,0-2.6,1.2-2.6,2.6v4.5c0,0.9,0.4,1.6,1.1,2.1L39,60
			h11.3C51.7,60,52.8,59.1,53.2,58L53.2,58z"/>
		
			<linearGradient id="SVGID_11_" gradientUnits="userSpaceOnUse" x1="20.1972" y1="26.9952" x2="26.9421" y2="20.2503" gradientTransform="matrix(1 0 0 -1 0 60)">
			<stop  offset="0" style="stop-color:#76CCF8"/>
			<stop  offset="0.833" style="stop-color:#518EF8"/>
			<stop  offset="1" style="stop-color:#4981F8"/>
		</linearGradient>
		<path class="st9" d="M25.9,41.2h-4.5c-1.4,0-2.6-1.2-2.6-2.6v-4.5c0-1.4,1.2-2.6,2.6-2.6h4.5c1.4,0,2.6,1.2,2.6,2.6v4.5
			C28.4,40.1,27.3,41.2,25.9,41.2z"/>
		
			<linearGradient id="SVGID_12_" gradientUnits="userSpaceOnUse" x1="23.6085" y1="20.6897" x2="23.6085" y2="18.76" gradientTransform="matrix(1 0 0 -1 0 60)">
			<stop  offset="0" style="stop-color:#4071F7;stop-opacity:0"/>
			<stop  offset="1" style="stop-color:#30569F"/>
		</linearGradient>
		<path class="st10" d="M18.8,38.7c0,1.4,1.2,2.6,2.6,2.6h4.5c1.4,0,2.6-1.2,2.6-2.6c0-0.3-0.2-0.6-0.6-0.6h-8.5
			C19,38.1,18.8,38.4,18.8,38.7z"/>
		
			<linearGradient id="SVGID_13_" gradientUnits="userSpaceOnUse" x1="32.6678" y1="26.9952" x2="39.4127" y2="20.2503" gradientTransform="matrix(1 0 0 -1 0 60)">
			<stop  offset="0" style="stop-color:#76CCF8"/>
			<stop  offset="0.833" style="stop-color:#518EF8"/>
			<stop  offset="1" style="stop-color:#4981F8"/>
		</linearGradient>
		<path class="st11" d="M38.3,41.2h-4.5c-1.4,0-2.6-1.2-2.6-2.6v-4.5c0-1.4,1.2-2.6,2.6-2.6h4.5c1.4,0,2.6,1.2,2.6,2.6v4.5
			C40.9,40.1,39.8,41.2,38.3,41.2z"/>
		
			<linearGradient id="SVGID_14_" gradientUnits="userSpaceOnUse" x1="36.0791" y1="20.6897" x2="36.0791" y2="18.76" gradientTransform="matrix(1 0 0 -1 0 60)">
			<stop  offset="0" style="stop-color:#4071F7;stop-opacity:0"/>
			<stop  offset="1" style="stop-color:#30569F"/>
		</linearGradient>
		<path class="st12" d="M31.3,38.7c0,1.4,1.2,2.6,2.6,2.6h4.5c1.4,0,2.6-1.2,2.6-2.6c0-0.3-0.2-0.6-0.6-0.6h-8.5
			C31.5,38.1,31.3,38.4,31.3,38.7z"/>
		
			<linearGradient id="SVGID_15_" gradientUnits="userSpaceOnUse" x1="20.1973" y1="14.4463" x2="26.9422" y2="7.7012" gradientTransform="matrix(1 0 0 -1 0 60)">
			<stop  offset="0" style="stop-color:#76CCF8"/>
			<stop  offset="0.833" style="stop-color:#518EF8"/>
			<stop  offset="1" style="stop-color:#4981F8"/>
		</linearGradient>
		<path class="st13" d="M25.9,53.8h-4.5c-1.4,0-2.6-1.2-2.6-2.6v-4.5c0-1.4,1.2-2.6,2.6-2.6h4.5c1.4,0,2.6,1.2,2.6,2.6v4.5
			C28.4,52.6,27.3,53.8,25.9,53.8z"/>
		
			<linearGradient id="SVGID_16_" gradientUnits="userSpaceOnUse" x1="23.6085" y1="8.1407" x2="23.6085" y2="6.2109" gradientTransform="matrix(1 0 0 -1 0 60)">
			<stop  offset="0" style="stop-color:#4071F7;stop-opacity:0"/>
			<stop  offset="1" style="stop-color:#30569F"/>
		</linearGradient>
		<path class="st14" d="M18.8,51.2c0,1.4,1.2,2.6,2.6,2.6h4.5c1.4,0,2.6-1.2,2.6-2.6c0-0.3-0.2-0.6-0.6-0.6h-8.5
			C19,50.7,18.8,50.9,18.8,51.2z"/>
		
			<linearGradient id="SVGID_17_" gradientUnits="userSpaceOnUse" x1="32.6679" y1="14.4463" x2="39.4128" y2="7.7012" gradientTransform="matrix(1 0 0 -1 0 60)">
			<stop  offset="0" style="stop-color:#76CCF8"/>
			<stop  offset="0.833" style="stop-color:#518EF8"/>
			<stop  offset="1" style="stop-color:#4981F8"/>
		</linearGradient>
		<path class="st15" d="M38.3,53.8h-4.5c-1.4,0-2.6-1.2-2.6-2.6v-4.5c0-1.4,1.2-2.6,2.6-2.6h4.5c1.4,0,2.6,1.2,2.6,2.6v4.5
			C40.9,52.6,39.8,53.8,38.3,53.8z"/>
		
			<linearGradient id="SVGID_18_" gradientUnits="userSpaceOnUse" x1="36.0791" y1="8.1407" x2="36.0791" y2="6.2109" gradientTransform="matrix(1 0 0 -1 0 60)">
			<stop  offset="0" style="stop-color:#4071F7;stop-opacity:0"/>
			<stop  offset="1" style="stop-color:#30569F"/>
		</linearGradient>
		<path class="st16" d="M31.3,51.2c0,1.4,1.2,2.6,2.6,2.6h4.5c1.4,0,2.6-1.2,2.6-2.6c0-0.3-0.2-0.6-0.6-0.6h-8.5
			C31.5,50.7,31.3,50.9,31.3,51.2z"/>
		
			<linearGradient id="SVGID_19_" gradientUnits="userSpaceOnUse" x1="6.5706" y1="52.1976" x2="48.2548" y2="10.5134" gradientTransform="matrix(1 0 0 -1 0 60)">
			<stop  offset="0" style="stop-color:#76CCF8"/>
			<stop  offset="0.833" style="stop-color:#518EF8"/>
			<stop  offset="1" style="stop-color:#4981F8"/>
		</linearGradient>
		<path class="st17" d="M31.8,14.2l17.5,22.6c1.3,1.7,3.3,2.7,5.5,2.7c4.3,0,6.7-4.9,4.1-8.3L37.7,3.8c-3.9-5-11.4-5-15.3,0
			L1.1,31.2c-2.6,3.4-0.2,8.3,4.1,8.3c2.1,0,4.2-1,5.5-2.7l17.5-22.6C29.1,13,30.9,13,31.8,14.2L31.8,14.2z"/>
		
			<linearGradient id="SVGID_20_" gradientUnits="userSpaceOnUse" x1="30" y1="26.1177" x2="30" y2="62.82" gradientTransform="matrix(1 0 0 -1 0 60)">
			<stop  offset="0" style="stop-color:#4071F7;stop-opacity:0"/>
			<stop  offset="1" style="stop-color:#30569F"/>
		</linearGradient>
		<path class="st18" d="M5.2,39.5c2.1,0,4.2-1,5.5-2.7l17.5-22.6c0.9-1.2,2.7-1.2,3.6,0l17.5,22.6c1.3,1.7,3.3,2.7,5.5,2.7
			c1.4,0,2.5-0.5,3.4-1.3L35,8.2C32.5,5,27.5,5,25,8.2l-23.2,30C2.7,39,3.8,39.5,5.2,39.5L5.2,39.5z"/>
		
			<linearGradient id="SVGID_21_" gradientUnits="userSpaceOnUse" x1="29.8439" y1="6.2353" x2="29.8439" y2="-0.7308" gradientTransform="matrix(1 0 0 -1 0 60)">
			<stop  offset="0" style="stop-color:#8AAADC;stop-opacity:0"/>
			<stop  offset="1" style="stop-color:#8AAADC"/>
		</linearGradient>
		<path class="st19" d="M6.4,48.6v8.5c0,1.6,1.3,2.9,2.9,2.9h41.1c1.6,0,2.9-1.3,2.9-2.9v-8.5H6.4z"/>
		
			<linearGradient id="SVGID_22_" gradientUnits="userSpaceOnUse" x1="10.3669" y1="28.7708" x2="10.3669" y2="19.3768" gradientTransform="matrix(1 0 0 -1 0 60)">
			<stop  offset="0" style="stop-color:#4071F7;stop-opacity:0"/>
			<stop  offset="1" style="stop-color:#30569F"/>
		</linearGradient>
		<path class="st20" d="M5.2,39.5c2.1,0,4.2-1,5.5-2.7l10.1-13H6.8l-5.7,7.4C-1.5,34.6,0.9,39.5,5.2,39.5z"/>
		
			<linearGradient id="SVGID_23_" gradientUnits="userSpaceOnUse" x1="49.6331" y1="28.7708" x2="49.6331" y2="19.3768" gradientTransform="matrix(1 0 0 -1 0 60)">
			<stop  offset="0" style="stop-color:#4071F7;stop-opacity:0"/>
			<stop  offset="1" style="stop-color:#30569F"/>
		</linearGradient>
		<path class="st21" d="M49.4,36.8c1.3,1.7,3.3,2.7,5.5,2.7c4.3,0,6.7-4.9,4.1-8.3l-5.7-7.4H39.3L49.4,36.8z"/>
	</g>
</g>
</svg>
