<svg id="Layer_1" enable-background="new 0 0 510 510" height="512" viewBox="0 0 510 510" width="512" xmlns="http://www.w3.org/2000/svg" xmlns:xlink="http://www.w3.org/1999/xlink"><linearGradient id="lg1"><stop offset="0" stop-color="#ff7044"/><stop offset="1" stop-color="#f82814"/></linearGradient><linearGradient id="SVGID_1_" gradientUnits="userSpaceOnUse" x1="212.103" x2="341.218" xlink:href="#lg1" y1="389.492" y2="518.607"/><linearGradient id="lg2"><stop offset="0" stop-color="#ffd945"/><stop offset=".3043" stop-color="#ffcd3e"/><stop offset=".8558" stop-color="#ffad2b"/><stop offset="1" stop-color="#ffa325"/></linearGradient><linearGradient id="SVGID_2_" gradientUnits="userSpaceOnUse" x1="94.723" x2="412.787" xlink:href="#lg2" y1="66.487" y2="384.551"/><linearGradient id="SVGID_3_" gradientUnits="userSpaceOnUse" x1="265.47" x2="96.899" y1="237.234" y2="68.663"><stop offset="0" stop-color="#ffd945" stop-opacity="0"/><stop offset="1" stop-color="#fbed21"/></linearGradient><linearGradient id="SVGID_4_" gradientUnits="userSpaceOnUse" x1="258.598" x2="526.986" y1="230.175" y2="484.57"><stop offset="0" stop-color="#e87264" stop-opacity="0"/><stop offset="1" stop-color="#ff7044"/></linearGradient><linearGradient id="lg3"><stop offset="0" stop-color="#8a7889"/><stop offset="1" stop-color="#6e566e"/></linearGradient><linearGradient id="SVGID_5_" gradientUnits="userSpaceOnUse" x1="372.633" x2="117.394" xlink:href="#lg3" y1="344.397" y2="89.158"/><linearGradient id="SVGID_6_" gradientTransform="matrix(-1 0 0 -1 510 510)" gradientUnits="userSpaceOnUse" x1="364.378" x2="127.05" xlink:href="#lg3" y1="392.614" y2="155.286"/><linearGradient id="SVGID_7_" gradientTransform="matrix(-1 0 0 -1 510 510)" gradientUnits="userSpaceOnUse" x1="397.456" x2="160.128" xlink:href="#lg1" y1="359.536" y2="122.209"/><linearGradient id="SVGID_8_" gradientTransform="matrix(-1 0 0 -1 510 510)" gradientUnits="userSpaceOnUse" x1="331.301" x2="93.973" xlink:href="#lg3" y1="425.692" y2="188.364"/><linearGradient id="lg4"><stop offset="0" stop-color="#00adfb"/><stop offset="1" stop-color="#3f3ced"/></linearGradient><linearGradient id="SVGID_9_" gradientTransform="matrix(-1 0 0 -1 510 510)" gradientUnits="userSpaceOnUse" x1="331.301" x2="93.973" xlink:href="#lg4" y1="425.692" y2="188.364"/><linearGradient id="SVGID_10_" gradientTransform="matrix(-1 0 0 -1 510 510)" gradientUnits="userSpaceOnUse" x1="422.913" x2="185.585" xlink:href="#lg3" y1="334.08" y2="96.752"/><linearGradient id="SVGID_11_" gradientTransform="matrix(-1 0 0 -1 510 510)" gradientUnits="userSpaceOnUse" x1="397.456" x2="160.128" xlink:href="#lg3" y1="359.536" y2="122.209"/><linearGradient id="SVGID_12_" gradientTransform="matrix(-1 0 0 -1 510 510)" gradientUnits="userSpaceOnUse" x1="305.844" x2="68.516" xlink:href="#lg3" y1="451.149" y2="213.821"/><linearGradient id="lg5"><stop offset="0" stop-color="#9b62cd"/><stop offset=".3003" stop-color="#985dcb"/><stop offset=".6716" stop-color="#8f4ec7"/><stop offset="1" stop-color="#833ac1"/></linearGradient><linearGradient id="SVGID_13_" gradientTransform="matrix(-1 0 0 -1 510 510)" gradientUnits="userSpaceOnUse" x1="422.913" x2="185.585" xlink:href="#lg5" y1="334.08" y2="96.752"/><linearGradient id="lg6"><stop offset="0" stop-color="#92f37f"/><stop offset="1" stop-color="#4ab272"/></linearGradient><linearGradient id="SVGID_14_" gradientTransform="matrix(-1 0 0 -1 510 510)" gradientUnits="userSpaceOnUse" x1="305.844" x2="68.516" xlink:href="#lg6" y1="451.148" y2="213.82"/><linearGradient id="SVGID_15_" gradientTransform="matrix(-1 0 0 -1 510 510)" gradientUnits="userSpaceOnUse" x1="314.668" x2="77.34" xlink:href="#lg4" y1="442.324" y2="204.997"/><linearGradient id="SVGID_16_" gradientTransform="matrix(-1 0 0 -1 510 510)" gradientUnits="userSpaceOnUse" x1="414.089" x2="176.761" xlink:href="#lg1" y1="342.904" y2="105.576"/><linearGradient id="SVGID_17_" gradientTransform="matrix(-1 0 0 -1 510 510)" gradientUnits="userSpaceOnUse" x1="314.668" x2="77.341" xlink:href="#lg5" y1="442.325" y2="204.997"/><linearGradient id="SVGID_18_" gradientTransform="matrix(-1 0 0 -1 510 510)" gradientUnits="userSpaceOnUse" x1="414.089" x2="176.761" xlink:href="#lg2" y1="342.904" y2="105.576"/><linearGradient id="SVGID_19_" gradientTransform="matrix(-1 0 0 -1 510 510)" gradientUnits="userSpaceOnUse" x1="304.681" x2="67.352" xlink:href="#lg2" y1="452.312" y2="214.983"/><linearGradient id="SVGID_20_" gradientTransform="matrix(-1 0 0 -1 510 510)" gradientUnits="userSpaceOnUse" x1="424.076" x2="186.748" xlink:href="#lg4" y1="332.916" y2="95.588"/><linearGradient id="SVGID_21_" gradientTransform="matrix(-1 0 0 -1 510 510)" gradientUnits="userSpaceOnUse" x1="364.378" x2="127.05" xlink:href="#lg6" y1="392.614" y2="155.286"/><linearGradient id="SVGID_22_" gradientTransform="matrix(-1 0 0 -1 510 510)" gradientUnits="userSpaceOnUse" x1="364.378" x2="127.05" xlink:href="#lg5" y1="392.614" y2="155.286"/><linearGradient id="lg7"><stop offset="0" stop-color="#6e566e" stop-opacity="0"/><stop offset="1" stop-color="#6e566e"/></linearGradient><linearGradient id="SVGID_23_" gradientUnits="userSpaceOnUse" x1="377.87" x2="213.296" xlink:href="#lg7" y1="349.634" y2="185.06"/><linearGradient id="lg8"><stop offset="0" stop-color="#e4f2ff"/><stop offset="1" stop-color="#b2cbff"/></linearGradient><linearGradient id="SVGID_24_" gradientUnits="userSpaceOnUse" x1="181.67" x2="328.33" xlink:href="#lg8" y1="226.764" y2="226.764"/><linearGradient id="lg9"><stop offset="0" stop-color="#fff" stop-opacity="0"/><stop offset="1" stop-color="#fff"/></linearGradient><linearGradient id="SVGID_25_" gradientUnits="userSpaceOnUse" x1="267.739" x2="180.017" xlink:href="#lg9" y1="239.503" y2="151.782"/><linearGradient id="SVGID_26_" gradientUnits="userSpaceOnUse" x1="286.151" x2="422.752" y1="229.519" y2="113.896"><stop offset="0" stop-color="#3f3ced" stop-opacity="0"/><stop offset=".2657" stop-color="#3d3de6" stop-opacity=".266"/><stop offset=".6571" stop-color="#3640d2" stop-opacity=".657"/><stop offset="1" stop-color="#2f43bb"/></linearGradient><linearGradient id="SVGID_27_" gradientUnits="userSpaceOnUse" x1="255" x2="255" xlink:href="#lg9" y1="204.212" y2="135.064"/><linearGradient id="SVGID_28_" gradientTransform="matrix(0 1 1 0 629.406 -629.406)" gradientUnits="userSpaceOnUse" x1="1062.579" x2="1032.916" xlink:href="#lg2" y1="-367.177" y2="-396.84"/><linearGradient id="SVGID_29_" gradientUnits="userSpaceOnUse" x1="250.198" x2="259.939" xlink:href="#lg1" y1="421.142" y2="430.884"/><linearGradient id="SVGID_30_" gradientTransform="matrix(0 1 1 0 629.406 -629.406)" gradientUnits="userSpaceOnUse" x1="664.219" x2="634.557" xlink:href="#lg2" y1="-367.177" y2="-396.84"/><linearGradient id="SVGID_31_" gradientUnits="userSpaceOnUse" x1="250.198" x2="259.939" xlink:href="#lg1" y1="22.782" y2="32.524"/><linearGradient id="SVGID_32_" gradientTransform="matrix(-1 0 0 1 607.406 1161.406)" gradientUnits="userSpaceOnUse" x1="558.815" x2="529.152" xlink:href="#lg2" y1="-927.413" y2="-957.075"/><linearGradient id="SVGID_33_" gradientTransform="matrix(0 1 -1 0 -22 532)" gradientUnits="userSpaceOnUse" x1="-310.038" x2="-300.296" xlink:href="#lg1" y1="-82.622" y2="-72.881"/><linearGradient id="SVGID_34_" gradientTransform="matrix(-1 0 0 1 607.406 1161.406)" gradientUnits="userSpaceOnUse" x1="160.455" x2="130.792" xlink:href="#lg2" y1="-927.413" y2="-957.075"/><linearGradient id="SVGID_35_" gradientTransform="matrix(0 1 -1 0 -22 532)" gradientUnits="userSpaceOnUse" x1="-310.038" x2="-300.296" xlink:href="#lg1" y1="-480.982" y2="-471.241"/><linearGradient id="SVGID_36_" gradientTransform="matrix(-.707 .707 .707 .707 989.297 270.451)" gradientUnits="userSpaceOnUse" x1="694.751" x2="665.088" xlink:href="#lg2" y1="-542.893" y2="-572.556"/><linearGradient id="SVGID_37_" gradientTransform="matrix(.707 .707 -.707 .707 99.179 270.451)" gradientUnits="userSpaceOnUse" x1="74.49" x2="84.231" xlink:href="#lg1" y1="53.305" y2="63.047"/><linearGradient id="SVGID_38_" gradientTransform="matrix(-.707 .707 .707 .707 989.297 270.451)" gradientUnits="userSpaceOnUse" x1="296.387" x2="266.725" xlink:href="#lg2" y1="-542.893" y2="-572.556"/><linearGradient id="SVGID_39_" gradientTransform="matrix(.707 .707 -.707 .707 99.179 270.451)" gradientUnits="userSpaceOnUse" x1="74.49" x2="84.232" xlink:href="#lg1" y1="-345.058" y2="-335.317"/><linearGradient id="SVGID_40_" gradientTransform="matrix(-.707 -.707 -.707 .707 -292.451 1521.297)" gradientUnits="userSpaceOnUse" x1="734.683" x2="705.02" xlink:href="#lg2" y1="-1295.262" y2="-1324.925"/><linearGradient id="SVGID_41_" gradientTransform="matrix(-.707 .707 -.707 -.707 -292.451 631.179)" gradientUnits="userSpaceOnUse" x1="-677.879" x2="-668.137" xlink:href="#lg1" y1="93.237" y2="102.979"/><linearGradient id="SVGID_42_" gradientTransform="matrix(-.707 -.707 -.707 .707 -292.451 1521.297)" gradientUnits="userSpaceOnUse" x1="336.319" x2="306.656" xlink:href="#lg2" y1="-1295.262" y2="-1324.925"/><linearGradient id="SVGID_43_" gradientTransform="matrix(-.707 .707 -.707 -.707 -292.451 631.179)" gradientUnits="userSpaceOnUse" x1="-677.879" x2="-668.138" xlink:href="#lg1" y1="-305.127" y2="-295.385"/><linearGradient id="SVGID_44_" gradientTransform="matrix(-.379 .925 .925 .379 897.712 -219.413)" gradientUnits="userSpaceOnUse" x1="863.001" x2="833.339" xlink:href="#lg2" y1="-418.226" y2="-447.888"/><linearGradient id="SVGID_45_" gradientTransform="matrix(.925 .379 -.379 .925 76.595 124.177)" gradientUnits="userSpaceOnUse" x1="199.168" x2="208.91" xlink:href="#lg1" y1="221.626" y2="231.368"/><linearGradient id="SVGID_46_" gradientTransform="matrix(-.379 .925 .925 .379 897.712 -219.413)" gradientUnits="userSpaceOnUse" x1="464.651" x2="434.989" xlink:href="#lg2" y1="-418.208" y2="-447.87"/><linearGradient id="SVGID_47_" gradientTransform="matrix(.925 .379 -.379 .925 76.595 124.177)" gradientUnits="userSpaceOnUse" x1="199.186" x2="208.928" xlink:href="#lg1" y1="-176.724" y2="-166.982"/><linearGradient id="SVGID_48_" gradientTransform="matrix(-.925 -.379 -.379 .925 197.413 1429.712)" gradientUnits="userSpaceOnUse" x1="609.377" x2="579.716" xlink:href="#lg2" y1="-1127.655" y2="-1157.317"/><linearGradient id="SVGID_49_" gradientTransform="matrix(-.379 .925 -.925 -.379 -146.177 608.595)" gradientUnits="userSpaceOnUse" x1="-510.261" x2="-500.52" xlink:href="#lg1" y1="-31.997" y2="-22.256"/><linearGradient id="SVGID_50_" gradientTransform="matrix(-.925 -.379 -.379 .925 197.413 1429.712)" gradientUnits="userSpaceOnUse" x1="211.027" x2="181.365" xlink:href="#lg2" y1="-1127.637" y2="-1157.299"/><linearGradient id="SVGID_51_" gradientTransform="matrix(-.379 .925 -.925 -.379 -146.177 608.595)" gradientUnits="userSpaceOnUse" x1="-510.243" x2="-500.502" xlink:href="#lg1" y1="-430.347" y2="-420.606"/><linearGradient id="SVGID_52_" gradientTransform="matrix(-.923 .386 .386 .923 888.424 749.614)" gradientUnits="userSpaceOnUse" x1="588.922" x2="559.259" xlink:href="#lg2" y1="-719.594" y2="-749.256"/><linearGradient id="SVGID_53_" gradientTransform="matrix(.386 .923 -.923 .386 64.833 411.976)" gradientUnits="userSpaceOnUse" x1="-102.249" x2="-92.507" xlink:href="#lg1" y1="-52.543" y2="-42.801"/><linearGradient id="SVGID_54_" gradientTransform="matrix(-.923 .386 .386 .923 888.424 749.614)" gradientUnits="userSpaceOnUse" x1="190.562" x2="160.9" xlink:href="#lg2" y1="-719.606" y2="-749.269"/><linearGradient id="SVGID_55_" gradientTransform="matrix(.386 .923 -.923 .386 64.833 411.976)" gradientUnits="userSpaceOnUse" x1="-102.261" x2="-92.52" xlink:href="#lg1" y1="-450.902" y2="-441.161"/><linearGradient id="SVGID_56_" gradientTransform="matrix(-.386 -.923 -.923 .386 -771.614 1420.424)" gradientUnits="userSpaceOnUse" x1="911.286" x2="881.623" xlink:href="#lg2" y1="-1400.566" y2="-1430.228"/><linearGradient id="SVGID_57_" gradientTransform="matrix(-.923 .386 -.386 -.923 -433.976 596.833)" gradientUnits="userSpaceOnUse" x1="-783.221" x2="-773.479" xlink:href="#lg1" y1="269.821" y2="279.563"/><linearGradient id="SVGID_58_" gradientTransform="matrix(-.386 -.923 -.923 .386 -771.614 1420.424)" gradientUnits="userSpaceOnUse" x1="512.926" x2="483.264" xlink:href="#lg2" y1="-1400.578" y2="-1430.241"/><linearGradient id="SVGID_59_" gradientTransform="matrix(-.923 .386 -.386 -.923 -433.976 596.833)" gradientUnits="userSpaceOnUse" x1="-783.233" x2="-773.492" xlink:href="#lg1" y1="-128.538" y2="-118.797"/><linearGradient id="SVGID_60_" gradientUnits="userSpaceOnUse" x1="274.156" x2="24.849" xlink:href="#lg9" y1="263.805" y2="-218.272"/><linearGradient id="SVGID_61_" gradientUnits="userSpaceOnUse" x1="323.541" x2="218.567" xlink:href="#lg7" y1="100.605" y2="-34.685"/><linearGradient id="SVGID_62_" gradientUnits="userSpaceOnUse" x1="286.753" x2="235.14" xlink:href="#lg7" y1="82.363" y2="30.75"/><linearGradient id="SVGID_63_" gradientTransform="matrix(-1 0 0 -1 510 510)" gradientUnits="userSpaceOnUse" x1="269.925" x2="210.561" xlink:href="#lg8" y1="474.312" y2="414.948"/><linearGradient id="SVGID_64_" gradientUnits="userSpaceOnUse" x1="252.966" x2="289.151" xlink:href="#lg1" y1="23.07" y2="59.256"/><linearGradient id="SVGID_65_" gradientUnits="userSpaceOnUse" x1="275.938" x2="195.681" y1="42.238" y2="-20.864"><stop offset="0" stop-color="#ff7044" stop-opacity="0"/><stop offset="1" stop-color="#ffa325"/></linearGradient><linearGradient id="SVGID_66_" gradientUnits="userSpaceOnUse" x1="255" x2="255" xlink:href="#lg2" y1="457.129" y2="482.872"/><linearGradient id="SVGID_67_" gradientUnits="userSpaceOnUse" x1="255" x2="255" xlink:href="#lg2" y1="475.925" y2="517.127"/><path d="m337.568 500.154c-7.398 0-14.154-4.962-16.113-12.454l-34.04-130.174c-4.095-15.659-18.259-26.596-34.445-26.596s-30.35 10.937-34.445 26.596l-34.04 130.174c-2.329 8.905-11.436 14.236-20.341 11.908-8.905-2.329-14.237-11.436-11.908-20.341l34.04-130.174c7.929-30.321 35.355-51.497 66.694-51.497 31.34 0 58.766 21.177 66.694 51.497l34.04 130.174c2.329 8.905-3.003 18.012-11.908 20.341-1.414.369-2.833.546-4.228.546z" fill="url(#SVGID_1_)"/><circle cx="255" cy="226.764" fill="url(#SVGID_2_)" r="216.247"/><circle cx="255" cy="226.764" fill="url(#SVGID_3_)" r="203.745"/><path d="m255 10.517c-119.43 0-216.247 96.817-216.247 216.247s96.817 216.247 216.247 216.247 216.247-96.817 216.247-216.247-96.817-216.247-216.247-216.247zm0 419.992c-112.525 0-203.745-91.22-203.745-203.745s91.22-203.745 203.745-203.745 203.745 91.22 203.745 203.745-91.22 203.745-203.745 203.745z" fill="url(#SVGID_4_)"/><circle cx="255" cy="226.764" fill="url(#SVGID_5_)" r="181.604"/><circle cx="255" cy="226.764" fill="url(#SVGID_6_)" r="168.86"/><path d="m114.411 133.215c-11.979 17.967-20.606 38.358-24.987 60.284l165.576 33.265z" fill="url(#SVGID_7_)"/><path d="m221.735 61.188c-21.926 4.381-42.316 13.008-60.283 24.987l93.548 140.589z" fill="url(#SVGID_8_)"/><path d="m255 226.764 140.589 93.549c11.979-17.967 20.606-38.358 24.987-60.284z" fill="url(#SVGID_9_)"/><path d="m89.424 260.03c4.381 21.926 13.008 42.317 24.987 60.284l140.589-93.55z" fill="url(#SVGID_10_)"/><path d="m288.265 392.34c21.926-4.381 42.317-13.008 60.284-24.987l-93.549-140.589z" fill="url(#SVGID_11_)"/><path d="m420.576 193.499c-4.381-21.926-13.008-42.317-24.987-60.284l-140.589 93.549z" fill="url(#SVGID_12_)"/><path d="m161.451 367.353c17.967 11.979 38.358 20.606 60.284 24.987l33.265-165.576z" fill="url(#SVGID_13_)"/><path d="m348.549 86.176c-17.967-11.979-38.358-20.606-60.284-24.987l-33.265 165.575z" fill="url(#SVGID_14_)"/><path d="m288.265 61.188c-10.756-2.149-21.878-3.284-33.265-3.284-11.388 0-22.51 1.135-33.265 3.284l33.265 165.576z" fill="url(#SVGID_15_)"/><path d="m221.735 392.34c10.756 2.149 21.878 3.284 33.265 3.284 11.388 0 22.51-1.135 33.265-3.284l-33.265-165.576z" fill="url(#SVGID_16_)"/><path d="m420.576 260.03c2.149-10.756 3.284-21.878 3.284-33.265 0-11.388-1.135-22.51-3.284-33.265l-165.576 33.264z" fill="url(#SVGID_17_)"/><path d="m89.424 193.499c-2.149 10.756-3.284 21.878-3.284 33.265 0 11.388 1.135 22.51 3.284 33.265l165.576-33.265z" fill="url(#SVGID_18_)"/><path d="m395.589 133.215c-12.413-18.617-28.423-34.627-47.04-47.04l-93.549 140.589z" fill="url(#SVGID_19_)"/><path d="m114.411 320.313c12.413 18.617 28.423 34.627 47.04 47.04l93.549-140.589z" fill="url(#SVGID_20_)"/><path d="m348.549 367.353c18.617-12.413 34.627-28.423 47.04-47.04l-140.589-93.549z" fill="url(#SVGID_21_)"/><path d="m161.451 86.176c-18.617 12.413-34.627 28.423-47.04 47.04l140.589 93.548z" fill="url(#SVGID_22_)"/><path d="m441.27 309.418-132.626-132.626c-13.387-14.364-32.461-23.357-53.644-23.357-40.499 0-73.33 32.831-73.33 73.33 0 21.183 8.993 40.257 23.357 53.643l132.626 132.626c46.076-20.476 83.141-57.541 103.617-103.616z" fill="url(#SVGID_23_)"/><circle cx="255" cy="226.764" fill="url(#SVGID_24_)" r="73.33"/><circle cx="255" cy="226.764" fill="url(#SVGID_25_)" r="65.456"/><path d="m287.803 161.168c4.946 9.871 7.734 21.01 7.734 32.802 0 40.499-32.831 73.33-73.33 73.33-11.792 0-22.931-2.788-32.802-7.734 12.04 24.029 36.89 40.527 65.596 40.527 40.499 0 73.33-32.831 73.33-73.33-.001-28.705-16.499-53.555-40.528-65.595z" fill="url(#SVGID_26_)"/><path d="m304.583 195.381c0 18.817-22.2 34.072-49.584 34.072s-49.583-15.255-49.583-34.072c0-18.818 22.199-34.073 49.583-34.073 27.385 0 49.584 15.255 49.584 34.073z" fill="url(#SVGID_27_)"/><circle cx="255" cy="425.944" fill="url(#SVGID_28_)" r="12.847"/><circle cx="255" cy="425.944" fill="url(#SVGID_29_)" r="11.083"/><circle cx="255" cy="27.584" fill="url(#SVGID_30_)" r="12.847"/><circle cx="255" cy="27.584" fill="url(#SVGID_31_)" r="11.083"/><circle cx="55.82" cy="226.764" fill="url(#SVGID_32_)" r="12.847"/><circle cx="55.82" cy="226.764" fill="url(#SVGID_33_)" r="11.083"/><circle cx="454.18" cy="226.764" fill="url(#SVGID_34_)" r="12.847"/><circle cx="454.18" cy="226.764" fill="url(#SVGID_35_)" r="11.083"/><path d="m105.074 376.69c5.017 5.017 13.151 5.017 18.168 0s5.017-13.151 0-18.168-13.151-5.017-18.168 0-5.017 13.151 0 18.168z" fill="url(#SVGID_36_)"/><circle cx="114.159" cy="367.606" fill="url(#SVGID_37_)" r="11.083"/><path d="m386.757 95.007c5.017 5.017 13.151 5.017 18.168 0s5.017-13.151 0-18.168-13.151-5.017-18.168 0c-5.016 5.017-5.016 13.151 0 18.168z" fill="url(#SVGID_38_)"/><path d="m388.005 93.759c4.328 4.328 11.345 4.328 15.674 0 4.328-4.328 4.328-11.345 0-15.674-4.328-4.328-11.345-4.328-15.674 0s-4.328 11.346 0 15.674z" fill="url(#SVGID_39_)"/><path d="m105.074 76.839c-5.017 5.017-5.017 13.151 0 18.168s13.151 5.017 18.168 0 5.017-13.151 0-18.168c-5.016-5.017-13.151-5.017-18.168 0z" fill="url(#SVGID_40_)"/><path d="m106.322 78.086c-4.328 4.328-4.328 11.345 0 15.674 4.328 4.328 11.345 4.328 15.673 0s4.328-11.345 0-15.674c-4.328-4.328-11.345-4.328-15.673 0z" fill="url(#SVGID_41_)"/><path d="m386.757 358.522c-5.017 5.017-5.017 13.151 0 18.168s13.151 5.017 18.168 0 5.017-13.151 0-18.168-13.151-5.017-18.168 0z" fill="url(#SVGID_42_)"/><circle cx="395.841" cy="367.606" fill="url(#SVGID_43_)" r="11.083"/><circle cx="179.444" cy="411.057" fill="url(#SVGID_44_)" r="12.847"/><circle cx="179.445" cy="411.057" fill="url(#SVGID_45_)" r="11.083"/><circle cx="330.556" cy="42.471" fill="url(#SVGID_46_)" r="12.847"/><circle cx="330.556" cy="42.471" fill="url(#SVGID_47_)" r="11.083"/><path d="m58.82 146.335c-2.691 6.565.449 14.068 7.013 16.76 6.565 2.691 14.068-.449 16.76-7.013 2.691-6.565-.449-14.068-7.013-16.76-6.565-2.691-14.069.449-16.76 7.013z" fill="url(#SVGID_48_)"/><path d="m60.452 147.005c-2.322 5.664.387 12.137 6.05 14.459 5.664 2.322 12.137-.387 14.459-6.051 2.322-5.663-.387-12.137-6.05-14.459-5.664-2.322-12.137.387-14.459 6.051z" fill="url(#SVGID_49_)"/><path d="m427.407 297.447c-2.691 6.565.449 14.068 7.013 16.76 6.565 2.691 14.068-.449 16.76-7.013 2.691-6.565-.449-14.068-7.013-16.76-6.565-2.692-14.069.448-16.76 7.013z" fill="url(#SVGID_50_)"/><path d="m429.039 298.116c-2.322 5.664.387 12.137 6.051 14.459 5.663 2.322 12.137-.387 14.459-6.051 2.322-5.663-.387-12.137-6.05-14.459-5.665-2.322-12.138.387-14.46 6.051z" fill="url(#SVGID_51_)"/><circle cx="71.259" cy="303.653" fill="url(#SVGID_52_)" r="12.847"/><circle cx="71.259" cy="303.653" fill="url(#SVGID_53_)" r="11.083"/><circle cx="438.741" cy="149.875" fill="url(#SVGID_54_)" r="12.847"/><circle cx="438.741" cy="149.875" fill="url(#SVGID_55_)" r="11.083"/><circle cx="178.111" cy="43.023" fill="url(#SVGID_56_)" r="12.847"/><circle cx="178.111" cy="43.023" fill="url(#SVGID_57_)" r="11.083"/><circle cx="331.889" cy="410.505" fill="url(#SVGID_58_)" r="12.847"/><circle cx="331.889" cy="410.505" fill="url(#SVGID_59_)" r="11.083"/><circle cx="255" cy="226.764" fill="url(#SVGID_60_)" r="203.745"/><path d="m413.954 126.689-5.979 29.723c-.89 4.469-5.224 7.344-9.701 6.496-10.711-2.018-21.752-3.087-33.056-3.087-11.296 0-22.337 1.068-33.048 3.087-3.358.636-6.632-.823-8.438-3.477l-108.064-108.056c-1.713-1.179-2.985-2.985-3.426-5.181l-3.596-17.885-2.468-12.262c15.688-3.613 32.03-5.529 48.821-5.529 16.587 0 32.742 1.866 48.261 5.41l-.025.042z" fill="url(#SVGID_61_)"/><path d="m264.247 34.992c-2.99-.597-6.082-.913-9.247-.913-3.166 0-6.258.316-9.248.913l7.76 38.626c.135.674.618 1.052 1.156 1.167l57.456 57.456c.341 1.604 2.643 1.6 2.968-.017l7.76-38.626z" fill="url(#SVGID_62_)"/><path d="m264.248 34.992c-2.99-.597-6.082-.913-9.248-.913s-6.258.316-9.248.913l7.76 38.626c.326 1.624 2.648 1.624 2.975 0z" fill="url(#SVGID_63_)"/><path d="m205.734 13.796 6.508 32.396c.898 4.468 5.228 7.345 9.706 6.499 10.708-2.024 21.755-3.087 33.052-3.087 11.296 0 22.344 1.064 33.052 3.087 4.478.846 8.808-2.031 9.706-6.499l6.508-32.396c.91-4.528-2.058-8.919-6.594-9.783-13.821-2.633-28.085-4.013-42.672-4.013s-28.852 1.38-42.672 4.012c-4.537.865-7.504 5.256-6.594 9.784z" fill="url(#SVGID_64_)"/><path d="m297.758 46.191 6.508-32.396c.307-1.527.164-3.035-.323-4.401-13.582-2.539-27.586-3.875-41.904-3.875-14.587 0-28.851 1.38-42.672 4.012-4.537.864-7.504 5.255-6.594 9.783l6.508 32.396c.075.375.183.733.305 1.085.77.074 1.563.046 2.361-.105 10.708-2.024 21.755-3.087 33.052-3.087 11.296 0 22.344 1.064 33.052 3.087 4.478.846 8.809-2.031 9.707-6.499z" fill="url(#SVGID_65_)"/><path d="m360.423 464.392c-2.191-4.507-6.138-7.264-10.397-7.264h-190.052c-4.259 0-8.205 2.757-10.397 7.264-4.662 9.588-13.058 15.454-22.119 15.454v21.725h255.083v-21.725c-9.06.001-17.456-5.866-22.118-15.454z" fill="url(#SVGID_66_)"/><path d="m394.758 510h-279.516c-3.174 0-5.747-2.573-5.747-5.747v-3.182c0-12.674 10.274-22.948 22.948-22.948h245.115c12.674 0 22.948 10.274 22.948 22.948v3.182c-.001 3.174-2.574 5.747-5.748 5.747z" fill="url(#SVGID_67_)"/></svg>