<?xml version="1.0" encoding="utf-8"?>
<!-- Generator: Adobe Illustrator 22.1.0, SVG Export Plug-In . SVG Version: 6.00 Build 0)  -->
<svg version="1.1" id="Layer_1" xmlns="http://www.w3.org/2000/svg" xmlns:xlink="http://www.w3.org/1999/xlink" x="0px" y="0px"
	 viewBox="0 0 60 60" style="enable-background:new 0 0 60 60;" xml:space="preserve">
<style type="text/css">
	.st0{fill:#C2C2EF;}
	.st1{fill:#E4E3FF;}
	.st2{fill:#D0D0F7;}
	.st3{fill:#A2A2F9;}
	.st4{fill:#7979F7;}
	.st5{fill:#F9B938;}
	.st6{fill:#ECB021;}
	.st7{opacity:0.5;}
	.st8{fill:#FFFFFF;}
	.st9{opacity:0.3;}
</style>
<path class="st0" d="M49.4,5.2L57.1,46c0.3,1.6-0.7,3.1-2.3,3.4L14,57.1c-1.6,0.3-3.1-0.7-3.4-2.3L2.9,14c-0.3-1.6,0.7-3.1,2.3-3.4
	L46,2.9C47.6,2.6,49.1,3.6,49.4,5.2L49.4,5.2z"/>
<path class="st1" d="M53.7,9.2v41.6c0,1.6-1.3,2.9-2.9,2.9H9.2c-1.6,0-2.9-1.3-2.9-2.9V9.2c0-1.6,1.3-2.9,2.9-2.9h41.6
	C52.4,6.3,53.7,7.6,53.7,9.2L53.7,9.2z"/>
<path class="st2" d="M53.7,9.2v41.6c0,1.6-1.3,2.9-2.9,2.9H9.2c-1.4,0-2.5-1-2.8-2.2c0.2,0,0.4,0.1,0.7,0.1h41.6
	c1.6,0,2.9-1.3,2.9-2.9V7c0-0.2,0-0.4-0.1-0.6C52.7,6.7,53.7,7.8,53.7,9.2L53.7,9.2z"/>
<path class="st3" d="M45.4,11.2v5.5c0,0.8-0.6,1.4-1.4,1.4H12.5c-0.8,0-1.4-0.6-1.4-1.4v-5.5c0-0.8,0.6-1.4,1.4-1.4H44
	C44.8,9.8,45.4,10.4,45.4,11.2L45.4,11.2z"/>
<path class="st4" d="M45.4,11.2v5.5c0,0.8-0.6,1.4-1.4,1.4H12.5c-0.8,0-1.4-0.6-1.4-1.4v-0.7h30.7c0.8,0,1.4-0.6,1.4-1.4V9.8H44
	C44.8,9.8,45.4,10.4,45.4,11.2L45.4,11.2z"/>
<path class="st2" d="M43.9,21.8c0,0.5-0.4,0.9-0.9,0.9H26c-0.5,0-0.9-0.4-0.9-0.9c0-0.5,0.4-0.9,0.9-0.9h17
	C43.5,20.9,43.9,21.3,43.9,21.8z"/>
<path class="st2" d="M43.9,27c0,0.5-0.4,0.9-0.9,0.9H26c-0.5,0-0.9-0.4-0.9-0.9c0-0.5,0.4-0.9,0.9-0.9h17
	C43.5,26.1,43.9,26.5,43.9,27z"/>
<path class="st2" d="M31.4,32.2c0,0.5-0.4,0.9-0.9,0.9h-17c-0.5,0-0.9-0.4-0.9-0.9c0-0.5,0.4-0.9,0.9-0.9h17
	C31,31.3,31.4,31.7,31.4,32.2z"/>
<path class="st2" d="M31.4,37.5c0,0.5-0.4,0.9-0.9,0.9h-17c-0.5,0-0.9-0.4-0.9-0.9c0-0.5,0.4-0.9,0.9-0.9h17
	C31,36.5,31.4,37,31.4,37.5z"/>
<path class="st2" d="M31.4,43c0,0.5-0.4,0.9-0.9,0.9h-17c-0.5,0-0.9-0.4-0.9-0.9c0-0.5,0.4-0.9,0.9-0.9h17
	C31,42.1,31.4,42.5,31.4,43z"/>
<path class="st2" d="M31.4,48.2c0,0.5-0.4,0.9-0.9,0.9h-17c-0.5,0-0.9-0.4-0.9-0.9c0-0.5,0.4-0.9,0.9-0.9h17
	C31,47.3,31.4,47.7,31.4,48.2z"/>
<path class="st3" d="M46.5,32.6v15.2c0,0.7-0.6,1.3-1.3,1.3h-9.4c-0.7,0-1.3-0.6-1.3-1.3V32.6c0-0.7,0.6-1.3,1.3-1.3h9.4
	C45.9,31.3,46.5,31.9,46.5,32.6L46.5,32.6z"/>
<path class="st4" d="M46.5,32.6v15.2c0,0.7-0.6,1.3-1.3,1.3h-9.4c-0.7,0-1.3-0.6-1.3-1.3v-0.1h9.3c0.7,0,1.3-0.6,1.3-1.3V31.3h0.1
	C45.9,31.3,46.5,31.9,46.5,32.6L46.5,32.6z"/>
<path class="st5" d="M20.8,22.4v5.2c0,0.8-0.7,1.5-1.5,1.5h-5.2c-0.8,0-1.5-0.7-1.5-1.5v-5.2c0-0.8,0.7-1.5,1.5-1.5h5.2
	C20.1,20.9,20.8,21.6,20.8,22.4z"/>
<path class="st6" d="M20.8,22.4v5.2c0,0.8-0.7,1.5-1.5,1.5h-5.2c-0.8,0-1.5-0.6-1.5-1.4c0,0,0,0,0.1,0h5.2c0.8,0,1.5-0.7,1.5-1.5V21
	c0,0,0,0,0-0.1C20.2,20.9,20.8,21.6,20.8,22.4z"/>
<g class="st7">
	<path class="st8" d="M13.4,8.2c0-0.4,0.3-0.8,0.8-0.8h8.2c0.4,0,0.8,0.3,0.8,0.8c0,0.4-0.3,0.8-0.8,0.8h-8.2
		C13.7,8.9,13.4,8.6,13.4,8.2L13.4,8.2z"/>
	<path class="st8" d="M24.2,8.2c0-0.4,0.3-0.8,0.8-0.8h1.4c0.4,0,0.8,0.3,0.8,0.8c0,0.4-0.3,0.8-0.8,0.8H25
		C24.6,8.9,24.2,8.6,24.2,8.2z"/>
</g>
<g class="st9">
	<path class="st8" d="M12.6,12.4c0-0.4,0.3-0.8,0.8-0.8h8.2c0.4,0,0.8,0.3,0.8,0.8c0,0.4-0.3,0.8-0.8,0.8h-8.2
		C13,13.1,12.6,12.8,12.6,12.4z"/>
	<path class="st8" d="M23.4,12.4c0-0.4,0.3-0.8,0.8-0.8h1.4c0.4,0,0.8,0.3,0.8,0.8c0,0.4-0.3,0.8-0.8,0.8h-1.4
		C23.8,13.1,23.4,12.8,23.4,12.4z"/>
</g>
<g class="st9">
	<path class="st8" d="M35.2,55.1c0-0.3,0.2-0.5,0.5-0.5h5.4c0.3,0,0.5,0.2,0.5,0.5s-0.2,0.5-0.5,0.5h-5.4
		C35.4,55.6,35.2,55.3,35.2,55.1z"/>
	<path class="st8" d="M42.4,55.1c0-0.3,0.2-0.5,0.5-0.5h0.9c0.3,0,0.5,0.2,0.5,0.5s-0.2,0.5-0.5,0.5h-0.9
		C42.6,55.6,42.4,55.3,42.4,55.1z"/>
</g>
<g class="st7">
	<path class="st8" d="M8.5,16.6c0.5,0,1,0.4,1,1v10.6c0,0.5-0.4,1-1,1c-0.5,0-1-0.4-1-1V17.5C7.5,17,7.9,16.6,8.5,16.6z"/>
	<path class="st8" d="M8.5,30.5c0.5,0,1,0.4,1,1v1.8c0,0.5-0.4,1-1,1c-0.5,0-1-0.4-1-1v-1.8C7.5,31,7.9,30.5,8.5,30.5z"/>
</g>
</svg>
