<?xml version="1.0" encoding="utf-8"?>
<!-- Generator: Adobe Illustrator 22.1.0, SVG Export Plug-In . SVG Version: 6.00 Build 0)  -->
<svg version="1.1" id="Layer_1" xmlns="http://www.w3.org/2000/svg" xmlns:xlink="http://www.w3.org/1999/xlink" x="0px" y="0px"
	 viewBox="0 0 60 60" style="enable-background:new 0 0 60 60;" xml:space="preserve">
<style type="text/css">
	.st0{clip-path:url(#SVGID_2_);}
	.st1{fill:#4278C3;}
	.st2{fill:#335995;}
	.st3{fill:#95D6A4;}
	.st4{fill:#78C2A4;}
	.st5{fill:#FFD064;}
	.st6{fill:#FFC250;}
	.st7{fill:#FFF0AF;}
	.st8{fill:#FFE07D;}
	.st9{fill:#DD5790;}
	.st10{fill:#DA387D;}
</style>
<g>
	<defs>
		<rect id="SVGID_1_" width="60" height="60"/>
	</defs>
	<clipPath id="SVGID_2_">
		<use xlink:href="#SVGID_1_"  style="overflow:visible;"/>
	</clipPath>
	<g class="st0">
		<path class="st1" d="M26.1,4.8c0,1.4-1.8,4.5-2.8,6.2c-0.3,0.5-1,0.5-1.3,0c-1-1.7-2.8-4.9-2.8-6.2c0-1.9,1.5-3.4,3.4-3.4
			C24.5,1.4,26.1,3,26.1,4.8z"/>
		<path class="st2" d="M22.7,1.4c-0.8,0-1.5,0.3-2.1,0.7c1.2,0.2,2.2,1.1,2.6,2.3c0.4,1.3-0.3,4.9-0.8,6.8c0,0,0,0.1,0,0.1
			c0.3,0.2,0.8,0.1,1-0.3c1-1.7,2.8-4.9,2.8-6.2C26.1,3,24.5,1.4,22.7,1.4L22.7,1.4z"/>
		<path class="st1" d="M30.5,10c-1,1-4.5,2-6.4,2.5c-0.6,0.1-1.1-0.4-0.9-0.9c0.5-1.9,1.5-5.4,2.5-6.4c1.3-1.3,3.5-1.3,4.8,0
			C31.8,6.5,31.8,8.6,30.5,10z"/>
		<path class="st1" d="M14.9,10c1,1,4.5,2,6.4,2.5c0.6,0.1,1.1-0.4,0.9-0.9c-0.5-1.9-1.5-5.4-2.5-6.4c-1.3-1.3-3.5-1.3-4.8,0
			C13.5,6.5,13.5,8.6,14.9,10L14.9,10z"/>
		<path class="st2" d="M30.5,5.1C30,4.7,29.5,4.4,29,4.3c0.4,0.9,0.3,2-0.2,2.9c-0.6,1.2-3.7,3.2-5.4,4.2c-0.1,0.1-0.2,0.1-0.3,0.1
			c0,0,0,0,0,0c-0.1,0.6,0.4,1.1,0.9,0.9c1.9-0.5,5.4-1.5,6.4-2.5C31.8,8.6,31.8,6.5,30.5,5.1L30.5,5.1z"/>
		<path class="st2" d="M22.1,11.5c-0.5-1.9-1.5-5.4-2.5-6.4c-1.3-1.3-3.5-1.3-4.8,0c-0.2,0.2-0.4,0.4-0.5,0.7c0.7-0.1,1.4,0.1,2,0.4
			c1.2,0.7,3.1,3.7,4.1,5.4c0.1,0.2,0.1,0.4,0.1,0.6c0.2,0.1,0.5,0.1,0.7,0.2C21.8,12.6,22.3,12.1,22.1,11.5L22.1,11.5z"/>
		<path class="st3" d="M41,37.4H4.3c-0.6,0-1.2-0.5-1.2-1.2v-9.6L3.8,24l-0.7-2.7v-9.7c0-0.6,0.5-1.2,1.2-1.2H20l2.7,1.8l2.7-1.8H41
			c0.6,0,1.2,0.5,1.2,1.2v9.7l-0.7,1.4l0.7,1.3v12.3C42.2,36.9,41.7,37.4,41,37.4L41,37.4z"/>
		<path class="st4" d="M41,10.4h-3.4v21.2c0,0.7-0.5,1.2-1.2,1.2H3.1v3.4c0,0.6,0.5,1.2,1.2,1.2H41c0.6,0,1.2-0.5,1.2-1.2V24
			l-0.7-1.3l0.7-1.4v-9.7C42.2,11,41.7,10.4,41,10.4z"/>
		<path class="st1" d="M42.2,21.3v5.4H3.1v-5.4H42.2z"/>
		<path class="st1" d="M25.4,37.4H20v-27h5.4V37.4z"/>
		<path class="st5" d="M16.1,50.7c7.9,0,14.3-6.4,14.3-14.3c0-7.9-6.4-14.3-14.3-14.3c-7.9,0-14.3,6.4-14.3,14.3
			C1.8,44.4,8.2,50.7,16.1,50.7z"/>
		<path class="st6" d="M23.9,24.6c1.5,2.2,2.3,4.9,2.3,7.8c0,7.9-6.4,14.3-14.3,14.3c-2.9,0-5.6-0.9-7.8-2.3
			c2.6,3.9,6.9,6.4,11.9,6.4c7.9,0,14.3-6.4,14.3-14.3C30.3,31.5,27.8,27.1,23.9,24.6L23.9,24.6z"/>
		<path class="st7" d="M16.1,52.5C7.2,52.5,0,45.3,0,36.5c0-8.9,7.2-16.1,16.1-16.1c8.9,0,16.1,7.2,16.1,16.1
			C32.1,45.3,24.9,52.5,16.1,52.5z M16.1,24C9.2,24,3.6,29.6,3.6,36.5C3.6,43.4,9.2,49,16.1,49c6.9,0,12.5-5.6,12.5-12.5
			C28.5,29.6,22.9,24,16.1,24z"/>
		<path class="st8" d="M26.3,24.1c2.3,2.8,3.7,6.4,3.7,10.3c0,8.9-7.2,16.1-16.1,16.1c-3.9,0-7.5-1.4-10.3-3.7
			c2.9,3.5,7.4,5.8,12.3,5.8c8.9,0,16.1-7.2,16.1-16.1C32.1,31.5,29.9,27.1,26.3,24.1L26.3,24.1z"/>
		<path class="st9" d="M15.9,43.3c-1.4,0-2.3-0.1-3.7-1c-0.4-0.3-0.5-0.8-0.3-1.2c0.3-0.4,0.8-0.5,1.2-0.3c1.1,0.7,1.6,0.8,2.8,0.8
			c1.5,0,2.4-1.1,2.6-2.2c0.1-0.4,0.2-1.8-1.5-2.4c-1.9-0.7-3-1.2-3.8-1.8c-0.9-0.7-1.3-1.9-1.1-3.2c0.3-1.4,1.2-2.5,2.5-2.9
			c2.7-0.8,4.4,0.8,4.5,0.9c0.4,0.3,0.4,0.9,0.1,1.3c-0.3,0.4-0.9,0.4-1.3,0.1c-0.1-0.1-1.1-1-2.8-0.5c-0.8,0.2-1.1,0.9-1.3,1.5
			c-0.1,0.6,0,1.1,0.4,1.4c0.8,0.6,2.1,1.1,3.3,1.6c1.9,0.7,3,2.4,2.7,4.4c-0.3,1.8-1.8,3.7-4.3,3.7C16,43.3,15.9,43.3,15.9,43.3
			L15.9,43.3z"/>
		<path class="st9" d="M16,45.1c-0.5,0-0.9-0.4-0.9-0.9V28c0-0.5,0.4-0.9,0.9-0.9c0.5,0,0.9,0.4,0.9,0.9v16.3
			C16.9,44.7,16.5,45.1,16,45.1z"/>
		<path class="st2" d="M37.6,21.3h4.6v5.4h-4.6V21.3z"/>
		<path class="st9" d="M59.6,35.3L36.8,58.2c-0.6,0.6-1.7,0.4-2-0.4L31.6,49c-0.1-0.3-0.4-0.6-0.7-0.7l-8.7-3.2
			c-0.8-0.3-1-1.3-0.4-2l22.9-22.9c0.6-0.6,1.7-0.4,2,0.4l3.2,8.7c0.1,0.3,0.4,0.6,0.7,0.7l8.7,3.2C60,33.7,60.3,34.7,59.6,35.3
			L59.6,35.3z"/>
		<path class="st10" d="M59.2,33.4l-8.7-3.2c-0.3-0.1-0.6-0.4-0.7-0.7l-3.2-8.7c-0.3-0.8-1.3-1-2-0.4L41,23.8l2.3,6.3
			c0.1,0.3,0.4,0.6,0.7,0.7l8.7,3.2c0.8,0.3,1,1.3,0.4,2L33.9,55.3l0.9,2.5c0.3,0.8,1.3,1,2,0.4l22.9-22.9
			C60.3,34.7,60,33.7,59.2,33.4L59.2,33.4z"/>
		<path class="st7" d="M43,46.8c-0.4,0-0.7-0.2-0.8-0.6L37,33.6c-0.2-0.5,0-1,0.5-1.2c0.5-0.2,1,0,1.2,0.5l5.2,12.6
			c0.2,0.5,0,1-0.5,1.2C43.2,46.8,43.1,46.8,43,46.8L43,46.8z"/>
		<path class="st7" d="M35.3,42.6c-0.1,0-0.2,0-0.3,0c-0.9-0.1-1.7-0.5-2.4-1.1c-0.7-0.7-1.1-1.5-1.1-2.4c-0.1-0.9,0.2-1.8,0.9-2.4
			c0.6-0.6,1.5-0.9,2.4-0.9c0.9,0.1,1.7,0.5,2.4,1.1s1.1,1.5,1.1,2.4c0.1,0.9-0.2,1.8-0.9,2.4C36.9,42.3,36.1,42.6,35.3,42.6z
			 M34.5,37.6c-0.4,0-0.7,0.1-0.9,0.3c-0.3,0.3-0.4,0.6-0.3,1c0,0.5,0.3,0.9,0.6,1.3c0.4,0.4,0.8,0.6,1.3,0.6c0.4,0,0.8-0.1,1-0.3
			c0.3-0.3,0.4-0.6,0.3-1c0-0.5-0.3-0.9-0.6-1.3c0,0,0,0,0,0c-0.4-0.4-0.8-0.6-1.3-0.6C34.6,37.6,34.6,37.6,34.5,37.6L34.5,37.6z"/>
		<path class="st7" d="M46.4,43.7c-0.1,0-0.2,0-0.3,0c-0.9-0.1-1.7-0.5-2.4-1.1c-1.4-1.4-1.5-3.6-0.3-4.8c1.3-1.3,3.4-1.1,4.8,0.3h0
			c1.4,1.4,1.5,3.6,0.3,4.8C48,43.4,47.2,43.7,46.4,43.7L46.4,43.7z M45.6,38.6c-0.3,0-0.7,0.1-0.9,0.4c-0.6,0.6-0.4,1.6,0.3,2.3
			c0.4,0.4,0.8,0.6,1.3,0.6c0.4,0,0.8-0.1,1-0.3c0.6-0.6,0.4-1.6-0.3-2.3C46.6,38.8,46.1,38.6,45.6,38.6L45.6,38.6z"/>
	</g>
</g>
</svg>
