<svg width="60" height="60" viewBox="0 0 60 60" fill="none" xmlns="http://www.w3.org/2000/svg">
<g clip-path="url(#clip0_939_1117)">
<path d="M54.0806 15.2957H56.8229V36.7861H54.0806V15.2957Z" fill="url(#paint0_linear_939_1117)"/>
<path d="M54.0806 18.1122L56.8229 20.8546V15.2957H54.0806V18.1122Z" fill="url(#paint1_linear_939_1117)"/>
<path d="M55.4518 18.3124C57.9637 18.3124 60 16.2761 60 13.7642C60 11.2523 57.9637 9.21594 55.4518 9.21594C52.9398 9.21594 50.9035 11.2523 50.9035 13.7642C50.9035 16.2761 52.9398 18.3124 55.4518 18.3124Z" fill="url(#paint2_linear_939_1117)"/>
<path d="M55.4518 17.5601C57.5482 17.5601 59.2476 15.8607 59.2476 13.7643C59.2476 11.6679 57.5482 9.96838 55.4518 9.96838C53.3554 9.96838 51.6559 11.6679 51.6559 13.7643C51.6559 15.8607 53.3554 17.5601 55.4518 17.5601Z" fill="url(#paint3_linear_939_1117)"/>
<path d="M57.4864 9.69568C57.7931 10.3079 57.966 10.9989 57.966 11.7303C57.966 14.2421 55.9297 16.2785 53.4178 16.2785C52.6864 16.2785 51.9954 16.1056 51.3832 15.7989C52.13 17.2893 53.6713 18.3125 55.4518 18.3125C57.9638 18.3125 60 16.2761 60 13.7643C60 11.9838 58.9767 10.4424 57.4864 9.69568V9.69568Z" fill="url(#paint4_linear_939_1117)"/>
<path d="M54.9488 40.7013H52.8985V33.3391H54.9488C56.2134 33.3391 57.2386 34.3643 57.2386 35.6289V38.4116C57.2386 39.6762 56.2134 40.7013 54.9488 40.7013V40.7013Z" fill="url(#paint5_linear_939_1117)"/>
<path d="M53.7108 33.3391H52.8985V40.7013H54.9488C56.2134 40.7013 57.2386 39.6762 57.2386 38.4116V36.8669L53.7108 33.3391Z" fill="url(#paint6_linear_939_1117)"/>
<path d="M51.5853 42.5957H47.1513V31.4445H51.5853C52.7671 31.4445 53.7252 32.4025 53.7252 33.5843V40.4559C53.7252 41.6378 52.7672 42.5957 51.5853 42.5957V42.5957Z" fill="url(#paint7_linear_939_1117)"/>
<path d="M49.3974 31.4793L49.4487 31.4445H47.1514V42.5957H51.5854C52.7672 42.5957 53.7253 41.6378 53.7253 40.4559V35.807L49.3974 31.4793Z" fill="url(#paint8_linear_939_1117)"/>
<path d="M30.646 19.1678H18.7549V15.1615C18.7549 11.8778 21.4168 9.21594 24.7006 9.21594C27.9842 9.21594 30.6461 11.8778 30.6461 15.1615V19.1678H30.646Z" fill="url(#paint9_linear_939_1117)"/>
<path d="M27.4222 9.87532C26.3174 9.30556 25.0219 9.30556 23.9171 9.87532C22.0025 10.8626 20.6932 12.8589 20.6932 15.1616V19.1679H30.6461V15.1616C30.646 12.8589 29.3368 10.8627 27.4222 9.87532V9.87532Z" fill="url(#paint10_linear_939_1117)"/>
<path d="M24.7005 9.21594C24.2866 9.21594 23.8826 9.25841 23.4926 9.339C26.1971 9.89712 28.2303 12.2918 28.2303 15.1616V19.1679H30.646V15.1616C30.646 11.8778 27.9841 9.21594 24.7005 9.21594V9.21594Z" fill="url(#paint11_linear_939_1117)"/>
<path d="M24.7005 15.6567C26.9938 15.6567 28.8528 14.3131 28.8528 12.6557C28.8528 10.9984 26.9938 9.65479 24.7005 9.65479C22.4072 9.65479 20.5481 10.9984 20.5481 12.6557C20.5481 14.3131 22.4072 15.6567 24.7005 15.6567Z" fill="url(#paint12_linear_939_1117)"/>
<path d="M32.5842 20.3561H16.8167V17.1175C16.8167 16.109 17.6342 15.2915 18.6427 15.2915H30.7582C31.7667 15.2915 32.5842 16.109 32.5842 17.1175V20.3561Z" fill="url(#paint13_linear_939_1117)"/>
<path d="M32.5842 20.3561V17.1175C32.5842 16.7386 32.4687 16.3867 32.2712 16.0949C32.0311 15.9787 31.7627 15.9117 31.478 15.9117H19.3625C18.354 15.9117 17.5365 16.7293 17.5365 17.7377V20.3561H32.5842Z" fill="url(#paint14_linear_939_1117)"/>
<path d="M44.0777 55.9314H5.32331C3.62566 55.9314 2.24954 54.5552 2.24954 52.8576V21.1827C2.24954 19.485 3.62566 18.1089 5.32331 18.1089H44.0777C45.7752 18.1089 47.1514 19.485 47.1514 21.1827V52.8576C47.1514 54.5551 45.7752 55.9314 44.0777 55.9314Z" fill="url(#paint15_linear_939_1117)"/>
<path d="M33.3887 23.1608H16.0122C15.2134 23.1608 14.5658 22.5131 14.5658 21.7143C14.5658 20.9155 15.2134 20.2678 16.0122 20.2678H33.3887C34.1875 20.2678 34.8352 20.9155 34.8352 21.7143C34.8352 22.5132 34.1875 23.1608 33.3887 23.1608Z" fill="url(#paint16_linear_939_1117)"/>
<path d="M6.62693 19.4126C4.9294 19.4126 3.55316 20.7887 3.55316 22.4864V54.1613C3.55316 54.6744 3.67951 55.1575 3.90175 55.5828C4.32693 55.8051 4.81022 55.9314 5.32328 55.9314H44.0776C45.7752 55.9314 47.1514 54.5553 47.1514 52.8577V21.1827C47.1514 20.6697 47.025 20.1865 46.8028 19.7612C46.3776 19.539 45.8943 19.4126 45.3813 19.4126H6.62693Z" fill="url(#paint17_linear_939_1117)"/>
<path d="M2.25012 47.0121V48.6058L9.57612 55.9318H44.0781C45.7746 55.9318 47.1507 54.5557 47.1507 52.858V47.0121H2.25012Z" fill="url(#paint18_linear_939_1117)"/>
<path d="M0 27.7619V46.2786C0 47.4308 0.847882 48.4091 1.98882 48.5692C17.0969 50.6898 32.304 50.6899 47.4122 48.5692C48.5531 48.4091 49.4011 47.4306 49.4011 46.2786C49.4011 40.1064 49.4011 33.9342 49.4011 27.7619C49.4011 26.6098 48.5532 25.6315 47.4122 25.4713C32.3041 23.3508 17.0969 23.3506 1.98882 25.4713C0.847882 25.6315 0 26.6098 0 27.7619H0Z" fill="url(#paint19_linear_939_1117)"/>
<path d="M3.04363 26.3503C1.90281 26.5104 1.05481 27.4889 1.05481 28.6409V47.1576C1.05481 47.6189 1.19246 48.051 1.42869 48.4152C1.60504 48.4882 1.7921 48.5416 1.98869 48.5691C17.0968 50.6897 32.3039 50.6898 47.4121 48.5691C48.5529 48.409 49.4009 47.4305 49.4009 46.2785C49.4009 40.1063 49.4009 33.9341 49.4009 27.7618C49.4009 27.3005 49.2633 26.8684 49.027 26.5042C48.8507 26.4312 48.6636 26.3778 48.467 26.3503C33.3589 24.2296 18.1518 24.2296 3.04363 26.3503V26.3503Z" fill="url(#paint20_linear_939_1117)"/>
<path d="M15.2886 28.8642V45.1761C15.2886 45.5896 14.8853 45.9189 14.4082 45.8923C11.0445 45.7048 7.68153 45.4255 4.33894 45.0573C3.92541 45.0118 3.616 44.706 3.616 44.3454V29.6951C3.616 29.3343 3.92541 29.0287 4.33894 28.9832C7.68153 28.6149 11.0445 28.3356 14.4082 28.1481C14.8853 28.1215 15.2886 28.4507 15.2886 28.8642Z" fill="url(#paint21_linear_939_1117)"/>
<path d="M30.5368 28.6474V45.3929C30.5368 45.7795 30.1825 46.0979 29.736 46.1102C28.0545 46.1571 26.3753 46.18 24.7019 46.18C24.7006 46.18 24.7006 46.18 24.7006 46.18C23.026 46.18 21.3467 46.1569 19.6652 46.1102C19.2186 46.0978 18.8643 45.7795 18.8643 45.3929V28.6474C18.8643 28.2608 19.2187 27.9425 19.6652 27.9301C21.3468 27.8833 23.0261 27.8604 24.7006 27.8604C26.3752 27.8604 28.0545 27.8834 29.736 27.9301C30.1825 27.9425 30.5368 28.2608 30.5368 28.6474Z" fill="url(#paint22_linear_939_1117)"/>
<path d="M45.785 29.695V44.3453C45.785 44.706 45.4755 45.0116 45.062 45.0572C41.7194 45.4254 38.3565 45.7047 34.9927 45.8922C34.5158 45.9188 34.1124 45.5896 34.1124 45.176V28.8642C34.1124 28.4507 34.5157 28.1214 34.9927 28.148C38.3565 28.3355 41.7194 28.6148 45.062 28.983C45.4755 29.0287 45.785 29.3343 45.785 29.695Z" fill="url(#paint23_linear_939_1117)"/>
<path d="M15.2886 28.8645V32.6839C11.3939 32.9086 7.50176 33.275 3.616 33.7817V29.6956C3.616 29.3343 3.92494 29.0292 4.33847 28.9832C7.68164 28.6156 11.0441 28.336 14.4078 28.1484C14.8853 28.1216 15.2886 28.4509 15.2886 28.8645V28.8645Z" fill="url(#paint24_linear_939_1117)"/>
<path d="M30.5368 28.6474V32.5166C26.6472 32.3761 22.7538 32.3761 18.8642 32.5166V28.6474C18.8642 28.2606 19.2191 27.9428 19.6646 27.93C21.3471 27.8827 23.0256 27.8597 24.7005 27.8597C26.3753 27.8597 28.0539 27.8827 29.7363 27.93C30.1819 27.9428 30.5368 28.2606 30.5368 28.6474V28.6474Z" fill="url(#paint25_linear_939_1117)"/>
<path d="M45.785 29.6954V33.7816C41.8992 33.2747 38.0071 32.9084 34.1124 32.6838V28.8644C34.1124 28.4507 34.5158 28.1214 34.9932 28.1483C38.3568 28.3359 41.7192 28.6154 45.0625 28.9831C45.476 29.0291 45.785 29.3343 45.785 29.6954V29.6954Z" fill="url(#paint26_linear_939_1117)"/>
<path d="M15.2886 45.1761V32.5361L13.7223 30.9699C13.6556 30.8783 13.5606 30.7905 13.4349 30.7067C13.167 30.5281 12.8961 30.4388 12.6223 30.4388H6.28222C5.97245 30.4388 5.69281 30.5281 5.44281 30.7067C5.19281 30.8853 5.06775 31.0818 5.06775 31.296V34.0644C5.06775 34.2746 5.17234 34.4567 5.38081 34.6112L8.7941 38.0258L6.65716 41.7263C6.57375 41.8812 6.53222 42.036 6.53222 42.1906C6.53222 42.5551 6.69034 42.8677 7.00293 43.1297L9.4201 45.5468C11.081 45.6841 12.7446 45.7995 14.4082 45.8923C14.8853 45.919 15.2886 45.5897 15.2886 45.1761V45.1761Z" fill="url(#paint27_linear_939_1117)"/>
<path d="M5.06775 34.0644V31.296C5.06775 31.0818 5.19269 30.8852 5.44281 30.7067C5.69293 30.5281 5.97245 30.4388 6.28222 30.4388H12.6225C12.8962 30.4388 13.1672 30.5281 13.435 30.7067C13.703 30.8853 13.8369 31.0818 13.8369 31.296V33.5285C13.8369 33.9454 13.6463 34.5108 13.2654 35.2252L9.0861 43.2264C8.95493 43.4764 8.69316 43.6014 8.30022 43.6014C7.84763 43.6014 7.43998 43.4647 7.07693 43.1906C6.71351 42.9168 6.53222 42.5834 6.53222 42.1905C6.53222 42.0359 6.57375 41.881 6.65716 41.7261L11.0507 34.1178V32.8677H7.85387V34.0643C7.85387 34.3026 7.71093 34.505 7.42516 34.6714C7.1394 34.8384 6.81175 34.9215 6.44293 34.9215C6.06175 34.9215 5.73751 34.8384 5.46951 34.6714C5.20163 34.5051 5.06775 34.3027 5.06775 34.0644V34.0644Z" fill="url(#paint28_linear_939_1117)"/>
<path d="M8.30036 43.1909C7.93589 43.1909 7.61672 43.0836 7.32436 42.863C6.98236 42.6054 6.94295 42.356 6.94295 42.1907C6.94295 42.1055 6.96695 42.0188 7.01625 41.9257L11.4614 34.228V32.4571H7.44319V34.0643C7.44319 34.1449 7.36754 34.2298 7.21836 34.3168C6.99448 34.4475 6.74095 34.511 6.44283 34.511C6.13695 34.511 5.88966 34.4495 5.6866 34.323C5.47836 34.1935 5.47836 34.0997 5.47836 34.0643V31.296C5.47836 31.2001 5.60554 31.0949 5.68142 31.0408C5.86177 30.912 6.05836 30.8494 6.28225 30.8494H12.6225C12.8152 30.8494 13.0065 30.9144 13.2073 31.0483C13.3445 31.1397 13.4264 31.2323 13.4264 31.296V33.5284C13.4264 33.7667 13.3355 34.2208 12.9032 35.032L8.72236 43.0363C8.70236 43.0741 8.64119 43.1909 8.30036 43.1909V43.1909Z" fill="url(#paint29_linear_939_1117)"/>
<path d="M30.5368 32.5358V45.3929C30.5368 45.7798 30.1819 46.0975 29.7365 46.1103C28.2545 46.1525 26.7749 46.1742 25.3006 46.1793L22.2649 43.1436L22.2509 43.1296C21.9382 42.868 21.7799 42.5552 21.7799 42.1901C21.7799 42.0356 21.822 41.8812 21.9049 41.7267L24.0419 38.026L20.6285 34.6113C20.4204 34.4568 20.3158 34.2742 20.3158 34.0636V31.2961C20.3158 31.0816 20.4408 30.8851 20.6911 30.7063C20.9413 30.5276 21.2208 30.4382 21.5311 30.4382H27.8704C28.1448 30.4382 28.4154 30.5276 28.6835 30.7063C28.8086 30.7906 28.9044 30.8787 28.9707 30.9693L30.5368 32.5358Z" fill="url(#paint30_linear_939_1117)"/>
<path d="M30.5368 32.5358V45.393C30.5368 45.7798 30.1819 46.0976 29.7365 46.1104C28.2545 46.1525 26.775 46.1743 25.3006 46.1793L22.265 43.1437C22.2841 43.159 22.3045 43.1756 22.325 43.191C22.6887 43.4655 23.096 43.602 23.5492 43.602C23.9411 43.602 24.2027 43.477 24.3342 43.2268L28.5137 35.2255C28.8941 34.5106 29.0855 33.9451 29.0855 33.529V31.2963C29.0855 31.1839 29.0485 31.0755 28.9732 30.972L30.5368 32.5358Z" fill="url(#paint31_linear_939_1117)"/>
<path d="M20.3159 34.0644V31.296C20.3159 31.0818 20.4408 30.8852 20.6909 30.7067C20.9411 30.5281 21.2206 30.4388 21.5304 30.4388H27.8706C28.1444 30.4388 28.4153 30.5281 28.6832 30.7067C28.9511 30.8853 29.0851 31.0818 29.0851 31.296V33.5285C29.0851 33.9454 28.8945 34.5108 28.5135 35.2252L24.3344 43.2264C24.2032 43.4764 23.9414 43.6014 23.5485 43.6014C23.0958 43.6014 22.6881 43.4647 22.3251 43.1906C21.9617 42.9168 21.7804 42.5834 21.7804 42.1905C21.7804 42.0359 21.8219 41.881 21.9053 41.7261L26.2988 34.1178V32.8677H23.1019V34.0643C23.1019 34.3026 22.9589 34.505 22.6732 34.6714C22.3874 34.8384 22.0598 34.9215 21.6909 34.9215C21.3098 34.9215 20.9855 34.8384 20.7175 34.6714C20.4498 34.5051 20.3159 34.3027 20.3159 34.0644Z" fill="url(#paint32_linear_939_1117)"/>
<path d="M23.5485 43.1909C23.184 43.1909 22.8648 43.0836 22.5725 42.863C22.2305 42.6054 22.1909 42.356 22.1909 42.1907C22.1909 42.1055 22.2149 42.0188 22.2642 41.9257L26.7094 34.228V32.4571H22.6913V34.0643C22.6913 34.1449 22.6156 34.2298 22.4665 34.3168C22.2426 34.4475 21.9891 34.511 21.6909 34.511C21.3851 34.511 21.1378 34.4495 20.9347 34.323C20.7265 34.1935 20.7265 34.0997 20.7265 34.0643V31.296C20.7265 31.2001 20.8536 31.0949 20.9295 31.0408C21.1099 30.912 21.3065 30.8494 21.5304 30.8494H27.8706C28.0633 30.8494 28.2546 30.9144 28.4554 31.0483C28.5926 31.1397 28.6745 31.2323 28.6745 31.296V33.5284C28.6745 33.7667 28.5836 34.2208 28.1513 35.032L23.9705 43.0363C23.9506 43.0741 23.8893 43.1909 23.5485 43.1909V43.1909Z" fill="url(#paint33_linear_939_1117)"/>
<path d="M45.7849 32.5358V44.3449C45.7849 44.7062 45.476 45.0113 45.0625 45.0573C43.3621 45.2449 41.6541 45.4083 39.9461 45.55C39.9448 45.55 39.9448 45.55 39.9435 45.55C39.9346 45.5487 39.9256 45.5487 39.9167 45.5474L37.4989 43.1296C37.1862 42.868 37.0279 42.5552 37.0279 42.1901C37.0279 42.0356 37.07 41.8812 37.1529 41.7267L39.2899 38.026L35.8765 34.6113C35.6683 34.4568 35.5638 34.2742 35.5638 34.0636V31.2961C35.5638 31.0816 35.6888 30.8851 35.939 30.7063C36.1893 30.5276 36.4688 30.4382 36.779 30.4382H43.1183C43.3928 30.4382 43.6634 30.5276 43.9315 30.7063C44.0566 30.7906 44.1523 30.8787 44.2187 30.9693L45.7849 32.5358Z" fill="url(#paint34_linear_939_1117)"/>
<path d="M45.7849 32.5358V44.345C45.7849 44.7063 45.476 45.0113 45.0625 45.0573C43.3608 45.245 41.6528 45.4084 39.9437 45.55C39.9347 45.5488 39.9258 45.5488 39.9168 45.5475L37.5131 43.1437C37.5322 43.159 37.5526 43.1756 37.5731 43.191C37.9368 43.4655 38.3441 43.602 38.7973 43.602C39.1892 43.602 39.4508 43.477 39.5824 43.2268L43.7618 35.2255C44.1421 34.5106 44.3337 33.9451 44.3337 33.529V31.2963C44.3337 31.1839 44.2966 31.0755 44.2213 30.972L45.7849 32.5358Z" fill="url(#paint35_linear_939_1117)"/>
<path d="M35.564 34.0644V31.296C35.564 31.0818 35.6889 30.8852 35.9391 30.7067C36.1892 30.5281 36.4687 30.4388 36.7785 30.4388H43.1187C43.3925 30.4388 43.6634 30.5281 43.9313 30.7067C44.1992 30.8853 44.3332 31.0818 44.3332 31.296V33.5285C44.3332 33.9454 44.1426 34.5108 43.7616 35.2252L39.5825 43.2264C39.4513 43.4764 39.1895 43.6014 38.7966 43.6014C38.3439 43.6014 37.9362 43.4647 37.5733 43.1906C37.2099 42.9168 37.0286 42.5834 37.0286 42.1905C37.0286 42.0359 37.0701 41.881 37.1535 41.7261L41.5471 34.1178V32.8677H38.3501V34.0643C38.3501 34.3026 38.2072 34.505 37.9214 34.6714C37.6356 34.8384 37.308 34.9215 36.9392 34.9215C36.558 34.9215 36.2338 34.8384 35.9658 34.6714C35.698 34.5051 35.564 34.3027 35.564 34.0644V34.0644Z" fill="url(#paint36_linear_939_1117)"/>
<path d="M38.7966 43.1909C38.4321 43.1909 38.1129 43.0836 37.8206 42.863C37.4786 42.6054 37.4392 42.356 37.4392 42.1907C37.4392 42.1055 37.4632 42.0188 37.5125 41.9257L41.9576 34.228V32.4571H37.9395V34.0643C37.9395 34.1449 37.8639 34.2298 37.7147 34.3168C37.4909 34.4475 37.2373 34.511 36.9392 34.511C36.6333 34.511 36.386 34.4495 36.1829 34.323C35.9747 34.1935 35.9747 34.0997 35.9747 34.0643V31.296C35.9747 31.2001 36.1019 31.0949 36.1778 31.0408C36.3581 30.912 36.5547 30.8494 36.7786 30.8494H43.1188C43.3115 30.8494 43.5028 30.9144 43.7035 31.0483C43.8407 31.1397 43.9226 31.2323 43.9226 31.296V33.5284C43.9226 33.7667 43.8318 34.2208 43.3994 35.032L39.2186 43.0363C39.1987 43.0741 39.1375 43.1909 38.7966 43.1909V43.1909Z" fill="url(#paint37_linear_939_1117)"/>
<path d="M15.2886 32.5358V45.176C15.2886 45.5896 14.8852 45.919 14.4078 45.8922C12.7445 45.8003 11.0812 45.684 9.42034 45.5475L7.01669 43.1437C7.03587 43.159 7.05622 43.1756 7.07669 43.191C7.44046 43.4655 7.84775 43.602 8.30093 43.602C8.69281 43.602 8.95458 43.477 9.08599 43.2268L13.2654 35.2255C13.6458 34.5106 13.8373 33.9451 13.8373 33.529V31.2963C13.8373 31.1839 13.8002 31.0755 13.7249 30.972L15.2886 32.5358Z" fill="url(#paint38_linear_939_1117)"/>
<path d="M25.6199 6.90188V4.98753C25.6199 4.47976 25.2082 4.06812 24.7005 4.06812C24.1927 4.06812 23.7811 4.47976 23.7811 4.98753V6.90188C23.7811 7.40976 24.1927 7.82129 24.7005 7.82129C25.2082 7.82129 25.6199 7.40976 25.6199 6.90188Z" fill="url(#paint39_linear_939_1117)"/>
<path d="M32.1074 13.9509H34.0218C34.5295 13.9509 34.9412 13.5392 34.9412 13.0315C34.9412 12.5237 34.5295 12.1121 34.0218 12.1121H32.1074C31.5996 12.1121 31.188 12.5237 31.188 13.0315C31.1879 13.5392 31.5996 13.9509 32.1074 13.9509Z" fill="url(#paint40_linear_939_1117)"/>
<path d="M15.3792 13.9509H17.2937C17.8014 13.9509 18.2131 13.5392 18.2131 13.0315C18.2131 12.5237 17.8014 12.1121 17.2937 12.1121H15.3792C14.8714 12.1121 14.4598 12.5237 14.4598 13.0315C14.4597 13.5392 14.8713 13.9509 15.3792 13.9509Z" fill="url(#paint41_linear_939_1117)"/>
<path d="M30.4366 9.36214L31.7902 8.00849C32.1493 7.64944 32.1493 7.06732 31.7902 6.70826C31.4312 6.3492 30.8491 6.3492 30.4899 6.70826L29.1362 8.06191C28.7772 8.42096 28.7772 9.00308 29.1362 9.36226C29.4953 9.7212 30.0775 9.7212 30.4366 9.36214Z" fill="url(#paint42_linear_939_1117)"/>
<path d="M17.6107 8.00837L18.9643 9.36201C19.3234 9.72107 19.9055 9.72107 20.2646 9.36201C20.6236 9.00296 20.6236 8.42072 20.2646 8.06166L18.9109 6.70801C18.5519 6.34896 17.9698 6.34896 17.6106 6.70801C17.2516 7.06719 17.2515 7.64931 17.6107 8.00837Z" fill="url(#paint43_linear_939_1117)"/>
</g>
<defs>
<linearGradient id="paint0_linear_939_1117" x1="54.434" y1="26.0409" x2="56.7487" y2="26.0409" gradientUnits="userSpaceOnUse">
<stop stop-color="#E4F2FF"/>
<stop offset="1" stop-color="#B2CBFF"/>
</linearGradient>
<linearGradient id="paint1_linear_939_1117" x1="59.1007" y1="20.3774" x2="53.1057" y2="14.3421" gradientUnits="userSpaceOnUse">
<stop stop-color="#3F3CED" stop-opacity="0"/>
<stop offset="0.2796" stop-color="#3C3DE4" stop-opacity="0.28"/>
<stop offset="0.7305" stop-color="#3541CC" stop-opacity="0.731"/>
<stop offset="1" stop-color="#2F43BB"/>
</linearGradient>
<linearGradient id="paint2_linear_939_1117" x1="53.75" y1="12.0624" x2="59.6407" y2="17.9532" gradientUnits="userSpaceOnUse">
<stop stop-color="#91F27F"/>
<stop offset="1" stop-color="#00B302"/>
</linearGradient>
<linearGradient id="paint3_linear_939_1117" x1="55.9048" y1="14.2173" x2="51.7888" y2="10.1013" gradientUnits="userSpaceOnUse">
<stop stop-color="#91F27F" stop-opacity="0"/>
<stop offset="1" stop-color="#FFED82"/>
</linearGradient>
<linearGradient id="paint4_linear_939_1117" x1="55.2789" y1="15.6265" x2="67.4066" y2="5.77568" gradientUnits="userSpaceOnUse">
<stop stop-color="#005A01" stop-opacity="0"/>
<stop offset="1" stop-color="#005A01"/>
</linearGradient>
<linearGradient id="paint5_linear_939_1117" x1="55.0685" y1="35.6204" x2="55.0685" y2="41.3455" gradientUnits="userSpaceOnUse">
<stop stop-color="#9B62CD"/>
<stop offset="0.3003" stop-color="#985DCB"/>
<stop offset="0.6716" stop-color="#8F4EC7"/>
<stop offset="1" stop-color="#833AC1"/>
</linearGradient>
<linearGradient id="paint6_linear_939_1117" x1="56.1096" y1="38.5029" x2="50.9228" y2="35.7612" gradientUnits="userSpaceOnUse">
<stop stop-color="#833AC1" stop-opacity="0"/>
<stop offset="1" stop-color="#6E566E"/>
</linearGradient>
<linearGradient id="paint7_linear_939_1117" x1="50.4384" y1="34.9" x2="50.4384" y2="43.5714" gradientUnits="userSpaceOnUse">
<stop stop-color="#FF7044"/>
<stop offset="1" stop-color="#F82814"/>
</linearGradient>
<linearGradient id="paint8_linear_939_1117" x1="52.4664" y1="39.2223" x2="44.2364" y2="34.8722" gradientUnits="userSpaceOnUse">
<stop stop-color="#F82814" stop-opacity="0"/>
<stop offset="1" stop-color="#C0272D"/>
</linearGradient>
<linearGradient id="paint9_linear_939_1117" x1="24.7005" y1="10.8331" x2="24.7005" y2="21.4564" gradientUnits="userSpaceOnUse">
<stop stop-color="#FF7044"/>
<stop offset="1" stop-color="#F82814"/>
</linearGradient>
<linearGradient id="paint10_linear_939_1117" x1="24.8719" y1="15.0986" x2="20.9385" y2="9.64532" gradientUnits="userSpaceOnUse">
<stop stop-color="#FF7044" stop-opacity="0"/>
<stop offset="1" stop-color="#FFA325"/>
</linearGradient>
<linearGradient id="paint11_linear_939_1117" x1="27.0693" y1="9.39124" x2="27.0693" y2="20.0146" gradientUnits="userSpaceOnUse">
<stop stop-color="#F82814" stop-opacity="0"/>
<stop offset="1" stop-color="#C0272D"/>
</linearGradient>
<linearGradient id="paint12_linear_939_1117" x1="24.7005" y1="12.9383" x2="24.7005" y2="3.21784" gradientUnits="userSpaceOnUse">
<stop stop-color="white" stop-opacity="0"/>
<stop offset="1" stop-color="white"/>
</linearGradient>
<linearGradient id="paint13_linear_939_1117" x1="24.7005" y1="16.1146" x2="24.7005" y2="21.5208" gradientUnits="userSpaceOnUse">
<stop stop-color="#8A7889"/>
<stop offset="1" stop-color="#6E566E"/>
</linearGradient>
<linearGradient id="paint14_linear_939_1117" x1="26.2834" y1="20.2072" x2="20.9696" y2="12.5746" gradientUnits="userSpaceOnUse">
<stop stop-color="#8A7889" stop-opacity="0"/>
<stop offset="1" stop-color="#9D8B91"/>
</linearGradient>
<linearGradient id="paint15_linear_939_1117" x1="12.7682" y1="25.0092" x2="36.5777" y2="48.9755" gradientUnits="userSpaceOnUse">
<stop stop-color="#9B62CD"/>
<stop offset="0.3003" stop-color="#985DCB"/>
<stop offset="0.6716" stop-color="#8F4EC7"/>
<stop offset="1" stop-color="#833AC1"/>
</linearGradient>
<linearGradient id="paint16_linear_939_1117" x1="24.7005" y1="22.6742" x2="24.7005" y2="19.4643" gradientUnits="userSpaceOnUse">
<stop stop-color="#9B62CD"/>
<stop offset="0.1454" stop-color="#965ACB"/>
<stop offset="0.672" stop-color="#8843C4"/>
<stop offset="1" stop-color="#833AC1"/>
</linearGradient>
<linearGradient id="paint17_linear_939_1117" x1="35.754" y1="44.8084" x2="-10.0591" y2="13.3768" gradientUnits="userSpaceOnUse">
<stop stop-color="#9B62CD" stop-opacity="0"/>
<stop offset="1" stop-color="#FF75C8"/>
</linearGradient>
<linearGradient id="paint18_linear_939_1117" x1="24.9309" y1="57.9482" x2="24.6394" y2="45.1237" gradientUnits="userSpaceOnUse">
<stop stop-color="#833AC1" stop-opacity="0"/>
<stop offset="1" stop-color="#6E566E"/>
</linearGradient>
<linearGradient id="paint19_linear_939_1117" x1="23.8906" y1="31.4856" x2="26.9171" y2="52.167" gradientUnits="userSpaceOnUse">
<stop stop-color="#FFD945"/>
<stop offset="0.3043" stop-color="#FFCD3E"/>
<stop offset="0.8558" stop-color="#FFAD2B"/>
<stop offset="1" stop-color="#FFA325"/>
</linearGradient>
<linearGradient id="paint20_linear_939_1117" x1="28.481" y1="43.0402" x2="13.0327" y2="16.5394" gradientUnits="userSpaceOnUse">
<stop stop-color="#FFD945" stop-opacity="0"/>
<stop offset="1" stop-color="#FBED21"/>
</linearGradient>
<linearGradient id="paint21_linear_939_1117" x1="9.45235" y1="33.3213" x2="9.45235" y2="43.7306" gradientUnits="userSpaceOnUse">
<stop stop-color="white"/>
<stop offset="1" stop-color="#E4F2FF"/>
</linearGradient>
<linearGradient id="paint22_linear_939_1117" x1="24.7005" y1="33.3213" x2="24.7005" y2="43.7306" gradientUnits="userSpaceOnUse">
<stop stop-color="white"/>
<stop offset="1" stop-color="#E4F2FF"/>
</linearGradient>
<linearGradient id="paint23_linear_939_1117" x1="39.9486" y1="33.3213" x2="39.9486" y2="43.7306" gradientUnits="userSpaceOnUse">
<stop stop-color="white"/>
<stop offset="1" stop-color="#E4F2FF"/>
</linearGradient>
<linearGradient id="paint24_linear_939_1117" x1="9.45235" y1="29.3152" x2="9.45235" y2="26.0346" gradientUnits="userSpaceOnUse">
<stop stop-color="#3F3CED" stop-opacity="0"/>
<stop offset="0.2796" stop-color="#3C3DE4" stop-opacity="0.28"/>
<stop offset="0.7305" stop-color="#3541CC" stop-opacity="0.731"/>
<stop offset="1" stop-color="#2F43BB"/>
</linearGradient>
<linearGradient id="paint25_linear_939_1117" x1="24.7005" y1="29.3152" x2="24.7005" y2="26.0346" gradientUnits="userSpaceOnUse">
<stop stop-color="#3F3CED" stop-opacity="0"/>
<stop offset="0.2796" stop-color="#3C3DE4" stop-opacity="0.28"/>
<stop offset="0.7305" stop-color="#3541CC" stop-opacity="0.731"/>
<stop offset="1" stop-color="#2F43BB"/>
</linearGradient>
<linearGradient id="paint26_linear_939_1117" x1="39.9486" y1="29.3152" x2="39.9486" y2="26.0346" gradientUnits="userSpaceOnUse">
<stop stop-color="#3F3CED" stop-opacity="0"/>
<stop offset="0.2796" stop-color="#3C3DE4" stop-opacity="0.28"/>
<stop offset="0.7305" stop-color="#3541CC" stop-opacity="0.731"/>
<stop offset="1" stop-color="#2F43BB"/>
</linearGradient>
<linearGradient id="paint27_linear_939_1117" x1="9.93763" y1="36.6023" x2="3.9554" y2="30.4787" gradientUnits="userSpaceOnUse">
<stop stop-color="#3F3CED" stop-opacity="0"/>
<stop offset="0.2796" stop-color="#3C3DE4" stop-opacity="0.28"/>
<stop offset="0.7305" stop-color="#3541CC" stop-opacity="0.731"/>
<stop offset="1" stop-color="#2F43BB"/>
</linearGradient>
<linearGradient id="paint28_linear_939_1117" x1="5.06775" y1="37.0203" x2="13.8369" y2="37.0203" gradientUnits="userSpaceOnUse">
<stop stop-color="#FFD945"/>
<stop offset="0.3043" stop-color="#FFCD3E"/>
<stop offset="0.8558" stop-color="#FFAD2B"/>
<stop offset="1" stop-color="#FFA325"/>
</linearGradient>
<linearGradient id="paint29_linear_939_1117" x1="5.47836" y1="37.0202" x2="13.4264" y2="37.0202" gradientUnits="userSpaceOnUse">
<stop stop-color="#FF7044"/>
<stop offset="1" stop-color="#F82814"/>
</linearGradient>
<linearGradient id="paint30_linear_939_1117" x1="25.2315" y1="36.6491" x2="19.196" y2="30.4711" gradientUnits="userSpaceOnUse">
<stop stop-color="#3F3CED" stop-opacity="0"/>
<stop offset="0.2796" stop-color="#3C3DE4" stop-opacity="0.28"/>
<stop offset="0.7305" stop-color="#3541CC" stop-opacity="0.731"/>
<stop offset="1" stop-color="#2F43BB"/>
</linearGradient>
<linearGradient id="paint31_linear_939_1117" x1="28.4797" y1="39.4168" x2="21.4815" y2="35.0337" gradientUnits="userSpaceOnUse">
<stop stop-color="#3F3CED" stop-opacity="0"/>
<stop offset="0.2796" stop-color="#3C3DE4" stop-opacity="0.28"/>
<stop offset="0.7305" stop-color="#3541CC" stop-opacity="0.731"/>
<stop offset="1" stop-color="#2F43BB"/>
</linearGradient>
<linearGradient id="paint32_linear_939_1117" x1="20.3159" y1="37.0203" x2="29.0851" y2="37.0203" gradientUnits="userSpaceOnUse">
<stop stop-color="#FFD945"/>
<stop offset="0.3043" stop-color="#FFCD3E"/>
<stop offset="0.8558" stop-color="#FFAD2B"/>
<stop offset="1" stop-color="#FFA325"/>
</linearGradient>
<linearGradient id="paint33_linear_939_1117" x1="20.7265" y1="37.0202" x2="28.6745" y2="37.0202" gradientUnits="userSpaceOnUse">
<stop stop-color="#FF7044"/>
<stop offset="1" stop-color="#F82814"/>
</linearGradient>
<linearGradient id="paint34_linear_939_1117" x1="40.287" y1="36.2163" x2="34.319" y2="29.0033" gradientUnits="userSpaceOnUse">
<stop stop-color="#3F3CED" stop-opacity="0"/>
<stop offset="0.2796" stop-color="#3C3DE4" stop-opacity="0.28"/>
<stop offset="0.7305" stop-color="#3541CC" stop-opacity="0.731"/>
<stop offset="1" stop-color="#2F43BB"/>
</linearGradient>
<linearGradient id="paint35_linear_939_1117" x1="43.57" y1="39.1998" x2="37.0005" y2="35.0852" gradientUnits="userSpaceOnUse">
<stop stop-color="#3F3CED" stop-opacity="0"/>
<stop offset="0.2796" stop-color="#3C3DE4" stop-opacity="0.28"/>
<stop offset="0.7305" stop-color="#3541CC" stop-opacity="0.731"/>
<stop offset="1" stop-color="#2F43BB"/>
</linearGradient>
<linearGradient id="paint36_linear_939_1117" x1="35.564" y1="37.0203" x2="44.3332" y2="37.0203" gradientUnits="userSpaceOnUse">
<stop stop-color="#FFD945"/>
<stop offset="0.3043" stop-color="#FFCD3E"/>
<stop offset="0.8558" stop-color="#FFAD2B"/>
<stop offset="1" stop-color="#FFA325"/>
</linearGradient>
<linearGradient id="paint37_linear_939_1117" x1="35.9747" y1="37.0202" x2="43.9226" y2="37.0202" gradientUnits="userSpaceOnUse">
<stop stop-color="#FF7044"/>
<stop offset="1" stop-color="#F82814"/>
</linearGradient>
<linearGradient id="paint38_linear_939_1117" x1="13.2409" y1="39.3046" x2="6.33152" y2="34.9771" gradientUnits="userSpaceOnUse">
<stop stop-color="#3F3CED" stop-opacity="0"/>
<stop offset="0.2796" stop-color="#3C3DE4" stop-opacity="0.28"/>
<stop offset="0.7305" stop-color="#3541CC" stop-opacity="0.731"/>
<stop offset="1" stop-color="#2F43BB"/>
</linearGradient>
<linearGradient id="paint39_linear_939_1117" x1="24.4864" y1="5.9447" x2="26.3782" y2="5.9447" gradientUnits="userSpaceOnUse">
<stop stop-color="#FFD945"/>
<stop offset="0.3043" stop-color="#FFCD3E"/>
<stop offset="0.8558" stop-color="#FFAD2B"/>
<stop offset="1" stop-color="#FFA325"/>
</linearGradient>
<linearGradient id="paint40_linear_939_1117" x1="33.0646" y1="12.8174" x2="33.0646" y2="14.7092" gradientUnits="userSpaceOnUse">
<stop stop-color="#FFD945"/>
<stop offset="0.3043" stop-color="#FFCD3E"/>
<stop offset="0.8558" stop-color="#FFAD2B"/>
<stop offset="1" stop-color="#FFA325"/>
</linearGradient>
<linearGradient id="paint41_linear_939_1117" x1="16.3364" y1="12.8174" x2="16.3364" y2="14.7092" gradientUnits="userSpaceOnUse">
<stop stop-color="#FFD945"/>
<stop offset="0.3043" stop-color="#FFCD3E"/>
<stop offset="0.8558" stop-color="#FFAD2B"/>
<stop offset="1" stop-color="#FFA325"/>
</linearGradient>
<linearGradient id="paint42_linear_939_1117" x1="30.2863" y1="7.87979" x2="31.624" y2="9.21743" gradientUnits="userSpaceOnUse">
<stop stop-color="#FFD945"/>
<stop offset="0.3043" stop-color="#FFCD3E"/>
<stop offset="0.8558" stop-color="#FFAD2B"/>
<stop offset="1" stop-color="#FFA325"/>
</linearGradient>
<linearGradient id="paint43_linear_939_1117" x1="19.0942" y1="7.85774" x2="17.7566" y2="9.19538" gradientUnits="userSpaceOnUse">
<stop stop-color="#FFD945"/>
<stop offset="0.3043" stop-color="#FFCD3E"/>
<stop offset="0.8558" stop-color="#FFAD2B"/>
<stop offset="1" stop-color="#FFA325"/>
</linearGradient>
<clipPath id="clip0_939_1117">
<rect width="60" height="60" fill="white"/>
</clipPath>
</defs>
</svg>
