<?xml version="1.0" encoding="utf-8"?>
<!-- Generator: Adobe Illustrator 22.1.0, SVG Export Plug-In . SVG Version: 6.00 Build 0)  -->
<svg version="1.1" id="Layer_1" xmlns="http://www.w3.org/2000/svg" xmlns:xlink="http://www.w3.org/1999/xlink" x="0px" y="0px"
	 viewBox="0 0 60 60" style="enable-background:new 0 0 60 60;" xml:space="preserve">
<style type="text/css">
	.st0{clip-path:url(#SVGID_2_);}
	.st1{fill:url(#SVGID_3_);}
	.st2{fill:url(#SVGID_4_);}
	.st3{fill:url(#SVGID_5_);}
	.st4{fill:url(#SVGID_6_);}
	.st5{fill:url(#SVGID_7_);}
	.st6{fill:url(#SVGID_8_);}
	.st7{fill:url(#SVGID_9_);}
	.st8{fill:url(#SVGID_10_);}
	.st9{fill:url(#SVGID_11_);}
	.st10{fill:url(#SVGID_12_);}
	.st11{fill:url(#SVGID_13_);}
	.st12{fill:url(#SVGID_14_);}
	.st13{fill:url(#SVGID_15_);}
	.st14{fill:url(#SVGID_16_);}
	.st15{fill:url(#SVGID_17_);}
	.st16{fill:url(#SVGID_18_);}
	.st17{fill:url(#SVGID_19_);}
	.st18{fill:url(#SVGID_20_);}
	.st19{fill:url(#SVGID_21_);}
	.st20{fill:url(#SVGID_22_);}
	.st21{fill:url(#SVGID_23_);}
	.st22{fill:url(#SVGID_24_);}
	.st23{fill:url(#SVGID_25_);}
	.st24{fill:url(#SVGID_26_);}
	.st25{fill:url(#SVGID_27_);}
	.st26{fill:url(#SVGID_28_);}
	.st27{fill:url(#SVGID_29_);}
	.st28{fill:url(#SVGID_30_);}
	.st29{fill:url(#SVGID_31_);}
	.st30{fill:url(#SVGID_32_);}
	.st31{fill:url(#SVGID_33_);}
	.st32{fill:url(#SVGID_34_);}
	.st33{fill:url(#SVGID_35_);}
	.st34{fill:url(#SVGID_36_);}
	.st35{fill:url(#SVGID_37_);}
	.st36{fill:url(#SVGID_38_);}
	.st37{fill:url(#SVGID_39_);}
	.st38{fill:url(#SVGID_40_);}
	.st39{fill:url(#SVGID_41_);}
	.st40{fill:url(#SVGID_42_);}
	.st41{fill:url(#SVGID_43_);}
	.st42{fill:url(#SVGID_44_);}
	.st43{fill:url(#SVGID_45_);}
	.st44{fill:url(#SVGID_46_);}
	.st45{fill:url(#SVGID_47_);}
	.st46{fill:url(#SVGID_48_);}
	.st47{fill:url(#SVGID_49_);}
	.st48{fill:url(#SVGID_50_);}
	.st49{fill:url(#SVGID_51_);}
	.st50{fill:url(#SVGID_52_);}
	.st51{fill:url(#SVGID_53_);}
	.st52{fill:url(#SVGID_54_);}
	.st53{fill:url(#SVGID_55_);}
	.st54{fill:url(#SVGID_56_);}
	.st55{fill:url(#SVGID_57_);}
	.st56{fill:url(#SVGID_58_);}
	.st57{fill:url(#SVGID_59_);}
</style>
<g>
	<defs>
		<rect id="SVGID_1_" width="60" height="60"/>
	</defs>
	<clipPath id="SVGID_2_">
		<use xlink:href="#SVGID_1_"  style="overflow:visible;"/>
	</clipPath>
	<g class="st0">
		
			<linearGradient id="SVGID_3_" gradientUnits="userSpaceOnUse" x1="34.5558" y1="32.8728" x2="47.2425" y2="20.1861" gradientTransform="matrix(1 0 0 -1 0 60)">
			<stop  offset="0" style="stop-color:#E4F2FF"/>
			<stop  offset="1" style="stop-color:#B2CBFF"/>
		</linearGradient>
		<path class="st1" d="M38.3,52.6c12,0,21.7-9.7,21.7-21.7c0-12-9.7-21.7-21.7-21.7s-21.7,9.7-21.7,21.7
			C16.7,42.9,26.4,52.6,38.3,52.6L38.3,52.6z"/>
		
			<linearGradient id="SVGID_4_" gradientUnits="userSpaceOnUse" x1="37.4734" y1="50.4254" x2="56.8969" y2="31.0021" gradientTransform="matrix(1 0 0 -1 0 60)">
			<stop  offset="0" style="stop-color:#E4F2FF"/>
			<stop  offset="1" style="stop-color:#B2CBFF"/>
		</linearGradient>
		<path class="st2" d="M59.5,26.4l-9.2,2c-1.3,0.3-2.7,0-3.8-0.9L39.8,22c-1.1-0.9-1.7-2.2-1.7-3.5v0l0-9.2c0.1,0,0.1,0,0.2,0
			C48.8,9.2,57.5,16.6,59.5,26.4L59.5,26.4z"/>
		
			<linearGradient id="SVGID_5_" gradientUnits="userSpaceOnUse" x1="26.2754" y1="43.474" x2="35.1254" y2="34.6239" gradientTransform="matrix(1 0 0 -1 0 60)">
			<stop  offset="0" style="stop-color:#E4F2FF"/>
			<stop  offset="1" style="stop-color:#B2CBFF"/>
		</linearGradient>
		<path class="st3" d="M38.1,18.5L38.1,18.5c0,1.4-0.6,2.7-1.7,3.5l-6.8,5.4c-0.9,0.7-2.1,1.1-3.3,1c-0.2,0-0.4,0-0.5-0.1l-7.7-1.7
			l-1-0.2c2-9.8,10.6-17.1,21-17.2L38.1,18.5z"/>
		
			<linearGradient id="SVGID_6_" gradientUnits="userSpaceOnUse" x1="21.2722" y1="26.4564" x2="27.3048" y2="20.4237" gradientTransform="matrix(1 0 0 -1 0 60)">
			<stop  offset="0" style="stop-color:#E4F2FF"/>
			<stop  offset="1" style="stop-color:#B2CBFF"/>
		</linearGradient>
		<path class="st4" d="M30.6,41.8L30.6,41.8l-5.2,5.8c-0.1,0.1-0.3,0.3-0.4,0.4c-5.1-4-8.3-10.1-8.3-17.1c0-1.4,0.1-2.8,0.4-4.1
			c0.3-0.1,0.7-0.1,1.1-0.1c0.2,0,0.3,0,0.5,0.1l7.6,1.6c0.1,0,0.1,0,0.2,0c1.2,0.3,2.2,1.2,2.6,2.4l2.4,7.4
			C31.7,39.5,31.5,40.8,30.6,41.8L30.6,41.8z"/>
		
			<linearGradient id="SVGID_7_" gradientUnits="userSpaceOnUse" x1="48.0447" y1="30.2189" x2="59.0651" y2="19.1986" gradientTransform="matrix(1 0 0 -1 0 60)">
			<stop  offset="0" style="stop-color:#E4F2FF"/>
			<stop  offset="1" style="stop-color:#B2CBFF"/>
		</linearGradient>
		<path class="st5" d="M60,30.9c0,6.9-3.3,13.1-8.3,17.1c-0.1-0.1-0.3-0.2-0.4-0.4l-5.2-5.7l-0.1-0.1c-0.8-1-1.1-2.3-0.7-3.6
			l2.4-7.4c0.4-1.3,1.5-2.2,2.8-2.5l7.6-1.6c0.5-0.1,1.1-0.1,1.6,0C59.9,28.1,60,29.5,60,30.9L60,30.9z"/>
		
			<linearGradient id="SVGID_8_" gradientUnits="userSpaceOnUse" x1="32.0568" y1="18.6195" x2="43.04" y2="7.6363" gradientTransform="matrix(1 0 0 -1 0 60)">
			<stop  offset="0" style="stop-color:#E4F2FF"/>
			<stop  offset="1" style="stop-color:#B2CBFF"/>
		</linearGradient>
		<path class="st6" d="M51.5,48.1c-3.6,2.8-8.2,4.5-13.2,4.5c-5,0-9.5-1.7-13.2-4.5c0.2-0.3,0.3-0.5,0.6-0.8l4.8-5.5l0.1-0.1
			l0.1-0.1c0.8-0.9,2-1.5,3.3-1.5h8.7c1.3,0,2.5,0.5,3.3,1.5l0.1,0.1l0.1,0.1l4.8,5.5C51.2,47.6,51.3,47.8,51.5,48.1L51.5,48.1z"/>
		
			<linearGradient id="SVGID_9_" gradientUnits="userSpaceOnUse" x1="36.6805" y1="29.7978" x2="42.2411" y2="24.237" gradientTransform="matrix(1 0 0 -1 0 60)">
			<stop  offset="0" style="stop-color:#8A7889"/>
			<stop  offset="1" style="stop-color:#6E566E"/>
		</linearGradient>
		<path class="st7" d="M36,22.4l-5.5,4c-1.4,1-2,2.9-1.5,4.5l2.1,6.5c0.5,1.7,2.1,2.8,3.8,2.8h6.8c1.8,0,3.3-1.1,3.8-2.8l2.1-6.5
			c0.5-1.7-0.1-3.5-1.5-4.5l-5.5-4C39.3,21.4,37.4,21.4,36,22.4z"/>
		
			<linearGradient id="SVGID_10_" gradientUnits="userSpaceOnUse" x1="37.6434" y1="50.7085" x2="39.9745" y2="48.3775" gradientTransform="matrix(1 0 0 -1 0 60)">
			<stop  offset="0" style="stop-color:#8A7889"/>
			<stop  offset="1" style="stop-color:#6E566E"/>
		</linearGradient>
		<path class="st8" d="M44,10l-3.3,2.4c-1.4,1-3.3,1-4.8,0L32.7,10c1.8-0.5,3.7-0.7,5.6-0.7C40.3,9.2,42.2,9.5,44,10L44,10z"/>
		
			<linearGradient id="SVGID_11_" gradientUnits="userSpaceOnUse" x1="58.1455" y1="34.6943" x2="60.3471" y2="32.4928" gradientTransform="matrix(1 0 0 -1 0 60)">
			<stop  offset="0" style="stop-color:#8A7889"/>
			<stop  offset="1" style="stop-color:#6E566E"/>
		</linearGradient>
		<path class="st9" d="M60,30.1l-1.5-1c-1.4-1-2.1-2.8-1.6-4.5l0.9-3C59.1,24.2,59.9,27,60,30.1z"/>
		
			<linearGradient id="SVGID_12_" gradientUnits="userSpaceOnUse" x1="17.4451" y1="34.4678" x2="18.8871" y2="33.0259" gradientTransform="matrix(1 0 0 -1 0 60)">
			<stop  offset="0" style="stop-color:#8A7889"/>
			<stop  offset="1" style="stop-color:#6E566E"/>
		</linearGradient>
		<path class="st10" d="M18.1,29.1l-1.5,1c0.1-3,0.9-5.9,2.1-8.5l0.9,3C20.2,26.3,19.6,28.1,18.1,29.1z"/>
		
			<linearGradient id="SVGID_13_" gradientUnits="userSpaceOnUse" x1="25.662" y1="13.89" x2="28.7803" y2="10.7716" gradientTransform="matrix(1 0 0 -1 0 60)">
			<stop  offset="0" style="stop-color:#8A7889"/>
			<stop  offset="1" style="stop-color:#6E566E"/>
		</linearGradient>
		<path class="st11" d="M30.2,51c-3.4-1.4-6.4-3.6-8.7-6.4l4.2,0.3c1.7,0.1,3.2,1.3,3.7,3L30.2,51z"/>
		
			<linearGradient id="SVGID_14_" gradientUnits="userSpaceOnUse" x1="49.7447" y1="13.3007" x2="50.8865" y2="12.1589" gradientTransform="matrix(1 0 0 -1 0 60)">
			<stop  offset="0" style="stop-color:#8A7889"/>
			<stop  offset="1" style="stop-color:#6E566E"/>
		</linearGradient>
		<path class="st12" d="M55.1,44.6c-2.3,2.8-5.3,5-8.7,6.4l0.8-3.1c0.4-1.7,1.9-2.9,3.7-3L55.1,44.6z"/>
		
			<linearGradient id="SVGID_15_" gradientUnits="userSpaceOnUse" x1="43.6227" y1="22.4717" x2="14.2481" y2="60.9958" gradientTransform="matrix(1 0 0 -1 0 60)">
			<stop  offset="0" style="stop-color:#FFFFFF;stop-opacity:0"/>
			<stop  offset="1" style="stop-color:#FFFFFF"/>
		</linearGradient>
		<path class="st13" d="M40.3,11.2c-12,0-21.7,9.7-21.7,21.7c0,5.5,2,10.5,5.4,14.3c3.8,3.3,8.8,5.4,14.3,5.4
			c12,0,21.7-9.7,21.7-21.7c0-5.5-2-10.5-5.4-14.3C50.8,13.3,45.8,11.2,40.3,11.2L40.3,11.2z"/>
		
			<linearGradient id="SVGID_16_" gradientUnits="userSpaceOnUse" x1="39.6647" y1="27.6533" x2="104.407" y2="24.0191" gradientTransform="matrix(1 0 0 -1 0 60)">
			<stop  offset="0" style="stop-color:#3F3CED;stop-opacity:0"/>
			<stop  offset="0.2796" style="stop-color:#3C3DE4;stop-opacity:0.28"/>
			<stop  offset="0.7305" style="stop-color:#3541CC;stop-opacity:0.731"/>
			<stop  offset="1" style="stop-color:#2F43BB"/>
		</linearGradient>
		<path class="st14" d="M49.9,12.6c2.1,3.3,3.3,7.3,3.3,11.6c0,12-9.7,21.7-21.7,21.7c-4.2,0-8.2-1.2-11.6-3.3
			c3.8,6.1,10.6,10.1,18.3,10.1c12,0,21.7-9.7,21.7-21.7C60,23.2,56,16.4,49.9,12.6L49.9,12.6z"/>
		
			<linearGradient id="SVGID_17_" gradientUnits="userSpaceOnUse" x1="8.8689" y1="14.9132" x2="8.8689" y2="9.9806" gradientTransform="matrix(1 0 0 -1 0 60)">
			<stop  offset="0" style="stop-color:#FFD945"/>
			<stop  offset="0.3043" style="stop-color:#FFCD3E"/>
			<stop  offset="0.8558" style="stop-color:#FFAD2B"/>
			<stop  offset="1" style="stop-color:#FFA325"/>
		</linearGradient>
		<path class="st15" d="M17.2,48.8H0.6c-0.3,0-0.6-0.3-0.6-0.6v-2.7C0,45.3,0.3,45,0.6,45h16.6c0.3,0,0.6,0.3,0.6,0.6v2.7
			C17.7,48.6,17.5,48.8,17.2,48.8z"/>
		
			<linearGradient id="SVGID_18_" gradientUnits="userSpaceOnUse" x1="8.8688" y1="14.8417" x2="8.8688" y2="6.5461" gradientTransform="matrix(1 0 0 -1 0 60)">
			<stop  offset="0" style="stop-color:#E87264;stop-opacity:0"/>
			<stop  offset="1" style="stop-color:#FF7044"/>
		</linearGradient>
		<path class="st16" d="M15.1,48.8H2.7c-0.3,0-0.5-0.2-0.5-0.5v-2.8c0-0.3,0.2-0.5,0.5-0.5h12.4c0.3,0,0.5,0.2,0.5,0.5v2.8
			C15.6,48.6,15.3,48.8,15.1,48.8L15.1,48.8z"/>
		
			<linearGradient id="SVGID_19_" gradientUnits="userSpaceOnUse" x1="8.8689" y1="14.8417" x2="8.8689" y2="6.5461" gradientTransform="matrix(1 0 0 -1 0 60)">
			<stop  offset="0" style="stop-color:#E87264;stop-opacity:0"/>
			<stop  offset="1" style="stop-color:#FF7044"/>
		</linearGradient>
		<path class="st17" d="M11,48.8H6.7c-0.2,0-0.3-0.1-0.3-0.3v-3.2c0-0.2,0.1-0.3,0.3-0.3H11c0.2,0,0.3,0.1,0.3,0.3v3.2
			C11.3,48.7,11.2,48.8,11,48.8z"/>
		
			<linearGradient id="SVGID_20_" gradientUnits="userSpaceOnUse" x1="8.8485" y1="13.5127" x2="6.8817" y2="18.269" gradientTransform="matrix(1 0 0 -1 0 60)">
			<stop  offset="0" style="stop-color:#FFD945;stop-opacity:0"/>
			<stop  offset="1" style="stop-color:#FBED21"/>
		</linearGradient>
		<path class="st18" d="M1.1,45.5c-0.3,0-0.6,0.3-0.6,0.6v2.7c0,0,0,0.1,0,0.1c0,0,0,0,0.1,0h16.6c0.3,0,0.6-0.3,0.6-0.6v-2.7
			c0,0,0-0.1,0-0.1c0,0,0,0-0.1,0H1.1z"/>
		
			<linearGradient id="SVGID_21_" gradientUnits="userSpaceOnUse" x1="8.8689" y1="18.7178" x2="8.8689" y2="13.7851" gradientTransform="matrix(1 0 0 -1 0 60)">
			<stop  offset="0" style="stop-color:#FFD945"/>
			<stop  offset="0.3043" style="stop-color:#FFCD3E"/>
			<stop  offset="0.8558" style="stop-color:#FFAD2B"/>
			<stop  offset="1" style="stop-color:#FFA325"/>
		</linearGradient>
		<path class="st19" d="M17.2,45H0.6C0.3,45,0,44.8,0,44.4v-2.7c0-0.3,0.3-0.6,0.6-0.6h16.6c0.3,0,0.6,0.3,0.6,0.6v2.7
			C17.7,44.8,17.5,45,17.2,45z"/>
		
			<linearGradient id="SVGID_22_" gradientUnits="userSpaceOnUse" x1="8.8688" y1="18.6463" x2="8.8688" y2="10.3506" gradientTransform="matrix(1 0 0 -1 0 60)">
			<stop  offset="0" style="stop-color:#E87264;stop-opacity:0"/>
			<stop  offset="1" style="stop-color:#FF7044"/>
		</linearGradient>
		<path class="st20" d="M15.1,45H2.7c-0.3,0-0.5-0.2-0.5-0.5v-2.8c0-0.3,0.2-0.5,0.5-0.5h12.4c0.3,0,0.5,0.2,0.5,0.5v2.8
			C15.6,44.8,15.3,45,15.1,45L15.1,45z"/>
		
			<linearGradient id="SVGID_23_" gradientUnits="userSpaceOnUse" x1="8.8689" y1="18.6463" x2="8.8689" y2="10.3506" gradientTransform="matrix(1 0 0 -1 0 60)">
			<stop  offset="0" style="stop-color:#E87264;stop-opacity:0"/>
			<stop  offset="1" style="stop-color:#FF7044"/>
		</linearGradient>
		<path class="st21" d="M11,45H6.7c-0.2,0-0.3-0.1-0.3-0.3v-3.2c0-0.2,0.1-0.3,0.3-0.3H11c0.2,0,0.3,0.1,0.3,0.3v3.2
			C11.3,44.9,11.2,45,11,45z"/>
		
			<linearGradient id="SVGID_24_" gradientUnits="userSpaceOnUse" x1="8.8485" y1="17.3173" x2="6.8817" y2="22.0735" gradientTransform="matrix(1 0 0 -1 0 60)">
			<stop  offset="0" style="stop-color:#FFD945;stop-opacity:0"/>
			<stop  offset="1" style="stop-color:#FBED21"/>
		</linearGradient>
		<path class="st22" d="M1.1,41.7c-0.3,0-0.6,0.3-0.6,0.6v2.7c0,0,0,0.1,0,0.1c0,0,0,0,0.1,0h16.6c0.3,0,0.6-0.3,0.6-0.6v-2.7
			c0,0,0-0.1,0-0.1c0,0,0,0-0.1,0H1.1z"/>
		
			<linearGradient id="SVGID_25_" gradientUnits="userSpaceOnUse" x1="8.8689" y1="22.5222" x2="8.8689" y2="17.5895" gradientTransform="matrix(1 0 0 -1 0 60)">
			<stop  offset="0" style="stop-color:#FFD945"/>
			<stop  offset="0.3043" style="stop-color:#FFCD3E"/>
			<stop  offset="0.8558" style="stop-color:#FFAD2B"/>
			<stop  offset="1" style="stop-color:#FFA325"/>
		</linearGradient>
		<path class="st23" d="M17.2,41.2H0.6c-0.3,0-0.6-0.3-0.6-0.6V38c0-0.3,0.3-0.6,0.6-0.6h16.6c0.3,0,0.6,0.3,0.6,0.6v2.7
			C17.7,40.9,17.5,41.2,17.2,41.2z"/>
		
			<linearGradient id="SVGID_26_" gradientUnits="userSpaceOnUse" x1="8.8688" y1="22.4507" x2="8.8688" y2="14.1551" gradientTransform="matrix(1 0 0 -1 0 60)">
			<stop  offset="0" style="stop-color:#E87264;stop-opacity:0"/>
			<stop  offset="1" style="stop-color:#FF7044"/>
		</linearGradient>
		<path class="st24" d="M15.1,41.2H2.7c-0.3,0-0.5-0.2-0.5-0.5v-2.8c0-0.3,0.2-0.5,0.5-0.5h12.4c0.3,0,0.5,0.2,0.5,0.5v2.8
			C15.6,41,15.3,41.2,15.1,41.2L15.1,41.2z"/>
		
			<linearGradient id="SVGID_27_" gradientUnits="userSpaceOnUse" x1="8.8689" y1="22.4507" x2="8.8689" y2="14.1551" gradientTransform="matrix(1 0 0 -1 0 60)">
			<stop  offset="0" style="stop-color:#E87264;stop-opacity:0"/>
			<stop  offset="1" style="stop-color:#FF7044"/>
		</linearGradient>
		<path class="st25" d="M11,41.2H6.7c-0.2,0-0.3-0.1-0.3-0.3v-3.2c0-0.2,0.1-0.3,0.3-0.3H11c0.2,0,0.3,0.1,0.3,0.3v3.2
			C11.3,41.1,11.2,41.2,11,41.2z"/>
		
			<linearGradient id="SVGID_28_" gradientUnits="userSpaceOnUse" x1="8.8485" y1="21.1218" x2="6.8817" y2="25.8782" gradientTransform="matrix(1 0 0 -1 0 60)">
			<stop  offset="0" style="stop-color:#FFD945;stop-opacity:0"/>
			<stop  offset="1" style="stop-color:#FBED21"/>
		</linearGradient>
		<path class="st26" d="M1.1,37.9c-0.3,0-0.6,0.3-0.6,0.6v2.7c0,0,0,0.1,0,0.1c0,0,0,0,0.1,0h16.6c0.3,0,0.6-0.3,0.6-0.6V38
			c0,0,0-0.1,0-0.1c0,0,0,0-0.1,0H1.1z"/>
		
			<linearGradient id="SVGID_29_" gradientUnits="userSpaceOnUse" x1="8.8689" y1="26.3267" x2="8.8689" y2="21.394" gradientTransform="matrix(1 0 0 -1 0 60)">
			<stop  offset="0" style="stop-color:#FFD945"/>
			<stop  offset="0.3043" style="stop-color:#FFCD3E"/>
			<stop  offset="0.8558" style="stop-color:#FFAD2B"/>
			<stop  offset="1" style="stop-color:#FFA325"/>
		</linearGradient>
		<path class="st27" d="M17.2,37.4H0.6c-0.3,0-0.6-0.3-0.6-0.6v-2.7c0-0.3,0.3-0.6,0.6-0.6h16.6c0.3,0,0.6,0.3,0.6,0.6v2.7
			C17.7,37.1,17.5,37.4,17.2,37.4z"/>
		
			<linearGradient id="SVGID_30_" gradientUnits="userSpaceOnUse" x1="8.8688" y1="26.2551" x2="8.8688" y2="17.9595" gradientTransform="matrix(1 0 0 -1 0 60)">
			<stop  offset="0" style="stop-color:#E87264;stop-opacity:0"/>
			<stop  offset="1" style="stop-color:#FF7044"/>
		</linearGradient>
		<path class="st28" d="M15.1,37.4H2.7c-0.3,0-0.5-0.2-0.5-0.5v-2.8c0-0.3,0.2-0.5,0.5-0.5h12.4c0.3,0,0.5,0.2,0.5,0.5v2.8
			C15.6,37.2,15.3,37.4,15.1,37.4L15.1,37.4z"/>
		
			<linearGradient id="SVGID_31_" gradientUnits="userSpaceOnUse" x1="8.8689" y1="26.2552" x2="8.8689" y2="17.9595" gradientTransform="matrix(1 0 0 -1 0 60)">
			<stop  offset="0" style="stop-color:#E87264;stop-opacity:0"/>
			<stop  offset="1" style="stop-color:#FF7044"/>
		</linearGradient>
		<path class="st29" d="M11,37.4H6.7c-0.2,0-0.3-0.1-0.3-0.3v-3.2c0-0.2,0.1-0.3,0.3-0.3H11c0.2,0,0.3,0.1,0.3,0.3v3.2
			C11.3,37.3,11.2,37.4,11,37.4z"/>
		
			<linearGradient id="SVGID_32_" gradientUnits="userSpaceOnUse" x1="8.8485" y1="24.9263" x2="6.8817" y2="29.6826" gradientTransform="matrix(1 0 0 -1 0 60)">
			<stop  offset="0" style="stop-color:#FFD945;stop-opacity:0"/>
			<stop  offset="1" style="stop-color:#FBED21"/>
		</linearGradient>
		<path class="st30" d="M1.1,34.1c-0.3,0-0.6,0.3-0.6,0.6v2.7c0,0,0,0.1,0,0.1c0,0,0,0,0.1,0h16.6c0.3,0,0.6-0.3,0.6-0.6v-2.7
			c0,0,0-0.1,0-0.1c0,0,0,0-0.1,0H1.1z"/>
		
			<linearGradient id="SVGID_33_" gradientUnits="userSpaceOnUse" x1="8.8689" y1="30.1312" x2="8.8689" y2="25.1986" gradientTransform="matrix(1 0 0 -1 0 60)">
			<stop  offset="0" style="stop-color:#FFD945"/>
			<stop  offset="0.3043" style="stop-color:#FFCD3E"/>
			<stop  offset="0.8558" style="stop-color:#FFAD2B"/>
			<stop  offset="1" style="stop-color:#FFA325"/>
		</linearGradient>
		<path class="st31" d="M17.2,33.6H0.6C0.3,33.6,0,33.3,0,33v-2.7c0-0.3,0.3-0.6,0.6-0.6h16.6c0.3,0,0.6,0.3,0.6,0.6V33
			C17.7,33.3,17.5,33.6,17.2,33.6z"/>
		
			<linearGradient id="SVGID_34_" gradientUnits="userSpaceOnUse" x1="8.8688" y1="30.0596" x2="8.8688" y2="21.7639" gradientTransform="matrix(1 0 0 -1 0 60)">
			<stop  offset="0" style="stop-color:#E87264;stop-opacity:0"/>
			<stop  offset="1" style="stop-color:#FF7044"/>
		</linearGradient>
		<path class="st32" d="M15.1,33.6H2.7c-0.3,0-0.5-0.2-0.5-0.5v-2.8c0-0.3,0.2-0.5,0.5-0.5h12.4c0.3,0,0.5,0.2,0.5,0.5v2.8
			C15.6,33.4,15.3,33.6,15.1,33.6L15.1,33.6z"/>
		
			<linearGradient id="SVGID_35_" gradientUnits="userSpaceOnUse" x1="8.8689" y1="30.0596" x2="8.8689" y2="21.7639" gradientTransform="matrix(1 0 0 -1 0 60)">
			<stop  offset="0" style="stop-color:#E87264;stop-opacity:0"/>
			<stop  offset="1" style="stop-color:#FF7044"/>
		</linearGradient>
		<path class="st33" d="M11,33.6H6.7c-0.2,0-0.3-0.1-0.3-0.3v-3.2c0-0.2,0.1-0.3,0.3-0.3H11c0.2,0,0.3,0.1,0.3,0.3v3.2
			C11.3,33.5,11.2,33.6,11,33.6z"/>
		
			<linearGradient id="SVGID_36_" gradientUnits="userSpaceOnUse" x1="8.8485" y1="28.7307" x2="6.8817" y2="33.4871" gradientTransform="matrix(1 0 0 -1 0 60)">
			<stop  offset="0" style="stop-color:#FFD945;stop-opacity:0"/>
			<stop  offset="1" style="stop-color:#FBED21"/>
		</linearGradient>
		<path class="st34" d="M1.1,30.3c-0.3,0-0.6,0.3-0.6,0.6v2.7c0,0,0,0.1,0,0.1c0,0,0,0,0.1,0h16.6c0.3,0,0.6-0.3,0.6-0.6v-2.7
			c0,0,0-0.1,0-0.1c0,0,0,0-0.1,0H1.1z"/>
		
			<linearGradient id="SVGID_37_" gradientUnits="userSpaceOnUse" x1="8.8689" y1="33.9358" x2="8.8689" y2="29.0031" gradientTransform="matrix(1 0 0 -1 0 60)">
			<stop  offset="0" style="stop-color:#FFD945"/>
			<stop  offset="0.3043" style="stop-color:#FFCD3E"/>
			<stop  offset="0.8558" style="stop-color:#FFAD2B"/>
			<stop  offset="1" style="stop-color:#FFA325"/>
		</linearGradient>
		<path class="st35" d="M17.2,29.8H0.6c-0.3,0-0.6-0.3-0.6-0.6v-2.7C0,26.2,0.3,26,0.6,26h16.6c0.3,0,0.6,0.3,0.6,0.6v2.7
			C17.7,29.5,17.5,29.8,17.2,29.8z"/>
		
			<linearGradient id="SVGID_38_" gradientUnits="userSpaceOnUse" x1="8.8688" y1="33.8643" x2="8.8688" y2="25.5685" gradientTransform="matrix(1 0 0 -1 0 60)">
			<stop  offset="0" style="stop-color:#E87264;stop-opacity:0"/>
			<stop  offset="1" style="stop-color:#FF7044"/>
		</linearGradient>
		<path class="st36" d="M15.1,29.8H2.7c-0.3,0-0.5-0.2-0.5-0.5v-2.8c0-0.3,0.2-0.5,0.5-0.5h12.4c0.3,0,0.5,0.2,0.5,0.5v2.8
			C15.6,29.6,15.3,29.8,15.1,29.8L15.1,29.8z"/>
		
			<linearGradient id="SVGID_39_" gradientUnits="userSpaceOnUse" x1="8.8689" y1="33.8643" x2="8.8689" y2="25.5685" gradientTransform="matrix(1 0 0 -1 0 60)">
			<stop  offset="0" style="stop-color:#E87264;stop-opacity:0"/>
			<stop  offset="1" style="stop-color:#FF7044"/>
		</linearGradient>
		<path class="st37" d="M11,29.8H6.7c-0.2,0-0.3-0.1-0.3-0.3v-3.2c0-0.2,0.1-0.3,0.3-0.3H11c0.2,0,0.3,0.1,0.3,0.3v3.2
			C11.3,29.7,11.2,29.8,11,29.8z"/>
		
			<linearGradient id="SVGID_40_" gradientUnits="userSpaceOnUse" x1="8.8485" y1="32.5352" x2="6.8817" y2="37.2915" gradientTransform="matrix(1 0 0 -1 0 60)">
			<stop  offset="0" style="stop-color:#FFD945;stop-opacity:0"/>
			<stop  offset="1" style="stop-color:#FBED21"/>
		</linearGradient>
		<path class="st38" d="M1.1,26.4c-0.3,0-0.6,0.3-0.6,0.6v2.7c0,0,0,0.1,0,0.1c0,0,0,0,0.1,0h16.6c0.3,0,0.6-0.3,0.6-0.6v-2.7
			c0,0,0-0.1,0-0.1c0,0,0,0-0.1,0H1.1z"/>
		
			<linearGradient id="SVGID_41_" gradientUnits="userSpaceOnUse" x1="57.4746" y1="16.414" x2="47.3886" y2="19.5883" gradientTransform="matrix(1 0 0 -1 0 60)">
			<stop  offset="0" style="stop-color:#3F3CED;stop-opacity:0"/>
			<stop  offset="0.2796" style="stop-color:#3C3DE4;stop-opacity:0.28"/>
			<stop  offset="0.7305" style="stop-color:#3541CC;stop-opacity:0.731"/>
			<stop  offset="1" style="stop-color:#2F43BB"/>
		</linearGradient>
		<path class="st39" d="M50.2,49c3.1-2,5.6-4.8,7.3-8.1l-7.3-7.3V49z"/>
		
			<linearGradient id="SVGID_42_" gradientUnits="userSpaceOnUse" x1="28.8483" y1="21.3492" x2="39.798" y2="-6.3525" gradientTransform="matrix(1 0 0 -1 0 60)">
			<stop  offset="0" style="stop-color:#4AB272"/>
			<stop  offset="1" style="stop-color:#077565"/>
		</linearGradient>
		<path class="st40" d="M49.3,54.6H12.5c-0.6,0-1.1-0.5-1.1-1.1V34.2c0-0.6,0.5-1.1,1.1-1.1h36.9c0.6,0,1.1,0.5,1.1,1.1v19.3
			C50.4,54.1,49.9,54.6,49.3,54.6z"/>
		
			<linearGradient id="SVGID_43_" gradientUnits="userSpaceOnUse" x1="32.5474" y1="12.6145" x2="11.4904" y2="57.9105" gradientTransform="matrix(1 0 0 -1 0 60)">
			<stop  offset="0" style="stop-color:#92F37F;stop-opacity:0"/>
			<stop  offset="1" style="stop-color:#FFEE83"/>
		</linearGradient>
		<path class="st41" d="M48.5,53.8H13.3c-0.6,0-1-0.5-1-1V34.9c0-0.6,0.5-1,1-1h35.3c0.6,0,1,0.5,1,1v17.9
			C49.6,53.4,49.1,53.8,48.5,53.8z"/>
		
			<linearGradient id="SVGID_44_" gradientUnits="userSpaceOnUse" x1="29.5481" y1="20.2595" x2="35.6469" y2="1.7597" gradientTransform="matrix(1 0 0 -1 0 60)">
			<stop  offset="0" style="stop-color:#91F27F"/>
			<stop  offset="1" style="stop-color:#00B302"/>
		</linearGradient>
		<path class="st42" d="M47.2,39.7c-1.8,0-3.3-1.5-3.3-3.3c0-0.1,0-0.1,0-0.2c0-0.4-0.3-0.6-0.6-0.6H18.5c-0.4,0-0.6,0.3-0.6,0.6
			c0,0.1,0,0.1,0,0.2c0,1.8-1.5,3.3-3.3,3.3c0,0,0,0,0,0c-0.3,0-0.6,0.3-0.6,0.6v7.1c0,0.3,0.3,0.6,0.6,0.6h0c1.8,0,3.3,1.5,3.3,3.3
			c0,0.1,0,0.1,0,0.2c0,0.4,0.3,0.6,0.6,0.6h24.8c0.4,0,0.6-0.3,0.6-0.6c0-0.1,0-0.1,0-0.2c0-1.8,1.5-3.3,3.3-3.3h0
			c0.3,0,0.6-0.3,0.6-0.6v-7.1C47.8,39.9,47.5,39.7,47.2,39.7C47.2,39.7,47.2,39.7,47.2,39.7z"/>
		
			<linearGradient id="SVGID_45_" gradientUnits="userSpaceOnUse" x1="36.6242" y1="12.4369" x2="14.1692" y2="27.0327" gradientTransform="matrix(1 0 0 -1 0 60)">
			<stop  offset="0" style="stop-color:#92F37F"/>
			<stop  offset="1" style="stop-color:#4AB272"/>
		</linearGradient>
		<path class="st43" d="M30.9,51.3c4.1,0,7.5-3.3,7.5-7.5s-3.3-7.5-7.5-7.5c-4.1,0-7.5,3.3-7.5,7.5S26.8,51.3,30.9,51.3z"/>
		
			<linearGradient id="SVGID_46_" gradientUnits="userSpaceOnUse" x1="36.1632" y1="12.3225" x2="20.3781" y2="19.3104" gradientTransform="matrix(1 0 0 -1 0 60)">
			<stop  offset="0" style="stop-color:#4AB272;stop-opacity:0"/>
			<stop  offset="1" style="stop-color:#009245"/>
		</linearGradient>
		<path class="st44" d="M33.8,39.3c-0.1-0.2-0.3-0.3-0.7-0.4c-0.4-0.1-0.7-0.2-1.1-0.3c0,0,0,0-0.1,0L31.4,38
			c-0.1-0.1-0.2-0.1-0.3-0.1c-0.1,0-0.2,0-0.3,0.1c-0.1,0.1-0.1,0.1-0.1,0.2v0.4c-0.8,0.1-1.4,0.4-2,0.8c-0.5,0.4-0.8,1.1-0.8,1.9
			c0,0.3,0,0.6,0.1,0.8c0.1,0.2,0.2,0.5,0.3,0.6c0.2,0.2,0.3,0.3,0.4,0.5c0,0,0,0,0,0c0,0,1.8,1.8,1.8,1.8c0,0,0,0,0.1,0.1v2.4
			c-0.4,0-0.8-0.1-1.1-0.3c-0.3-0.2-0.6-0.4-0.8-0.5c-0.2-0.2-0.3-0.3-0.5-0.3c-0.2,0-0.3,0.1-0.5,0.3c-0.1,0.2-0.2,0.4-0.2,0.6
			c0,0.3,0.2,0.6,0.5,0.9l6.4,6.4H49L33.8,39.3z"/>
		
			<linearGradient id="SVGID_47_" gradientUnits="userSpaceOnUse" x1="30.1912" y1="16.7966" x2="36.3056" y2="12.6788" gradientTransform="matrix(1 0 0 -1 0 60)">
			<stop  offset="0" style="stop-color:#4AB272"/>
			<stop  offset="1" style="stop-color:#077565"/>
		</linearGradient>
		<path class="st45" d="M27.6,47.3c0-0.2,0.1-0.4,0.2-0.6c0.1-0.2,0.3-0.3,0.5-0.3c0.1,0,0.3,0.1,0.5,0.3c0.2,0.2,0.4,0.4,0.8,0.5
			c0.3,0.2,0.7,0.3,1.1,0.3v-3.4c-0.3-0.1-0.5-0.2-0.7-0.3c-0.2-0.1-0.4-0.2-0.6-0.3c-0.3-0.1-0.5-0.2-0.6-0.4
			c-0.1-0.1-0.3-0.3-0.4-0.5c-0.2-0.2-0.3-0.4-0.3-0.6c-0.1-0.2-0.1-0.5-0.1-0.8c0-0.8,0.3-1.5,0.8-1.9c0.5-0.4,1.2-0.7,2-0.8v-0.4
			c0-0.1,0-0.2,0.1-0.2c0.1-0.1,0.2-0.1,0.3-0.1c0.1,0,0.2,0,0.3,0.1c0.1,0.1,0.1,0.1,0.1,0.2v0.4c0.6,0,1.1,0.1,1.6,0.3
			c0.5,0.2,0.8,0.4,0.8,0.8c0,0.2-0.1,0.4-0.2,0.5c-0.1,0.2-0.3,0.3-0.5,0.3c-0.1,0-0.3-0.1-0.6-0.2c-0.3-0.2-0.7-0.3-1.1-0.3v3
			c0.4,0.1,0.7,0.3,1,0.4c0.3,0.1,0.5,0.3,0.8,0.5c0.3,0.2,0.5,0.5,0.6,0.9c0.1,0.4,0.2,0.8,0.2,1.2c0,0.9-0.2,1.6-0.7,2.1
			c-0.5,0.5-1.1,0.8-1.9,0.9v0.5c0,0.1,0,0.2-0.1,0.2c-0.1,0.1-0.2,0.1-0.3,0.1c-0.1,0-0.2,0-0.3-0.1c-0.1-0.1-0.1-0.1-0.1-0.2V49
			c-0.8,0-1.6-0.2-2.2-0.6C27.9,48.1,27.6,47.7,27.6,47.3L27.6,47.3z M29.3,41.2c0,0.4,0.1,0.7,0.4,0.9c0.2,0.2,0.6,0.4,1.1,0.6V40
			C29.8,40.1,29.3,40.5,29.3,41.2z M31.4,47.6c0.9-0.2,1.3-0.6,1.3-1.4c0-0.4-0.1-0.8-0.3-1c-0.2-0.2-0.5-0.5-0.9-0.6V47.6z"/>
		
			<linearGradient id="SVGID_48_" gradientUnits="userSpaceOnUse" x1="14.506" y1="23.4031" x2="17.4251" y2="20.2504" gradientTransform="matrix(1 0 0 -1 0 60)">
			<stop  offset="0" style="stop-color:#91F27F"/>
			<stop  offset="1" style="stop-color:#00B302"/>
		</linearGradient>
		<path class="st46" d="M15,38.7c0.9,0,1.5-0.7,1.5-1.5c0-0.9-0.7-1.5-1.5-1.5c-0.9,0-1.5,0.7-1.5,1.5C13.4,38,14.1,38.7,15,38.7z"
			/>
		
			<linearGradient id="SVGID_49_" gradientUnits="userSpaceOnUse" x1="46.3118" y1="23.4031" x2="49.231" y2="20.2504" gradientTransform="matrix(1 0 0 -1 0 60)">
			<stop  offset="0" style="stop-color:#91F27F"/>
			<stop  offset="1" style="stop-color:#00B302"/>
		</linearGradient>
		<path class="st47" d="M46.8,38.7c0.9,0,1.5-0.7,1.5-1.5c0-0.9-0.7-1.5-1.5-1.5c-0.9,0-1.5,0.7-1.5,1.5
			C45.3,38,45.9,38.7,46.8,38.7z"/>
		
			<linearGradient id="SVGID_50_" gradientUnits="userSpaceOnUse" x1="14.506" y1="9.9733" x2="17.4251" y2="6.8205" gradientTransform="matrix(1 0 0 -1 0 60)">
			<stop  offset="0" style="stop-color:#91F27F"/>
			<stop  offset="1" style="stop-color:#00B302"/>
		</linearGradient>
		<path class="st48" d="M15,52.1c0.9,0,1.5-0.7,1.5-1.5c0-0.9-0.7-1.5-1.5-1.5c-0.9,0-1.5,0.7-1.5,1.5C13.4,51.4,14.1,52.1,15,52.1z
			"/>
		
			<linearGradient id="SVGID_51_" gradientUnits="userSpaceOnUse" x1="46.3118" y1="9.9733" x2="49.231" y2="6.8205" gradientTransform="matrix(1 0 0 -1 0 60)">
			<stop  offset="0" style="stop-color:#91F27F"/>
			<stop  offset="1" style="stop-color:#00B302"/>
		</linearGradient>
		<path class="st49" d="M46.8,52.1c0.9,0,1.5-0.7,1.5-1.5c0-0.9-0.7-1.5-1.5-1.5c-0.9,0-1.5,0.7-1.5,1.5
			C45.3,51.4,45.9,52.1,46.8,52.1z"/>
		
			<linearGradient id="SVGID_52_" gradientUnits="userSpaceOnUse" x1="47.1134" y1="15.8662" x2="27.5793" y2="16.4243" gradientTransform="matrix(1 0 0 -1 0 60)">
			<stop  offset="0" style="stop-color:#005A01;stop-opacity:0"/>
			<stop  offset="1" style="stop-color:#005A01"/>
		</linearGradient>
		<path class="st50" d="M35.6,54.6h13.7c0.6,0,1.1-0.5,1.1-1.1v-8.1L38.2,33.1h-2.6V54.6z"/>
		
			<linearGradient id="SVGID_53_" gradientUnits="userSpaceOnUse" x1="25.8325" y1="20.0362" x2="44.3793" y2="5.8412" gradientTransform="matrix(1 0 0 -1 0 60)">
			<stop  offset="0" style="stop-color:#FFD945"/>
			<stop  offset="0.3043" style="stop-color:#FFCD3E"/>
			<stop  offset="0.8558" style="stop-color:#FFAD2B"/>
			<stop  offset="1" style="stop-color:#FFA325"/>
		</linearGradient>
		<path class="st51" d="M37.2,55.1H24.6c-0.6,0-1.1-0.5-1.1-1.1V33.7c0-0.6,0.5-1.1,1.1-1.1h12.7c0.6,0,1.1,0.5,1.1,1.1V54
			C38.4,54.6,37.9,55.1,37.2,55.1L37.2,55.1z"/>
		
			<linearGradient id="SVGID_54_" gradientUnits="userSpaceOnUse" x1="37.2198" y1="11.6878" x2="20.1973" y2="23.2687" gradientTransform="matrix(1 0 0 -1 0 60)">
			<stop  offset="0" style="stop-color:#FFD945;stop-opacity:0"/>
			<stop  offset="1" style="stop-color:#FBED21"/>
		</linearGradient>
		<path class="st52" d="M25.6,33.6c-0.6,0-1.1,0.5-1.1,1.1v20.4c0,0,0,0,0,0c0,0,0,0,0,0h12.7c0.6,0,1.1-0.5,1.1-1.1V33.7
			c0,0,0,0,0,0c0,0,0,0,0,0H25.6z"/>
		
			<linearGradient id="SVGID_55_" gradientUnits="userSpaceOnUse" x1="34.7828" y1="12.6586" x2="23.324" y2="18.5711" gradientTransform="matrix(1 0 0 -1 0 60)">
			<stop  offset="0" style="stop-color:#E87264;stop-opacity:0"/>
			<stop  offset="1" style="stop-color:#FF7044"/>
		</linearGradient>
		<path class="st53" d="M38.4,54V43.9l-4.5-4.5c-0.1-0.2-0.3-0.3-0.7-0.4c-0.4-0.1-0.7-0.2-1.1-0.3c0,0,0,0-0.1,0L31.4,38
			c-0.1-0.1-0.2-0.1-0.3-0.1c-0.1,0-0.2,0-0.3,0.1c-0.1,0.1-0.1,0.1-0.1,0.2v0.4c-0.8,0.1-1.4,0.4-2,0.8c-0.5,0.4-0.8,1.1-0.8,1.9
			c0,0.3,0,0.6,0.1,0.8c0.1,0.2,0.2,0.5,0.3,0.6c0.2,0.2,0.3,0.3,0.4,0.5c0,0,0,0,0,0c0,0,1.8,1.8,1.8,1.8c0,0,0,0,0.1,0.1v2.4
			c-0.4,0-0.8-0.1-1.1-0.3c-0.3-0.2-0.6-0.4-0.8-0.5c-0.2-0.2-0.3-0.3-0.5-0.3c-0.2,0-0.3,0.1-0.5,0.3c-0.1,0.2-0.2,0.4-0.2,0.6
			c0,0.3,0.2,0.6,0.5,0.9l7,7h2.2C37.9,55.1,38.4,54.6,38.4,54L38.4,54z"/>
		
			<linearGradient id="SVGID_56_" gradientUnits="userSpaceOnUse" x1="24.1626" y1="20.3425" x2="32.1158" y2="15.5811" gradientTransform="matrix(1 0 0 -1 0 60)">
			<stop  offset="0" style="stop-color:#FFD945"/>
			<stop  offset="0.3043" style="stop-color:#FFCD3E"/>
			<stop  offset="0.8558" style="stop-color:#FFAD2B"/>
			<stop  offset="1" style="stop-color:#FFA325"/>
		</linearGradient>
		<path class="st54" d="M27.6,47.3c0-0.2,0.1-0.4,0.2-0.6c0.1-0.2,0.3-0.3,0.5-0.3c0.1,0,0.3,0.1,0.5,0.3c0.2,0.2,0.4,0.4,0.8,0.5
			c0.3,0.2,0.7,0.3,1.1,0.3v-3.4c-0.3-0.1-0.5-0.2-0.7-0.3c-0.2-0.1-0.4-0.2-0.6-0.3c-0.3-0.1-0.5-0.2-0.6-0.4
			c-0.1-0.1-0.3-0.3-0.4-0.5c-0.2-0.2-0.3-0.4-0.3-0.6c-0.1-0.2-0.1-0.5-0.1-0.8c0-0.8,0.3-1.5,0.8-1.9c0.5-0.4,1.2-0.7,2-0.8v-0.4
			c0-0.1,0-0.2,0.1-0.2c0.1-0.1,0.2-0.1,0.3-0.1c0.1,0,0.2,0,0.3,0.1c0.1,0.1,0.1,0.1,0.1,0.2v0.4c0.6,0,1.1,0.1,1.6,0.3
			c0.5,0.2,0.8,0.4,0.8,0.8c0,0.2-0.1,0.4-0.2,0.5c-0.1,0.2-0.3,0.3-0.5,0.3c-0.1,0-0.3-0.1-0.6-0.2c-0.3-0.2-0.7-0.3-1.1-0.3v3
			c0.4,0.1,0.7,0.3,1,0.4c0.3,0.1,0.5,0.3,0.8,0.5c0.3,0.2,0.5,0.5,0.6,0.9c0.1,0.4,0.2,0.8,0.2,1.2c0,0.9-0.2,1.6-0.7,2.1
			c-0.5,0.5-1.1,0.8-1.9,0.9v0.5c0,0.1,0,0.2-0.1,0.2c-0.1,0.1-0.2,0.1-0.3,0.1c-0.1,0-0.2,0-0.3-0.1c-0.1-0.1-0.1-0.1-0.1-0.2V49
			c-0.8,0-1.6-0.2-2.2-0.6C27.9,48.1,27.6,47.7,27.6,47.3L27.6,47.3z M29.3,41.2c0,0.4,0.1,0.7,0.4,0.9c0.2,0.2,0.6,0.4,1.1,0.6V40
			C29.8,40.1,29.3,40.5,29.3,41.2z M31.4,47.6c0.9-0.2,1.3-0.6,1.3-1.4c0-0.4-0.1-0.8-0.3-1c-0.2-0.2-0.5-0.5-0.9-0.6V47.6z"/>
		
			<linearGradient id="SVGID_57_" gradientUnits="userSpaceOnUse" x1="12.4602" y1="43.1234" x2="17.147" y2="36.8481" gradientTransform="matrix(1 0 0 -1 0 60)">
			<stop  offset="0" style="stop-color:#FFD945"/>
			<stop  offset="0.3043" style="stop-color:#FFCD3E"/>
			<stop  offset="0.8558" style="stop-color:#FFAD2B"/>
			<stop  offset="1" style="stop-color:#FFA325"/>
		</linearGradient>
		<path class="st55" d="M18.1,19.3c-1.5,1-2.8,2.2-3.7,3.7c-0.2,0.3-0.7,0.3-0.9,0c-1-1.5-2.2-2.8-3.7-3.8c-0.3-0.2-0.3-0.7,0-0.9
			c1.5-1,2.8-2.2,3.7-3.7c0.2-0.3,0.7-0.3,0.9,0c1,1.5,2.2,2.8,3.7,3.8C18.4,18.6,18.4,19.1,18.1,19.3z"/>
		
			<linearGradient id="SVGID_58_" gradientUnits="userSpaceOnUse" x1="6.9006" y1="49.6332" x2="10.2148" y2="45.1956" gradientTransform="matrix(1 0 0 -1 0 60)">
			<stop  offset="0" style="stop-color:#FFD945"/>
			<stop  offset="0.3043" style="stop-color:#FFCD3E"/>
			<stop  offset="0.8558" style="stop-color:#FFAD2B"/>
			<stop  offset="1" style="stop-color:#FFA325"/>
		</linearGradient>
		<path class="st56" d="M10.9,12.1c-1.1,0.7-2,1.6-2.6,2.6c-0.2,0.2-0.5,0.2-0.7,0c-0.7-1.1-1.6-2-2.6-2.7c-0.2-0.2-0.2-0.5,0-0.7
			c1.1-0.7,2-1.6,2.6-2.6c0.2-0.2,0.5-0.2,0.7,0c0.7,1.1,1.6,2,2.6,2.7C11.1,11.6,11.1,11.9,10.9,12.1z"/>
		
			<linearGradient id="SVGID_59_" gradientUnits="userSpaceOnUse" x1="22.4194" y1="53.3391" x2="25.7338" y2="48.9014" gradientTransform="matrix(1 0 0 -1 0 60)">
			<stop  offset="0" style="stop-color:#FFD945"/>
			<stop  offset="0.3043" style="stop-color:#FFCD3E"/>
			<stop  offset="0.8558" style="stop-color:#FFAD2B"/>
			<stop  offset="1" style="stop-color:#FFA325"/>
		</linearGradient>
		<path class="st57" d="M26.4,8.4c-1.1,0.7-2,1.6-2.6,2.6c-0.2,0.2-0.5,0.2-0.7,0c-0.7-1.1-1.6-2-2.6-2.7c-0.2-0.2-0.2-0.5,0-0.7
			c1.1-0.7,2-1.6,2.6-2.6c0.2-0.2,0.5-0.2,0.7,0c0.7,1.1,1.6,2,2.6,2.7C26.6,7.9,26.6,8.2,26.4,8.4L26.4,8.4z"/>
	</g>
</g>
</svg>
